<svg xmlns="http://www.w3.org/2000/svg">
<defs>
<font id="Xiomara" horiz-adv-x="2300" >
  <font-face 
    font-family="Xiomara"
    font-weight="400"
    font-stretch="normal"
    units-per-em="2048"
    panose-1="3 8 5 2 4 2 7 4 3 4"
    ascent="1638"
    descent="-410"
    x-height="849.999"
    cap-height="2077"
    bbox="-487 -1109 4041 2479"
    underline-thickness="150"
    underline-position="-142"
    unicode-range="U+0020-U+FB02"
  />
<missing-glyph horiz-adv-x="1760" 
d="M943 869c2.66699 -6 9.33203 -13.6641 19.999 -22.9971c6 -6 16.333 -9 31 -9s33.667 2.66699 57 8c-35.333 -33.333 -79 -89 -131 -167c-17.333 -26.667 -37 -45 -59 -55c-16 -7.33301 -33.667 -11 -53 -11c-40 0 -87 16.333 -141 49c22 26 36.667 45 44 57
c6 9.33301 9 16.333 9 21c0 2.66699 -0.333008 4.66699 -1 6l-171 363c-11.333 24 -35 36 -71 36c-8.66699 0 -18.667 -0.666992 -30 -2c94 112.667 158.667 198.334 194 257.001c2.66699 2 5.33398 3 8.00098 3c23.333 0 51.333 -28.333 84 -85l4 -5c14.667 16 28 32 40 48
l196 195c37.333 -52 74 -98 110 -138c34 -38.667 78 -98.334 132 -179.001c10 -16.667 18.667 -33.334 26 -50.001c25.333 -53.333 38 -114 38 -182c0 -24.667 -1.66699 -50.334 -5 -77.001c-17.333 -122.667 -59 -259.334 -125 -410.001c1.33301 26 2 52 2 78
c0 130 -21.667 242 -65 336c-14 30.667 -30.333 59 -49 85c-89.333 125.333 -150.333 202 -183 230c-20.667 -37.333 -31 -70 -31 -98c0 -16.667 3.66699 -31.667 11 -45zM168.498 1994c10.333 -10 15.5 -22.333 15.5 -37c0 -14 -5.16699 -26.167 -15.5 -36.5
s-22.5 -15.5 -36.5 -15.5c-14.667 0 -27 5.16699 -37 15.5s-15 22.5 -15 36.5c0 14.667 5 27 15 37s22.333 15 37 15c14 0 26.167 -5 36.5 -15zM355.498 1994c10.333 -10 15.5 -22.333 15.5 -37c0 -14 -5.16699 -26.167 -15.5 -36.5s-22.833 -15.5 -37.5 -15.5
c-14 0 -26 5.16699 -36 15.5s-15 22.5 -15 36.5c0 14.667 5 27 15 37s22 15 36 15c14.667 0 27.167 -5 37.5 -15zM542.498 1994c10.333 -10 15.5 -22.333 15.5 -37c0 -14 -5.16699 -26.167 -15.5 -36.5s-22.833 -15.5 -37.5 -15.5c-14 0 -26 5.16699 -36 15.5

<glyph glyph-name=".notdef" horiz-adv-x="1760" 
d="M943 869c2.66699 -6 9.33203 -13.6641 19.999 -22.9971c6 -6 16.333 -9 31 -9s33.667 2.66699 57 8c-35.333 -33.333 -79 -89 -131 -167c-17.333 -26.667 -37 -45 -59 -55c-16 -7.33301 -33.667 -11 -53 -11c-40 0 -87 16.333 -141 49c22 26 36.667 45 44 57
c6 9.33301 9 16.333 9 21c0 2.66699 -0.333008 4.66699 -1 6l-171 363c-11.333 24 -35 36 -71 36c-8.66699 0 -18.667 -0.666992 -30 -2c94 112.667 158.667 198.334 194 257.001c2.66699 2 5.33398 3 8.00098 3c23.333 0 51.333 -28.333 84 -85l4 -5c14.667 16 28 32 40 48
l196 195c37.333 -52 74 -98 110 -138c34 -38.667 78 -98.334 132 -179.001c10 -16.667 18.667 -33.334 26 -50.001c25.333 -53.333 38 -114 38 -182c0 -24.667 -1.66699 -50.334 -5 -77.001c-17.333 -122.667 -59 -259.334 -125 -410.001c1.33301 26 2 52 2 78
c0 130 -21.667 242 -65 336c-14 30.667 -30.333 59 -49 85c-89.333 125.333 -150.333 202 -183 230c-20.667 -37.333 -31 -70 -31 -98c0 -16.667 3.66699 -31.667 11 -45zM168.498 1994c10.333 -10 15.5 -22.333 15.5 -37c0 -14 -5.16699 -26.167 -15.5 -36.5
s-22.5 -15.5 -36.5 -15.5c-14.667 0 -27 5.16699 -37 15.5s-15 22.5 -15 36.5c0 14.667 5 27 15 37s22.333 15 37 15c14 0 26.167 -5 36.5 -15zM355.498 1994c10.333 -10 15.5 -22.333 15.5 -37c0 -14 -5.16699 -26.167 -15.5 -36.5s-22.833 -15.5 -37.5 -15.5
c-14 0 -26 5.16699 -36 15.5s-15 22.5 -15 36.5c0 14.667 5 27 15 37s22 15 36 15c14.667 0 27.167 -5 37.5 -15zM542.498 1994c10.333 -10 15.5 -22.333 15.5 -37c0 -14 -5.16699 -26.167 -15.5 -36.5s-22.833 -15.5 -37.5 -15.5c-14 0 -26 5.16699 -36 15.5
s-15 22.5 -15 36.5c0 14.667 5 27 15 37s22 15 36 15c14.667 0 27.167 -5 37.5 -15zM729.498 1994c10.333 -10 15.5 -22.333 15.5 -37c0 -14 -5.16699 -26.167 -15.5 -36.5s-22.5 -15.5 -36.5 -15.5c-14.667 0 -27 5.16699 -37 15.5s-15 22.5 -15 36.5c0 14.667 5 27 15 37
s22.333 15 37 15c14 0 26.167 -5 36.5 -15zM916.498 1994c10.333 -10 15.5 -22.333 15.5 -37c0 -14 -5.16699 -26.167 -15.5 -36.5s-22.833 -15.5 -37.5 -15.5c-14 0 -25.833 5.16699 -35.5 15.5s-14.5 22.5 -14.5 36.5c0 14.667 4.83301 27 14.5 37s21.5 15 35.5 15
c14.667 0 27.167 -5 37.5 -15zM1103.5 1994c10.333 -10 15.5 -22.333 15.5 -37c0 -14 -5.16699 -26.167 -15.5 -36.5s-22.5 -15.5 -36.5 -15.5c-14.667 0 -27 5.16699 -37 15.5s-15 22.5 -15 36.5c0 14.667 5 27 15 37s22.333 15 37 15c14 0 26.167 -5 36.5 -15zM1290 1994
c10 -10 15 -22.333 15 -37c0 -14 -5 -26.167 -15 -36.5s-22 -15.5 -36 -15.5c-14.667 0 -27 5.16699 -37 15.5s-15 22.5 -15 36.5c0 14.667 5 27 15 37s22.333 15 37 15c14 0 26 -5 36 -15zM1477.5 1994c10.333 -10 15.5 -22.333 15.5 -37
c0 -14 -5.16699 -26.167 -15.5 -36.5s-22.833 -15.5 -37.5 -15.5c-14 0 -26 5.16699 -36 15.5s-15 22.5 -15 36.5c0 14.667 5 27 15 37s22 15 36 15c14.667 0 27.167 -5 37.5 -15zM1664.5 1994c10.333 -10 15.5 -22.333 15.5 -37c0 -14 -5.16699 -26.167 -15.5 -36.5
s-22.5 -15.5 -36.5 -15.5c-14.667 0 -27 5.16699 -37 15.5s-15 22.5 -15 36.5c0 14.667 5 27 15 37s22.333 15 37 15c14 0 26.167 -5 36.5 -15zM168.498 124.003c10.333 -10 15.5 -22.333 15.5 -37c0 -14 -5.16699 -26.167 -15.5 -36.5s-22.5 -15.5 -36.5 -15.5
c-14.667 0 -27 5.16699 -37 15.5s-15 22.5 -15 36.5c0 14.667 5 27 15 37s22.333 15 37 15c14 0 26.167 -5 36.5 -15zM355.498 124.003c10.333 -10 15.5 -22.333 15.5 -37c0 -14 -5.16699 -26.167 -15.5 -36.5s-22.833 -15.5 -37.5 -15.5c-14 0 -26 5.16699 -36 15.5
s-15 22.5 -15 36.5c0 14.667 5 27 15 37s22 15 36 15c14.667 0 27.167 -5 37.5 -15zM542.498 124.003c10.333 -10 15.5 -22.333 15.5 -37c0 -14 -5.16699 -26.167 -15.5 -36.5s-22.833 -15.5 -37.5 -15.5c-14 0 -26 5.16699 -36 15.5s-15 22.5 -15 36.5c0 14.667 5 27 15 37
s22 15 36 15c14.667 0 27.167 -5 37.5 -15zM729.498 124.003c10.333 -10 15.5 -22.333 15.5 -37c0 -14 -5.16699 -26.167 -15.5 -36.5s-22.5 -15.5 -36.5 -15.5c-14.667 0 -27 5.16699 -37 15.5s-15 22.5 -15 36.5c0 14.667 5 27 15 37s22.333 15 37 15
c14 0 26.167 -5 36.5 -15zM916.498 124.003c10.333 -10 15.5 -22.333 15.5 -37c0 -14 -5.16699 -26.167 -15.5 -36.5s-22.833 -15.5 -37.5 -15.5c-14 0 -25.833 5.16699 -35.5 15.5s-14.5 22.5 -14.5 36.5c0 14.667 4.83301 27 14.5 37s21.5 15 35.5 15
c14.667 0 27.167 -5 37.5 -15zM1103.5 124.003c10.333 -10 15.5 -22.333 15.5 -37c0 -14 -5.16699 -26.167 -15.5 -36.5s-22.5 -15.5 -36.5 -15.5c-14.667 0 -27 5.16699 -37 15.5s-15 22.5 -15 36.5c0 14.667 5 27 15 37s22.333 15 37 15c14 0 26.167 -5 36.5 -15z
M1290 124.003c10 -10 15 -22.333 15 -37c0 -14 -5 -26.167 -15 -36.5s-22 -15.5 -36 -15.5c-14.667 0 -27 5.16699 -37 15.5s-15 22.5 -15 36.5c0 14.667 5 27 15 37s22.333 15 37 15c14 0 26 -5 36 -15zM1477.5 124.003c10.333 -10 15.5 -22.333 15.5 -37
c0 -14 -5.16699 -26.167 -15.5 -36.5s-22.833 -15.5 -37.5 -15.5c-14 0 -26 5.16699 -36 15.5s-15 22.5 -15 36.5c0 14.667 5 27 15 37s22 15 36 15c14.667 0 27.167 -5 37.5 -15zM1664.5 124.003c10.333 -10 15.5 -22.333 15.5 -37c0 -14 -5.16699 -26.167 -15.5 -36.5
s-22.5 -15.5 -36.5 -15.5c-14.667 0 -27 5.16699 -37 15.5s-15 22.5 -15 36.5c0 14.667 5 27 15 37s22.333 15 37 15c14 0 26.167 -5 36.5 -15zM168.498 1733.5c-10.333 -10.333 -22.5 -15.5 -36.5 -15.5c-14.667 0 -27 5.16699 -37 15.5s-15 22.833 -15 37.5
c0 14 5 26 15 36s22.333 15 37 15c14 0 26.167 -5 36.5 -15s15.5 -22 15.5 -36c0 -14.667 -5.16699 -27.167 -15.5 -37.5zM168.498 1546.5c-10.333 -10.333 -22.5 -15.5 -36.5 -15.5c-14.667 0 -27 5.16699 -37 15.5s-15 22.833 -15 37.5c0 14 5 26 15 36s22.333 15 37 15
c14 0 26.167 -5 36.5 -15s15.5 -22 15.5 -36c0 -14.667 -5.16699 -27.167 -15.5 -37.5zM168.498 1359.5c-10.333 -10.333 -22.5 -15.5 -36.5 -15.5c-14.667 0 -27 5.16699 -37 15.5s-15 22.5 -15 36.5c0 14.667 5 27 15 37s22.333 15 37 15c14 0 26.167 -5 36.5 -15
s15.5 -22.333 15.5 -37c0 -14 -5.16699 -26.167 -15.5 -36.5zM168.498 1172.5c-10.333 -10.333 -22.5 -15.5 -36.5 -15.5c-14.667 0 -27 5.16699 -37 15.5s-15 22.833 -15 37.5c0 14 5 25.833 15 35.5s22.333 14.5 37 14.5c14 0 26.167 -4.83301 36.5 -14.5
s15.5 -21.5 15.5 -35.5c0 -14.667 -5.16699 -27.167 -15.5 -37.5zM168.498 985.503c-10.333 -10.333 -22.5 -15.5 -36.5 -15.5c-14.667 0 -27 5.16699 -37 15.5s-15 22.5 -15 36.5c0 14.667 5 27 15 37s22.333 15 37 15c14 0 26.167 -5 36.5 -15s15.5 -22.333 15.5 -37
c0 -14 -5.16699 -26.167 -15.5 -36.5zM168.498 799.003c-10.333 -10 -22.5 -15 -36.5 -15c-14.667 0 -27 5 -37 15s-15 22 -15 36c0 14.667 5 27 15 37s22.333 15 37 15c14 0 26.167 -5 36.5 -15s15.5 -22.333 15.5 -37c0 -14 -5.16699 -26 -15.5 -36zM168.498 611.503
c-10.333 -10.333 -22.5 -15.5 -36.5 -15.5c-14.667 0 -27 5.16699 -37 15.5s-15 22.833 -15 37.5c0 14 5 26 15 36s22.333 15 37 15c14 0 26.167 -5 36.5 -15s15.5 -22 15.5 -36c0 -14.667 -5.16699 -27.167 -15.5 -37.5zM168.498 424.503
c-10.333 -10.333 -22.5 -15.5 -36.5 -15.5c-14.667 0 -27 5.16699 -37 15.5s-15 22.5 -15 36.5c0 14.667 5 27 15 37s22.333 15 37 15c14 0 26.167 -5 36.5 -15s15.5 -22.333 15.5 -37c0 -14 -5.16699 -26.167 -15.5 -36.5zM168.498 237.503
c-10.333 -10.333 -22.5 -15.5 -36.5 -15.5c-14.667 0 -27 5.16699 -37 15.5s-15 22.5 -15 36.5c0 14.667 5 27 15 37s22.333 15 37 15c14 0 26.167 -5 36.5 -15s15.5 -22.333 15.5 -37c0 -14 -5.16699 -26.167 -15.5 -36.5zM1576 1771c0 14 5 26 15 36s22.333 15 37 15
c14 0 26.167 -5 36.5 -15s15.5 -22 15.5 -36c0 -14.667 -5.16699 -27.167 -15.5 -37.5s-22.5 -15.5 -36.5 -15.5c-14.667 0 -27 5.16699 -37 15.5s-15 22.833 -15 37.5zM1576 1584c0 14 5 26 15 36s22.333 15 37 15c14 0 26.167 -5 36.5 -15s15.5 -22 15.5 -36
c0 -14.667 -5.16699 -27.167 -15.5 -37.5s-22.5 -15.5 -36.5 -15.5c-14.667 0 -27 5.16699 -37 15.5s-15 22.833 -15 37.5zM1576 1396c0 14.667 5 27 15 37s22.333 15 37 15c14 0 26.167 -5 36.5 -15s15.5 -22.333 15.5 -37c0 -14 -5.16699 -26.167 -15.5 -36.5
s-22.5 -15.5 -36.5 -15.5c-14.667 0 -27 5.16699 -37 15.5s-15 22.5 -15 36.5zM1576 1210c0 14 5 25.833 15 35.5s22.333 14.5 37 14.5c14 0 26.167 -4.83301 36.5 -14.5s15.5 -21.5 15.5 -35.5c0 -14.667 -5.16699 -27.167 -15.5 -37.5s-22.5 -15.5 -36.5 -15.5
c-14.667 0 -27 5.16699 -37 15.5s-15 22.833 -15 37.5zM1576 1022c0 14.667 5 27 15 37s22.333 15 37 15c14 0 26.167 -5 36.5 -15s15.5 -22.333 15.5 -37c0 -14 -5.16699 -26.167 -15.5 -36.5s-22.5 -15.5 -36.5 -15.5c-14.667 0 -27 5.16699 -37 15.5s-15 22.5 -15 36.5z
M1576 835.003c0 14.667 5 27 15 37s22.333 15 37 15c14 0 26.167 -5 36.5 -15s15.5 -22.333 15.5 -37c0 -14 -5.16699 -26 -15.5 -36s-22.5 -15 -36.5 -15c-14.667 0 -27 5 -37 15s-15 22 -15 36zM1576 649.003c0 14 5 26 15 36s22.333 15 37 15c14 0 26.167 -5 36.5 -15
s15.5 -22 15.5 -36c0 -14.667 -5.16699 -27.167 -15.5 -37.5s-22.5 -15.5 -36.5 -15.5c-14.667 0 -27 5.16699 -37 15.5s-15 22.833 -15 37.5zM1576 461.003c0 14.667 5 27 15 37s22.333 15 37 15c14 0 26.167 -5 36.5 -15s15.5 -22.333 15.5 -37
c0 -14 -5.16699 -26.167 -15.5 -36.5s-22.5 -15.5 -36.5 -15.5c-14.667 0 -27 5.16699 -37 15.5s-15 22.5 -15 36.5zM1576 274.003c0 14.667 5 27 15 37s22.333 15 37 15c14 0 26.167 -5 36.5 -15s15.5 -22.333 15.5 -37c0 -14 -5.16699 -26.167 -15.5 -36.5
s-22.5 -15.5 -36.5 -15.5c-14.667 0 -27 5.16699 -37 15.5s-15 22.5 -15 36.5z" />
    <glyph glyph-name="space" unicode=" " horiz-adv-x="508" 
 />
    <glyph glyph-name="space" unicode="&#xa0;" horiz-adv-x="508" 
 />
    <glyph glyph-name="exclam" unicode="!" horiz-adv-x="449" 
d="M198 293c21.333 12 42 18 62 18c14 0 27.333 -3 40 -9c30.667 -14 50 -42 58 -84c2 -12 3 -23.667 3 -35c0 -30.667 -7.33301 -62 -22 -94c-21.333 -44.667 -49 -78 -83 -100c-20.667 -12.667 -40.667 -19 -60 -19c-14 0 -28 3.33301 -42 10
c-33.333 15.333 -54 44 -62 86c-2 11.333 -3 23 -3 35c0 30.667 7.33301 62 22 94c20.667 44 49.667 76.667 87 98zM182 549c5.33301 22.667 7.99902 52.668 7.99902 90.001c0 54.667 -5.66699 125 -17 211c-19.333 144 -36 300 -50 468c-6 64.667 -9 122 -9 172
c0 80 7.33301 141.667 22 185c18 55.333 45.667 83 83 83c9.33301 0 19.333 -1.66699 30 -5c38 -13.333 57 -60.333 57 -141c0 -29.333 -2.33301 -63.333 -7 -102c-10 -74 -15 -152.667 -15 -236c0 -78.667 4.33301 -161.334 13 -248.001c14.667 -146 22 -266.333 22 -361
c0 -20.667 -0.333008 -40 -1 -58c-4 -98.667 -29.667 -148 -77 -148c-1.33301 0 -2.66602 0.333008 -3.99902 1c-39.333 2 -59 20.667 -59 56c0 10 1.33301 21 4 33z" />
    <glyph glyph-name="quotedbl" unicode="&#x22;" horiz-adv-x="732" 
d="M282 1756c0 -44.667 -8.33203 -101.668 -24.999 -171.001c-12.667 -52 -19 -103 -19 -153c0 -18 0.666992 -35.667 2 -53c0.666992 -7.33301 1 -14 1 -20c0 -53.333 -22.333 -80 -67 -80h-1c-48.667 0.666992 -73 33.334 -73 98.001v31c0 62 -7 122.667 -21 182
c-16 66 -24 121.333 -24 166c0 44 11.167 78.5 33.5 103.5s49.166 37.5 80.499 37.5c30.667 0 57.167 -12.5 79.5 -37.5s33.5 -59.5 33.5 -103.5zM582.001 1756c0 -44.667 -8.33203 -101.668 -24.999 -171.001c-12.667 -52 -19 -103 -19 -153c0 -18 0.666992 -35.667 2 -53
c0.666992 -7.33301 1 -14 1 -20c0 -53.333 -22.333 -80 -67 -80h-1c-48.667 0.666992 -73 33.334 -73 98.001v31c0 62 -7 122.667 -21 182c-16 66 -24 121.333 -24 166c0 44 11.167 78.5 33.5 103.5s49.166 37.5 80.499 37.5c30.667 0 57.167 -12.5 79.5 -37.5
s33.5 -59.5 33.5 -103.5z" />
    <glyph glyph-name="numbersign" unicode="#" horiz-adv-x="1327" 
d="M399 318c13.333 48 27.334 93.3359 42.001 136.003c17.333 18 31 52.333 41 103c-73.333 -1.33301 -135.666 -9.33301 -186.999 -24c-10.667 -12.667 -29.334 -19 -56.001 -19s-44.667 6.33301 -54 19c-8.66699 10.667 -13 21.667 -13 33c0 16 7.66699 33 23 51
c21.333 25.333 77.666 38 168.999 38c26.667 0 55.667 -0.666992 87 -2l46 -2l2 21c2 21.333 3 42 3 62c0 29.333 -9 68.666 -27 117.999c-8.66699 22.667 -13 43 -13 61c0 32.667 13.667 57 41 73c16.667 10.667 33 16 49 16c22.667 0 43.667 -10.667 63 -32
c20 -22 30 -56.667 30 -104c0 -32.667 -4.66699 -71 -14 -115c-10.667 -17.333 -22 -52 -34 -104c76.667 -3.33301 150.334 -5 221.001 -5h16c5.33301 42 9.66602 82.667 12.999 122c2.66699 0 4 12.667 4 38c0 37.333 -2.66699 65.333 -8 84
c-2 6.66699 -3 13.334 -3 20.001c0 24 13.333 47.333 40 70c16 13.333 32.667 20 50 20c18 0 36.667 -7.33301 56 -22c20 -16 30 -44.333 30 -85c0 -34.667 -7.33301 -78 -22 -130c-15.333 -22 -30 -56.667 -44 -104c44 9.33301 84 24.666 120 45.999c4 22 19.667 33 47 33
c21.333 0 39.666 -7 54.999 -21c16.667 -16 25 -33.333 25 -52s-7.66699 -38 -23 -58c-32 -42.667 -89.667 -64.667 -173 -66c-28 -0.666992 -57.333 -1 -88 -1c-2 -6.66699 -4 -13 -6 -19c-22.667 -68 -38.667 -138.333 -48 -211c71.333 4.66699 138.333 24 201 58
c8 22.667 26.333 34 55 34c22.667 0 41.667 -7 57 -21c16.667 -16 25 -33.333 25 -52s-7.66699 -38 -23 -58c-32 -42.667 -89.667 -64.667 -173 -66c-18.667 -0.666992 -37.667 -1 -57 -1c-30 0 -60.667 0.666992 -92 2c-6.66699 -81.333 -12 -149 -16 -203
c-4.66699 -56 -26.667 -84 -66 -84c-2.66699 0 -5.66699 0.333008 -9 1c-38.667 4 -58 44 -58 120c0 11.333 0.333008 23.333 1 36c4.66699 34 13 79 25 135c-41.333 2 -84 5 -128 9c-16 3.33301 -45 5 -87 5h-21c-1.33301 -8.66699 -2.33301 -17.334 -3 -26.001
c-11.333 -67.333 -17 -129.333 -17 -186s-19 -88.334 -57 -95.001c-6 -1.33301 -11.667 -2 -17 -2c-29.333 0 -49.333 17 -60 51c-4 13.333 -6 31.333 -6 54c0 43.333 8 86.333 24 129c4.66699 22.667 9.66699 44.667 15 66c-28 -4 -53.667 -9.33301 -77 -16
c-10 -12 -28.333 -18 -55 -18c-27.333 0 -45.666 6.33301 -54.999 19c-8.66699 10 -13 21 -13 33c0 16 7.66699 33 23 51c21.333 24.667 79.333 37 174 37h30zM575.001 556.003l-23 -89c-18.667 -36.667 -33.667 -87.667 -45 -153c89.333 -4.66699 172 -7.66699 248 -9
l55 188l8 46c-68 2.66699 -123.667 7 -167 13c-26.667 2 -52 3.33301 -76 4z" />
    <glyph glyph-name="dollar" unicode="$" horiz-adv-x="1200" 
d="M578 110c1.33301 18.667 2 39.667 2 63c0 76 -6 176.333 -18 301h-9c-35.333 0 -66.333 19 -93 57c-18.667 25.333 -41 38 -67 38c-15.333 0 -32 -4.33301 -50 -13c-49.333 -24.667 -74 -76.667 -74 -156c0 -80 29 -146.667 87 -200
c55.333 -51.333 129.333 -81.333 222 -90zM704 114c48 8.66699 88.001 26.668 120.001 54.001c54 45.333 91.333 113.333 112 204c6 26.667 9 53.334 9 80.001c0 63.333 -17 126.666 -51 189.999c-40.667 73.333 -127.334 138 -260.001 194l17 -154
c11.333 -16.667 19 -35.334 23 -56.001c2 -12 3 -23.333 3 -34c0 -20 -3.33301 -37.333 -10 -52c20 -178.667 32.333 -320.667 37 -426zM485.001 1362l-27.001 -3.99902c-89.333 -18.667 -138.666 -63 -147.999 -133c-1.33301 -9.33301 -2 -18 -2 -26
c0 -58.667 29 -107.334 87 -146.001c30 -20 67.667 -40.333 113 -61c-14 150.667 -21.667 274 -23 370zM519 878.002c-176 62 -281.33 139.67 -315.997 233.003c-10.667 28 -16 55.667 -16 83c0 67.333 31.333 132.333 94 195c57.333 58 126.666 93 207.999 105
c11.333 141.333 37 224.666 77 249.999c20.667 12.667 40 19 58 19c16.667 0 32 -5.33301 46 -16c20 -16 30 -36.333 30 -61c0 -11.333 -2 -23.666 -6 -36.999c-10.667 -32.667 -26.334 -85 -47.001 -157c134 -20 219.667 -67.333 257 -142c23.333 -47.333 35 -90 35 -128
c0 -24.667 -5 -47.334 -15 -68.001c-20 -42 -50.667 -63 -92 -63c-10 0 -20.667 1.33301 -32 4c-53.333 12 -80 39.667 -80 83c0 4 0.333008 8 1 12v15c0 44 -20.333 84 -61 120c-12.667 11.333 -27.334 20.333 -44.001 27c-4 -36 -6 -79 -6 -129
c0 -76.667 4.66699 -170 14 -280c25.333 -10 51.666 -19.667 78.999 -29c139.333 -48.667 237 -123 293 -223c40 -72 60 -150.667 60 -236c0 -32 -3 -65.333 -9 -100c-21.333 -124 -75.333 -218.333 -162 -283c-54 -40.667 -113.667 -67.334 -179 -80.001
c0 -18 -0.666992 -33.667 -2 -47c-11.333 -103.333 -37 -167.333 -77 -192c-20.667 -13.333 -40 -20 -58 -20c-16.667 0 -32 5.66699 -46 17c-20 15.333 -30 35.666 -30 60.999c0 11.333 2 23.666 6 36.999c11.333 36 28.333 82.333 51 139
c-102 10.667 -187.333 44.334 -256 101.001c-75.333 62 -122.333 144 -141 246c-6 30 -9 59.333 -9 88c0 67.333 15.667 129.333 47 186c44 81.333 105.667 132.333 185 153c32 8.66699 62 13 90 13c22.667 0 44.334 -3 65.001 -9c-4.66699 39.333 -8.66699 77 -12 113z" />
    <glyph glyph-name="percent" unicode="%" horiz-adv-x="1318" 
d="M468 31.5c-11.333 -69.667 -37 -116.829 -77 -141.496c-20.667 -13.333 -40 -20 -58 -20c-16.667 0 -32 5.66699 -46 17c-20 15.333 -30 35.666 -30 60.999c0 11.333 2 23.666 6 36.999c13.333 42 34.5 81.667 63.5 119s121 198.166 276 482.499
s246.667 464.833 275 541.5s62.5 127.667 102.5 153c20.667 12.667 40 19 58 19c16.667 0 32 -5.33301 46 -16c20 -16 30 -36.667 30 -62c0 -11.333 -2 -23.333 -6 -36c-13.333 -42.667 -43.5 -84.834 -90.5 -126.501s-147.5 -206 -301.5 -493s-236.667 -465.333 -248 -535z
M160 789.005c0 -57.333 14.5 -106.331 43.5 -146.998s64.167 -61 105.5 -61c40.667 0 75.5 20.333 104.5 61s43.5 89.667 43.5 147c0 58 -14.333 107.333 -43 148c-28 39.333 -61.333 59.666 -100 60.999c-4 -10.667 -9 -20.334 -15 -29.001
c-15.333 -21.333 -31.333 -32 -48 -32s-36 -10.167 -58 -30.5s-33 -59.5 -33 -117.5zM304 1115.01c73.333 0 134.833 -31.833 184.5 -95.5s74.5 -140.5 74.5 -230.5s-24.833 -166.833 -74.5 -230.5s-109.5 -95.5 -179.5 -95.5c-70.667 0 -130.667 31.833 -180 95.5
s-74 140.5 -74 230.5s15.667 163 47 219s57.5 94.5 78.5 115.5s42.167 31.5 63.5 31.5s41.333 -13.333 60 -40zM860 289.007c0 -57.333 14.5 -106.331 43.5 -146.998s64.167 -61 105.5 -61c40.667 0 75.5 20.333 104.5 61s43.5 89.667 43.5 147
c0 58 -14.333 107.333 -43 148c-28 39.333 -61.333 59.666 -100 60.999c-4 -10.667 -9 -20.334 -15 -29.001c-15.333 -21.333 -31.333 -32 -48 -32s-36 -10.167 -58 -30.5s-33 -59.5 -33 -117.5zM1004 615.009c73.333 0 134.833 -31.833 184.5 -95.5
s74.5 -140.5 74.5 -230.5s-24.833 -166.833 -74.5 -230.5s-109.5 -95.5 -179.5 -95.5c-70.667 0 -130.667 31.833 -180 95.5s-74 140.5 -74 230.5s15.667 163 47 219s57.5 94.5 78.5 115.5s42.167 31.5 63.5 31.5s41.333 -13.333 60 -40z" />
    <glyph glyph-name="ampersand" unicode="&#x26;" horiz-adv-x="1200" 
d="M921 772c0 -14 0.664062 -28.9951 1.99707 -44.9951c56 -26 101.667 -71 137 -135c29.333 -54 44 -112.333 44 -175c0 -32 -3.66699 -65 -11 -99c-22.667 -102 -70 -184 -142 -246s-161 -96.333 -267 -103c-12 -1.33301 -24 -2 -36 -2
c-95.333 0 -193.666 24.333 -294.999 73c-115.333 54.667 -193 148.334 -233 281.001c-16 51.333 -24 102 -24 152c0 77.333 19 152 57 224c48 92 113.333 176.667 196 254c-83.333 74 -125 166 -125 276l-1 1c0 109.333 40.667 201.333 122 276
c63.333 58 134.666 87 213.999 87c23.333 0 47.333 -2.33301 72 -7c109.333 -22 183.333 -72 222 -150c20.667 -42 31 -83.333 31 -124c0 -34.667 -7.66699 -68.667 -23 -102c-33.333 -73.333 -75.333 -113.666 -126 -120.999c-10.667 -1.33301 -21 -2 -31 -2
c-36.667 0 -68 10.667 -94 32c-32.667 26.667 -49 60 -49 100c-0.666992 0 -1 0.333008 -1 1c0 39.333 20.333 73.666 61 102.999c24.667 17.333 37 37.666 37 60.999c0 15.333 -5.33301 32.333 -16 51c-19.333 32 -47 48 -83 48c-15.333 0 -31.666 -2.66699 -48.999 -8
c-60.667 -18.667 -105 -56.334 -133 -113.001c-21.333 -42 -32 -87.333 -32 -136c0 -17.333 1.33301 -35 4 -53c8.66699 -64.667 29.334 -109.334 62.001 -134.001c27.333 -20.667 54.666 -31 81.999 -31c5.33301 0 10.666 0.333008 15.999 1c17.333 4 33.666 6 48.999 6
c32.667 0 59.334 -9 80.001 -27c17.333 -15.333 26 -33 26 -53c0 -14.667 -4.33301 -30.334 -13 -47.001c-19.333 -36 -48.666 -54 -87.999 -54c-5.33301 0 -10.666 0.333008 -15.999 1c-40.667 3.33301 -73 11.666 -97 24.999c-7.33301 4 -14.666 6 -21.999 6
c-19.333 0 -41.666 -12.667 -66.999 -38c-35.333 -35.333 -66.333 -84.333 -93 -147c-26.667 -60.667 -40 -121.334 -40 -182.001c0 -38.667 5.33301 -77.334 16 -116.001c27.333 -100 83.333 -174.667 168 -224c74 -43.333 150.333 -65 229 -65c10 0 20.667 0.333008 32 1
c89.333 6.66699 161.333 36.834 216 90.501s83.667 120.5 87 200.5v15c0 70.667 -22.667 117.667 -68 141c-2 0.666992 -3.66699 1.33398 -5 2.00098c-10 -31.333 -24 -61.333 -42 -90c-50 -78 -115.333 -124.333 -196 -139c-24.667 -4.66699 -48 -7 -70 -7
c-50 0 -93.333 12 -130 36c-53.333 34 -84.333 71.667 -93 113c-2 10.667 -3 21 -3 31c0 28 8.66699 53.333 26 76c23.333 30.667 56.666 46.667 99.999 48h3c41.333 0 74.666 -20.667 99.999 -62c17.333 -28.667 40.333 -43 69 -43c14 0 29.333 3.33301 46 10
c43.333 18 65 69.333 65 154c0 13.333 -0.333008 28 -1 44c-1.33301 16 -2 31.667 -2 47c0 91.333 21.333 170.333 64 237c50 78 115.333 124.667 196 140c24.667 4 48 6 70 6c50 0 93.667 -11.667 131 -35c52.667 -34.667 83.334 -72.334 92.001 -113.001
c2 -11.333 3 -22 3 -32c0 -28 -8.33301 -53 -25 -75c-24 -30.667 -57.333 -46.667 -100 -48h-5c-40.667 0 -73.667 20.667 -99 62c-17.333 28.667 -40.333 43 -69 43c-14 0 -29.333 -3.33301 -46 -10c-44 -18.667 -66 -73 -66 -163z" />
    <glyph glyph-name="quotesingle" unicode="'" horiz-adv-x="432" 
d="M282 1756c0 -44.667 -8.33203 -101.668 -24.999 -171.001c-12.667 -52 -19 -103 -19 -153c0 -18 0.666992 -35.667 2 -53c0.666992 -7.33301 1 -14 1 -20c0 -53.333 -22.333 -80 -67 -80h-1c-48.667 0.666992 -73 33.334 -73 98.001v31c0 62 -7 122.667 -21 182
c-16 66 -24 121.333 -24 166c0 44 11.167 78.5 33.5 103.5s49.166 37.5 80.499 37.5c30.667 0 57.167 -12.5 79.5 -37.5s33.5 -59.5 33.5 -103.5z" />
    <glyph glyph-name="parenleft" unicode="(" horiz-adv-x="757" 
d="M664 1289c25.333 -16.667 37.999 -37 37.999 -61c0 -8 -1.66699 -16.667 -5 -26c-12 -36.667 -49.667 -62.834 -113 -78.501s-128.166 -80.667 -194.499 -195s-113.5 -247.166 -141.5 -398.499c-14.667 -80.667 -22 -162 -22 -244c0 -72.667 5.66699 -146 17 -220
c24.667 -158 72.667 -276.333 144 -355c69.333 -77.333 124 -116 164 -116c1.33301 0 2.33301 0.333008 3 1h11c34.667 0 59.667 -7.33301 75 -22c16 -16.667 24 -36.667 24 -60s-11.333 -43 -34 -59c-12 -8.66699 -28.667 -13 -50 -13
c-19.333 0 -42.666 3.66699 -69.999 11c-57.333 14.667 -123.5 74.167 -198.5 178.5s-128.833 242.5 -161.5 414.5c-17.333 88 -26 178.667 -26 272c0 88 7.66699 178.333 23 271c31.333 189.333 87.666 342.5 168.999 459.5s151 191.833 209 224.5
c34.667 19.333 65 29 91 29c18 0 34 -4.33301 48 -13z" />
    <glyph glyph-name="parenright" unicode=")" horiz-adv-x="757" 
d="M232 -528c-34.667 -20 -64.9971 -29.999 -90.9971 -29.999c-18 0 -33.667 4.66699 -47 14c-26 16 -39 36 -39 60c0 8 1.66699 17 5 27c12 36 49.667 61.833 113 77.5s128.166 80.667 194.499 195s113.5 247.166 141.5 398.499c14.667 80.667 22 162 22 244
c0 72.667 -5.66699 146 -17 220c-24.667 158 -72.334 276.333 -143.001 355c-70 77.333 -125 116 -165 116h-3c-4 -0.666992 -7.66699 -1 -11 -1c-34.667 0 -59.334 7.66699 -74.001 23c-16.667 16 -25 35.667 -25 59s11.333 43 34 59c12 8.66699 28.667 13 50 13
c19.333 0 42.666 -3.66699 69.999 -11c57.333 -14.667 123.5 -74.167 198.5 -178.5s129.167 -242.5 162.5 -414.5c16.667 -88 25 -178.667 25 -272c0 -88 -7.66699 -178 -23 -270c-31.333 -190 -87.666 -343.5 -168.999 -460.5s-151 -191.5 -209 -223.5z" />
    <glyph glyph-name="asterisk" unicode="*" horiz-adv-x="900" 
d="M330 1259c-12.667 8 -28.334 14.0029 -47.001 18.0029c-28 5.33301 -55.667 8 -83 8h-5c-0.666992 -0.666992 -1.33398 -1 -2.00098 -1c-28 0 -54.333 7 -79 21c-26 13.333 -41.333 32.666 -46 57.999c-0.666992 4 -1 8.33301 -1 13c0 22 9 46.333 27 73
c21.333 32.667 51.666 49 90.999 49h1c40 -0.666992 76.5 -14.667 109.5 -42s56.167 -49 69.5 -65c10.667 -14 25 -27 43 -39c-3.33301 15.333 -8 29 -14 41c-10 18 -21 47.667 -33 89c-5.33301 18 -8 35.333 -8 52c0 22.667 4.66699 44.334 14 65.001
c15.333 36 42.333 57.667 81 65c12.667 2 24.667 3 36 3c22 0 40 -4.66699 54 -14c20.667 -14 32.334 -35.333 35.001 -64v-14c0 -24 -5 -47 -15 -69c-12 -26.667 -21 -55 -27 -85c-2.66699 -11.333 -4 -22.333 -4 -33c0 -7.33301 0.666992 -14.333 2 -21
c14.667 3.33301 29.667 10.666 45 21.999c24.667 17.333 46.834 36.5 66.501 57.5s43.5 36.167 71.5 45.5c10.667 3.33301 20.667 5 30 5c16 0 30.333 -4.33301 43 -13c21.333 -14 36.333 -40 45 -78c1.33301 -9.33301 2 -18 2 -26c0 -28 -10.333 -52.667 -31 -74
c-28 -28.667 -63.333 -45.334 -106 -50.001c-30.667 -4 -55.667 -6 -75 -6c-7.33301 0 -14 0.333008 -20 1c-3.33301 0.666992 -6.66602 1 -9.99902 1s-7 -0.333008 -11 -1c7.33301 -6 15 -11.333 23 -16c17.333 -11.333 41.166 -32 71.499 -62s47.833 -64.667 52.5 -104
v-15c0 -33.333 -13 -60.666 -39 -81.999c-28.667 -23.333 -54.667 -35 -78 -35h-6c-25.333 2 -46 15 -62 39s-25.333 50.5 -28 79.5s-8.33398 58.167 -17.001 87.5c-9.33301 29.333 -23.666 50.666 -42.999 63.999c-16.667 -12.667 -29.667 -31.667 -39 -57
c-11.333 -28.667 -19.333 -57.334 -24 -86.001s-15.834 -54.5 -33.501 -77.5s-39.167 -34.5 -64.5 -34.5c0 -0.666992 -0.333008 -1 -1 -1c-25.333 0 -52 13.667 -80 41c-23.333 22 -35 47.667 -35 77c0 7.33301 1 15 3 23c6.66699 38.667 26.334 72 59.001 100
s58.334 47 77.001 57c5.33301 2.66699 10.333 6 15 10z" />
    <glyph glyph-name="plus" unicode="+" horiz-adv-x="950" 
d="M548 459c49.333 1.33301 94 13.8359 134 37.5029s74.667 35.5 104 35.5s51 -8 65 -24c11.333 -13.333 17 -31 17 -53c0 -4.66699 -0.333008 -9.66699 -1 -15c-3.33301 -29.333 -23 -54 -59 -74c-24 -13.333 -72.333 -20 -145 -20c-36.667 0 -79.334 1.66699 -128.001 5
c-2 -20 -3 -38.667 -3 -56c0 -40 5.33301 -75.333 16 -106c14.667 -44.667 22 -79.334 22 -104.001c0 -25.333 -7.33301 -43.5 -22 -54.5s-34 -16.5 -58 -16.5c-24.667 0 -44.5 9.16699 -59.5 27.5s-24.167 51.5 -27.5 99.5c-0.666992 10 -1 21.333 -1 34
c0 44 4.66699 100.667 14 170c-16 1.33301 -31.333 2 -46 2c-43.333 0 -80 -4.33301 -110 -13c-41.333 -12 -76 -18 -104 -18s-47.333 7 -58 21s-16 32 -16 54c0 21.333 9.33301 39.666 28 54.999s51.334 26.333 98.001 33c11.333 2 24.333 3 39 3
c43.333 0 100.333 -7.66699 171 -23c0 84.667 -12.333 148 -37 190s-38.667 74.667 -42 98c-0.666992 3.33301 -1 6.33301 -1 9c0 19.333 8.33301 36.666 25 51.999c19.333 17.333 45.333 26 78 26c32 0 61.333 -19.667 88 -59c17.333 -26.667 26 -81 26 -163
c0 -43.333 -2.33301 -94.333 -7 -153z" />
    <glyph glyph-name="comma" unicode="," horiz-adv-x="449" 
d="M305 41l-28.998 -36.998c-6.66699 -5.33301 -13.334 -10.333 -20.001 -15c-20 -12.667 -40 -19 -60 -19c-14 0 -28 3.33301 -42 10c-33.333 15.333 -54 44 -62 86c-2 11.333 -3 23 -3 35c0 30.667 7.33301 62 22 94c20.667 44 49.667 76.667 87 98c21.333 12 42 18 62 18
c54.667 0 97.5 -20.833 128.5 -62.5s47.833 -106.834 50.5 -195.501v-16c0 -82 -19.667 -155 -59 -219c-42.667 -68 -79.667 -105.667 -111 -113c-15.333 -8.66699 -28.666 -13 -39.999 -13c-10 0 -18.333 3 -25 9c-4.66699 4 -8.33398 8.33301 -11.001 13
c-3.33301 6 -5 11.667 -5 17c0 15.333 11 29.666 33 42.999c29.333 18.667 52.166 45.667 68.499 81s25.5 72 27.5 110v16c0 28.667 -4 48.667 -12 60z" />
    <glyph glyph-name="hyphen" unicode="-" horiz-adv-x="827" 
d="M339 522c47.333 -5.33301 89 -8 125 -8c67.333 0 115 8.66699 143 26c19.333 12 38 18 56 18c20.667 0 40.334 -8.33301 59.001 -25c16.667 -16 25 -33.333 25 -52s-7.66699 -38 -23 -58c-20.667 -27.333 -62 -41 -124 -41c-34.667 0 -76 4.33301 -124 13
c-75.333 13.333 -138 20 -188 20c-38.667 0 -69.667 -4 -93 -12c-22.667 -8 -42.334 -12 -59.001 -12c-22.667 0 -39.667 7.33301 -51 22c-8.66699 10.667 -13 21.667 -13 33c0 16 7.66699 33 23 51c18 20.667 61.667 31 131 31c32 0 69.667 -2 113 -6z" />
    <glyph glyph-name="hyphen" unicode="&#xad;" horiz-adv-x="827" 
d="M339 522c47.333 -5.33301 89 -8 125 -8c67.333 0 115 8.66699 143 26c19.333 12 38 18 56 18c20.667 0 40.334 -8.33301 59.001 -25c16.667 -16 25 -33.333 25 -52s-7.66699 -38 -23 -58c-20.667 -27.333 -62 -41 -124 -41c-34.667 0 -76 4.33301 -124 13
c-75.333 13.333 -138 20 -188 20c-38.667 0 -69.667 -4 -93 -12c-22.667 -8 -42.334 -12 -59.001 -12c-22.667 0 -39.667 7.33301 -51 22c-8.66699 10.667 -13 21.667 -13 33c0 16 7.66699 33 23 51c18 20.667 61.667 31 131 31c32 0 69.667 -2 113 -6z" />
    <glyph glyph-name="period" unicode="." horiz-adv-x="449" 
d="M198 293c21.333 12 42 18 62 18c14 0 27.333 -3 40 -9c30.667 -14 50 -42 58 -84c2 -12 3 -23.667 3 -35c0 -30.667 -7.33301 -62 -22 -94c-21.333 -44.667 -49 -78 -83 -100c-20.667 -12.667 -40.667 -19 -60 -19c-14 0 -28 3.33301 -42 10
c-33.333 15.333 -54 44 -62 86c-2 11.333 -3 23 -3 35c0 30.667 7.33301 62 22 94c20.667 44 49.667 76.667 87 98z" />
    <glyph glyph-name="slash" unicode="/" horiz-adv-x="914" 
d="M268 31.5c-11.333 -69.667 -37 -116.828 -77 -141.495c-20.667 -13.333 -40 -20 -58 -20c-16.667 0 -32 5.66699 -46 17c-20 15.333 -30 35.666 -30 60.999c0 11.333 2 23.666 6 36.999c13.333 42 34.5 81.667 63.5 119s121 331.5 276 882.5s246.667 864.833 275 941.5
s62.5 127.667 102.5 153c20.667 12.667 40 19 58 19c16.667 0 32 -5.33301 46 -16c20 -16 30 -36.667 30 -62c0 -11.333 -2 -23.333 -6 -36c-13.333 -42.667 -43.5 -84.834 -90.5 -126.501s-147.5 -339.334 -301.5 -893.001s-236.667 -865.334 -248 -935.001z" />
    <glyph glyph-name="zero" unicode="0" horiz-adv-x="950" 
d="M218 726c-23.333 -37.333 -34.999 -98.668 -34.999 -184.001c0 -14 0.333008 -28.333 1 -43c4 -108.667 32.667 -204 86 -286s124.333 -123 213 -123h17c95.333 4.66699 166 50.667 212 138c40 76 60 163.667 60 263c0 14.667 -0.333008 30 -1 46
c-7.33301 118.667 -34.333 214 -81 286c-46 70 -110.333 105 -193 105h-5c-14 -33.333 -42.167 -54.833 -84.5 -64.5s-77.833 -24.167 -106.5 -43.5s-56.334 -50.666 -83.001 -93.999zM766.501 887.998c77.667 -102.667 119.168 -223.333 124.501 -362v-30
c0 -127.333 -30.333 -242.666 -91 -345.999c-65.333 -111.333 -163 -170.333 -293 -177c-7.33301 -0.666992 -15 -1 -23 -1c-121.333 0 -221.333 52 -300 156s-120.334 225.667 -125.001 365c-0.666992 13.333 -1 26.333 -1 39c0 121.333 22 222 66 302
c48 87.333 93 148.666 135 183.999s83 55 123 59h17c32 0 56.667 -8.66699 74 -26c118 -6 215.833 -60.333 293.5 -163z" />
    <glyph glyph-name="one" unicode="1" horiz-adv-x="950" 
d="M711 196c15.333 -41.333 23 -77.333 23 -108c0 -28.667 -6.33301 -53.334 -19 -74.001c-20.667 -32 -45.334 -48 -74.001 -48c-10 0 -20 2 -30 6c-42.667 14 -67 59.667 -73 137c-1.33301 18.667 -2 40 -2 64c0 74.667 7 174 21 298c16 148 24 262.333 24 343v25
c-26 -20.667 -63.667 -65.667 -113 -135c-64.667 -91.333 -121 -137 -169 -137c-3.33301 0 -6.66602 0.333008 -9.99902 1c-48.667 7.33301 -73 32 -73 74v5c2 45.333 24.667 72.833 68 82.5s98.333 47.667 165 114s108.667 113.833 126 142.5c14 24 35.333 36 64 36
c4.66699 0 9.66699 -0.333008 15 -1c30.667 -4 46 -20.667 46 -50c0 -5.33301 -0.333008 -10.666 -1 -15.999c-6 -39.333 -12.667 -156 -20 -350c-2 -40.667 -3 -78.667 -3 -114c0 -134.667 11.667 -233 35 -295z" />
    <glyph glyph-name="two" unicode="2" horiz-adv-x="950" 
d="M724 898c55.333 -64.667 82.999 -135.667 82.999 -213c0 -8.66699 -0.333008 -17 -1 -25c-6.66699 -87.333 -38.5 -161.833 -95.5 -223.5s-147.833 -119.167 -272.5 -172.5s-190.334 -100 -197.001 -140c17.333 18.667 57.333 28 120 28h19
c73.333 -2 137.333 -14 192 -36c22 -9.33301 41 -14 57 -14c24.667 0 43.334 9.66699 56.001 29c20.667 32.667 49.334 56.334 86.001 71.001c10.667 4 21.334 6 32.001 6c25.333 0 50 -12 74 -36c22.667 -22.667 34 -48.667 34 -78c0 -13.333 -2.33301 -27.666 -7 -42.999
c-16.667 -46.667 -45 -77.334 -85 -92.001c-26.667 -9.33301 -56.334 -14 -89.001 -14c-18 0 -37 1.33301 -57 4c-56.667 8 -106.334 24.333 -149.001 49c-39.333 22 -86.666 33 -141.999 33h-13c-61.333 -2 -103 -20.333 -125 -55c-14.667 -23.333 -33 -35 -55 -35
c-11.333 0 -24 3.33301 -38 10c-40 18 -62.667 50 -68 96c-0.666992 4 -1 8.33301 -1 13c0 44 20.5 88.833 61.5 134.5s136 107 285 184s234.167 158.833 255.5 245.5c5.33301 22 8 42.667 8 62c0 58 -23 106.333 -69 145c-56.667 47.333 -127 71 -211 71h-21
c-94 -4.66699 -155.667 -37.334 -185 -98.001c-14 -30 -21 -55.333 -21 -76c0 -22 8 -38.667 24 -50c14 -10 28.667 -15 44 -15c19.333 0 40 7.33301 62 22c20.667 14.667 41.334 22 62.001 22c19.333 0 38.333 -6 57 -18c28 -17.333 42 -42.333 42 -75
c0 -14 -2.33301 -29 -7 -45c-16.667 -55.333 -63.334 -87.333 -140.001 -96c-12 -2 -23.333 -3 -34 -3c-62.667 0 -118.334 21.333 -167.001 64c-58 50 -87.667 114.667 -89 194v3c0 78 40 147.667 120 209c70.667 54 154.334 81 251.001 81c15.333 0 31 -0.333008 47 -1
c116.667 -10 205.667 -50.667 267 -122z" />
    <glyph glyph-name="three" unicode="3" horiz-adv-x="950" 
d="M639 609c52 -17.333 97.999 -43.998 137.999 -79.998c63.333 -56.667 95 -128 95 -214c0 -10.667 -0.333008 -21 -1 -31c-8.66699 -100.667 -50.667 -183 -126 -247c-74 -64 -165.333 -96 -274 -96c-2 0 -3.66699 0.333008 -5 1c-111.333 0.666992 -200 32.167 -266 94.5
s-101 132.166 -105 209.499v17c0 68 22.667 113 68 135c22 10.667 42.667 16 62 16c22.667 0 43.334 -7.66699 62.001 -23c26 -21.333 39 -48.333 39 -81c0 -10 -1 -20 -3 -30c-2.66699 -12 -4 -24 -4 -36c0 -34.667 11 -69.667 33 -105
c27.333 -43.333 74.666 -65 141.999 -65h18c76.667 4 136 34 178 90c25.333 33.333 38 76.333 38 129c0 12 -0.666992 24.667 -2 38c-7.33301 70 -36.333 123 -87 159c-46.667 32 -96.667 48 -150 48h-15c-49.333 -2.66699 -90.666 -4 -123.999 -4h-18
c-36 0.666992 -67.333 9.66699 -94 27c-22 14 -33 33 -33 57c0 5.33301 0.666992 10.666 2 15.999c4 22.667 17.667 34 41 34c8.66699 0 19 -1.66699 31 -5c42 -12.667 117 -22.334 225 -29.001c39.333 16.667 74 38.334 104 65.001c54 48.667 84 93 90 133
c-16 -18 -50.333 -27 -103 -27c-3.33301 0 -6.33301 0.333008 -9 1c-58 0.666992 -106 8.83398 -144 24.501s-65.333 23.5 -82 23.5c-24 0 -42 -9.33301 -54 -28c-21.333 -51.333 -61.333 -77 -120 -77c-25.333 0 -50 12 -74 36c-22.667 22.667 -34 48.334 -34 77.001
c1.33301 68.667 32.333 113.667 93 135c26.667 9.33301 56.667 14 90 14c60.667 -0.666992 119.667 -15 177 -43c54.667 -27.333 104.334 -41 149.001 -41h6c46 1.33301 80.333 19.333 103 54c9.33301 14.667 24.666 22 45.999 22c12 0 25.667 -2 41 -6
c44 -12.667 67.333 -43.334 70 -92.001v-9c0 -46.667 -21.333 -96.334 -64 -149.001c-34 -42 -84 -88 -150 -138z" />
    <glyph glyph-name="four" unicode="4" horiz-adv-x="950" 
d="M740 132c6 -26.667 12.667 -53.0068 20 -79.0068c15.333 -55.333 23 -102.333 23 -141c0 -34 -5.66699 -61.667 -17 -83c-20 -35.333 -47.333 -53 -82 -53c-10.667 0 -22 2 -34 6c-51.333 14 -84 67.333 -98 160c-5.33301 34.667 -8 74.334 -8 119.001
c0 26 1 53.667 3 83c-66 -3.33301 -148.667 -12 -248 -26c-74 -10.667 -134.333 -16 -181 -16c-54.667 0 -90 7.33301 -106 22c-19.333 16.667 -29 34.334 -29 53.001c0 12 3.66699 24 11 36l6 8c8.66699 30.667 34.334 48.334 77.001 53.001
c51.333 4.66699 138.666 100.334 261.999 287.001c122.667 184.667 184 310.334 184 377.001v2c-0.666992 0.666992 -1 1.33398 -1 2.00098c0 57.333 29.667 86 89 86c7.33301 0 15.333 -0.333008 24 -1c64.667 -6.66699 97 -36 97 -88c0 -9.33301 -1 -18.666 -3 -27.999
c-12.667 -70 -22.334 -145.667 -29.001 -227c-2.66699 -35.333 -4 -74 -4 -116c0 -55.333 2.33301 -116.333 7 -183c3.33301 -45.333 8 -89.333 14 -132c6 0.666992 11.667 1 17 1c20.667 1.33301 40.334 2 59.001 2c85.333 0 137.666 -13 156.999 -39
c10.667 -15.333 16 -30 16 -44c0 -16 -6.66699 -31.333 -20 -46c-16.667 -18 -37.667 -27 -63 -27c-14.667 0 -31 3 -49 9c-27.333 9.33301 -58.666 17 -93.999 23zM556 245.993c2.66699 24.667 6.00098 50.666 10.001 77.999c23.333 162.667 36.333 333 39 511
c-74.667 -155.333 -169 -313.666 -283 -474.999c-32 -45.333 -61.667 -84.333 -89 -117c28.667 -1.33301 59 -2 91 -2c21.333 0 43.666 0.333008 66.999 1c53.333 0.666992 108.333 2 165 4z" />
    <glyph glyph-name="five" unicode="5" horiz-adv-x="950" 
d="M278 701c35.333 5.33301 69.9971 8.00391 103.997 8.00391c120 0 228.333 -28 325 -84s155 -141.333 175 -256v-10c-3.33301 -132.667 -46.666 -235.334 -129.999 -308.001c-82.667 -72.667 -178.667 -109 -288 -109c-2 0 -3.66699 0.333008 -5 1
c-111.333 0.666992 -200 32.167 -266 94.5s-101 132.166 -105 209.499v17c0 68 22.667 113 68 135c22 10.667 42.667 16 62 16c22.667 0 43.334 -7.66699 62.001 -23c26 -21.333 39 -48.333 39 -81c0 -10 -1 -20 -3 -30c-2.66699 -12 -4 -24 -4 -36
c0 -34.667 11 -69.667 33 -105c27.333 -43.333 74.666 -65 141.999 -65h18c76.667 4 140.334 38.333 191.001 103c37.333 46.667 56 101.667 56 165c0 23.333 -2.66699 48 -8 74c-38.667 81.333 -94.5 131.333 -167.5 150s-133.167 28 -180.5 28h-15
c-51.333 -3.33301 -78.333 -16.166 -81 -38.499s-21.334 -37.166 -56.001 -44.499c-15.333 -3.33301 -29 -5 -41 -5c-33.333 0 -57.333 11.667 -72 35c-9.33301 13.333 -14 27.666 -14 42.999c0 19.333 7.66699 39.666 23 60.999s23 42.666 23 63.999s-4 49.666 -12 84.999
c-18.667 43.333 -36.5 71 -53.5 83s-27.167 31 -30.5 57v6c0 23.333 18 43.333 54 60c14 6.66699 27 10 39 10c22.667 0 41.334 -11.333 56.001 -34c22 -34.667 63.333 -53 124 -55c5.33301 -0.666992 10.333 -1 15 -1c54.667 0 101.334 11.333 140.001 34
c42.667 24.667 92.334 41 149.001 49c19.333 2 38 3 56 3c33.333 0 63.333 -4.66699 90 -14c40.667 -14.667 69.334 -45.334 86.001 -92.001c4.66699 -15.333 7 -29.666 7 -42.999c0 -28.667 -11.333 -54.334 -34 -77.001c-24 -24 -48.667 -36 -74 -36
c-10.667 0 -21.334 2.33301 -32.001 7c-37.333 14 -66.333 37.333 -87 70c-12.667 18.667 -31 28 -55 28c-16.667 0 -36 -4.33301 -58 -13c-54 -22.667 -117.333 -35 -190 -37c-56.667 2.66699 -98 8.33398 -124 17.001c25.333 -21.333 41.666 -60 48.999 -116z" />
    <glyph glyph-name="six" unicode="6" horiz-adv-x="950" 
d="M682 119c32.667 34 49 75.334 49 124.001c0 7.33301 -0.333008 15 -1 23c-6 58 -43 109 -111 153c-41.333 26 -85.333 39 -132 39c-30.667 0 -62.667 -5.66699 -96 -17c-83.333 -29.333 -137.666 -93.333 -162.999 -192c9.33301 -42 41.666 -85.667 96.999 -131
c50.667 -42.667 109 -64 175 -64c5.33301 0 11 0.333008 17 1c72.667 3.33301 127.667 24.666 165 63.999zM92 327.001c-8.66699 51.333 -12.999 102.667 -12.999 154c0 78 10.333 155.667 31 233c34 126 80.833 227.333 140.5 304s121.5 128 185.5 154
c32 12.667 60.667 19 86 19c26 0 48.333 -6.33301 67 -19c26.667 -18 40 -40 40 -66c0 -11.333 -2.66699 -23.666 -8 -36.999c-16.667 -42.667 -56.167 -71.167 -118.5 -85.5s-124.166 -52.833 -185.499 -115.5s-103.666 -145.667 -126.999 -249
c-16.667 -70.667 -25 -136.334 -25 -197.001c0 -29.333 2 -57.333 6 -84c26.667 94 86.667 169.667 180 227c57.333 35.333 117 53 179 53c37.333 0 75.666 -6.66699 114.999 -20c103.333 -34.667 171.666 -98.667 204.999 -192c14 -40.667 21 -80.667 21 -120
c0 -52 -12.667 -103.667 -38 -155c-44 -89.333 -121.333 -145.333 -232 -168c-28.667 -6 -57 -9 -85 -9c-80.667 0 -159.334 25 -236.001 75c-103.333 66.667 -166 166 -188 298z" />
    <glyph glyph-name="seven" unicode="7" horiz-adv-x="950" 
d="M426 442.5c66.667 79 140.668 152.835 222.001 221.502s125.333 123.334 132 164.001c-16.667 -18.667 -56.334 -28 -119.001 -28h-19c-140.667 2 -238 14.333 -292 37c-22 8.66699 -41.333 13 -58 13c-24 0 -42 -9.33301 -54 -28c-21.333 -32.667 -50.333 -56 -87 -70
c-11.333 -4.66699 -22.333 -7 -33 -7c-25.333 0 -50 12 -74 36c-22.667 22.667 -34 48.334 -34 77.001c0 13.333 2.66699 27.666 8 42.999c16 46.667 44.333 77.334 85 92.001c26.667 9.33301 56.667 14 90 14c18 0 36.667 -1 56 -3c56.667 -8 106.334 -24.333 149.001 -49
c38.667 -22.667 118.667 -34 240 -34c4.66699 0 9.66699 0.333008 15 1c60.667 2 102.334 20.333 125.001 55c14 22.667 32.333 34 55 34c11.333 0 24 -3 38 -9c40 -18.667 62.667 -51 68 -97v-13c0 -43.333 -23.333 -97.333 -70 -162
c-51.333 -70.667 -109.833 -131.334 -175.5 -182.001s-125.5 -123.334 -179.5 -218.001s-85.833 -182 -95.5 -262l-23.5 -197c-6.66699 -63.333 -38.334 -95 -95.001 -95c-3.33301 0 -6.33301 0.333008 -9 1c-58.667 3.33301 -91.334 39.666 -98.001 108.999
c-1.33301 8.66699 -2 17.667 -2 27c0 65.333 21 146.666 63 243.999c48 111.333 105.333 206.5 172 285.5z" />
    <glyph glyph-name="eight" unicode="8" horiz-adv-x="950" 
d="M493 460c-116.667 -42 -189.333 -91 -218 -147c-12.667 -24.667 -19 -48.334 -19 -71.001c0 -31.333 11 -61.666 33 -90.999c38 -50 106.333 -75 205 -75h4c100 0 173.333 20.333 220 61c28 24 42 52.667 42 86c0 22.667 -6.33301 47.667 -19 75
c-31.333 66.667 -114 120.667 -248 162zM278.001 861c-25.333 -27.333 -37.999 -57.667 -37.999 -91c0 -20.667 4.66699 -42 14 -64c25.333 -58.667 103 -104 233 -136c138.667 56 213.667 111.667 225 167c2.66699 10 4 20 4 30c0 41.333 -19.667 75 -59 101
c-48.667 32 -115.334 48.667 -200.001 50h-5c-82 0 -140 -19 -174 -57zM620.002 522.999c129.333 -52.667 210.667 -122.997 244 -210.997c14.667 -40.667 22 -78.334 22 -113.001c0 -62 -23 -115.333 -69 -160c-73.333 -70.667 -181.333 -107 -324 -109
c-5.33301 -0.666992 -10 -1 -14 -1c-137.333 0 -240.333 39 -309 117c-48.667 54 -73 111.667 -73 173c0 30 6 60.333 18 91c27.333 75.333 103.333 143.666 228 204.999c-110 50.667 -183 107 -219 169c-40 66.667 -60 126.334 -60 179.001c0 9.33301 1 18.666 3 27.999
c8 57.333 23.667 98.666 47 123.999c16.667 19.333 38 29 64 29c7.33301 0 15.333 -0.666992 24 -2c36.667 -8 60 -26 70 -54c32 22.667 100 34 204 34c102.667 0 188.667 -22.333 258 -67c59.333 -38 89 -96 89 -174c0 -12 -0.666992 -24.667 -2 -38
c-8.66699 -78.667 -75.667 -152 -201 -220z" />
    <glyph glyph-name="nine" unicode="9" horiz-adv-x="950" 
d="M268 862c-32.667 -34 -49.002 -75.3359 -49.002 -124.003c0 -7.33301 0.666992 -14.666 2 -21.999c5.33301 -58.667 42.333 -109.667 111 -153c40.667 -26.667 84.334 -40 131.001 -40c30.667 0 62.667 6 96 18c83.333 28.667 137.666 92.334 162.999 191.001
c-9.33301 41.333 -41.333 85 -96 131c-51.333 42 -110.666 63 -177.999 63h-14c-73.333 -3.33301 -128.666 -24.666 -165.999 -63.999zM857.998 654.997c8.66699 -52 13 -103.665 13 -154.998c0 -78 -10.333 -155.333 -31 -232
c-34 -126.667 -80.833 -228.334 -140.5 -305.001s-121.5 -127.667 -185.5 -153c-32 -13.333 -60.667 -20 -86 -20s-47.666 6.66699 -66.999 20c-26.667 17.333 -40 39 -40 65c0 11.333 2.66699 23.666 8 36.999c16.667 42.667 56.167 71.167 118.5 85.5
s124.166 52.833 185.499 115.5s104 146 128 250c16 70 24 135.333 24 196c0 29.333 -2 57.333 -6 84c-26.667 -94 -86.334 -169.333 -179.001 -226c-58 -36 -118 -54 -180 -54c-37.333 0 -75.666 6.66699 -114.999 20c-103.333 34.667 -171.333 99 -204 193
c-14.667 40 -22 79.667 -22 119c0 52 12.667 103.667 38 155c44 89.333 121.667 145.666 233 168.999c28 5.33301 56 8 84 8c80.667 0 159.667 -24.667 237 -74c102.667 -67.333 165 -166.666 187 -297.999z" />
    <glyph glyph-name="colon" unicode=":" horiz-adv-x="449" 
d="M198 293c21.333 12 42 18 62 18c14 0 27.333 -3 40 -9c30.667 -14 50 -42 58 -84c2 -12 3 -23.667 3 -35c0 -30.667 -7.33301 -62 -22 -94c-21.333 -44.667 -49 -78 -83 -100c-20.667 -12.667 -40.667 -19 -60 -19c-14 0 -28 3.33301 -42 10
c-33.333 15.333 -54 44 -62 86c-2 11.333 -3 23 -3 35c0 30.667 7.33301 62 22 94c20.667 44 49.667 76.667 87 98zM198 845c21.333 12 42 18 62 18c14 0 27.333 -3 40 -9c30.667 -14 50 -42 58 -84c2 -12 3 -23.667 3 -35c0 -30.667 -7.33301 -62 -22 -94
c-21.333 -44.667 -49 -78 -83 -100c-20.667 -12.667 -40.667 -19 -60 -19c-14 0 -28 3.33301 -42 10c-33.333 15.333 -54 44 -62 86c-2 11.333 -3 23 -3 35c0 30.667 7.33301 62 22 94c20.667 44 49.667 76.667 87 98z" />
    <glyph glyph-name="semicolon" unicode=";" horiz-adv-x="527" 
d="M305 41l-28.998 -36.998c-6.66699 -5.33301 -13.334 -10.333 -20.001 -15c-20 -12.667 -40 -19 -60 -19c-14 0 -28 3.33301 -42 10c-33.333 15.333 -54 44 -62 86c-2 11.333 -3 23 -3 35c0 30.667 7.33301 62 22 94c20.667 44 49.667 76.667 87 98c21.333 12 42 18 62 18
c54.667 0 97.5 -20.833 128.5 -62.5s47.833 -106.834 50.5 -195.501v-16c0 -82 -19.667 -155 -59 -219c-42.667 -68 -79.667 -105.667 -111 -113c-15.333 -8.66699 -28.666 -13 -39.999 -13c-10 0 -18.333 3 -25 9c-4.66699 4 -8.33398 8.33301 -11.001 13
c-3.33301 6 -5 11.667 -5 17c0 15.333 11 29.666 33 42.999c29.333 18.667 52.166 45.667 68.499 81s25.5 72 27.5 110v16c0 28.667 -4 48.667 -12 60zM198.002 845.002c21.333 12 42 18 62 18c14 0 27.333 -3 40 -9c30.667 -14 50 -42 58 -84c2 -12 3 -23.667 3 -35
c0 -30.667 -7.33301 -62 -22 -94c-21.333 -44.667 -49 -78 -83 -100c-20.667 -12.667 -40.667 -19 -60 -19c-14 0 -28 3.33301 -42 10c-33.333 15.333 -54 44 -62 86c-2 11.333 -3 23 -3 35c0 30.667 7.33301 62 22 94c20.667 44 49.667 76.667 87 98z" />
    <glyph glyph-name="semicolon" unicode="&#x37e;" horiz-adv-x="527" 
d="M305 41l-28.998 -36.998c-6.66699 -5.33301 -13.334 -10.333 -20.001 -15c-20 -12.667 -40 -19 -60 -19c-14 0 -28 3.33301 -42 10c-33.333 15.333 -54 44 -62 86c-2 11.333 -3 23 -3 35c0 30.667 7.33301 62 22 94c20.667 44 49.667 76.667 87 98c21.333 12 42 18 62 18
c54.667 0 97.5 -20.833 128.5 -62.5s47.833 -106.834 50.5 -195.501v-16c0 -82 -19.667 -155 -59 -219c-42.667 -68 -79.667 -105.667 -111 -113c-15.333 -8.66699 -28.666 -13 -39.999 -13c-10 0 -18.333 3 -25 9c-4.66699 4 -8.33398 8.33301 -11.001 13
c-3.33301 6 -5 11.667 -5 17c0 15.333 11 29.666 33 42.999c29.333 18.667 52.166 45.667 68.499 81s25.5 72 27.5 110v16c0 28.667 -4 48.667 -12 60zM198.002 845.002c21.333 12 42 18 62 18c14 0 27.333 -3 40 -9c30.667 -14 50 -42 58 -84c2 -12 3 -23.667 3 -35
c0 -30.667 -7.33301 -62 -22 -94c-21.333 -44.667 -49 -78 -83 -100c-20.667 -12.667 -40.667 -19 -60 -19c-14 0 -28 3.33301 -42 10c-33.333 15.333 -54 44 -62 86c-2 11.333 -3 23 -3 35c0 30.667 7.33301 62 22 94c20.667 44 49.667 76.667 87 98z" />
    <glyph glyph-name="less" unicode="&#x3c;" horiz-adv-x="950" 
d="M180 576c188 72 315.668 140.672 383.001 206.005s113.666 121 138.999 167c19.333 36 46.333 54 81 54c5.33301 0 11.666 -0.666992 18.999 -2c43.333 -6.66699 70.333 -35.334 81 -86.001c0.666992 -4.66699 1 -9.33398 1 -14.001
c0 -49.333 -52.167 -114.333 -156.5 -195s-278.166 -161 -521.499 -241c243.333 -80 417.166 -160.333 521.499 -241s156.5 -145.667 156.5 -195c0 -4.66699 -0.333008 -9.33398 -1 -14.001c-10.667 -50.667 -37.667 -79.334 -81 -86.001
c-7.33301 -1.33301 -13.666 -2 -18.999 -2c-34.667 0 -61.667 18 -81 54c-25.333 46 -71.666 101.667 -138.999 167s-195.333 134 -384 206c-76 19.333 -114 55.666 -114 108.999v7c3.33301 56.667 41.666 92 114.999 106z" />
    <glyph glyph-name="equal" unicode="=" horiz-adv-x="950" 
d="M650 594c43.333 13.333 80 20.001 110 20.001c35.333 0 61.333 -9.33301 78 -28c18.667 -21.333 28 -43.333 28 -66c0 -14.667 -3.66699 -29.334 -11 -44.001c-15.333 -32.667 -47.333 -49 -96 -49c-10.667 0 -22.334 1 -35.001 3c-56.667 7.33301 -104 11 -142 11
c-8.66699 0 -16.667 -0.333008 -24 -1c-41.333 -2 -122.333 -7 -243 -15c-21.333 -2 -41 -3 -59 -3c-85.333 0 -137.666 16.333 -156.999 49c-10.667 18.667 -16 36.667 -16 54c0 20 7 39.333 21 58c16 22 36.667 33 62 33c15.333 0 32 -4 50 -12
c48 -20.667 108.667 -34.667 182 -42c15.333 -2 31 -3 47 -3c62 0 130.333 11.667 205 35zM665 293.001c39.333 13.333 72.667 20.001 100 20.001c32 0 56.333 -9 73 -27c18.667 -21.333 28 -43.333 28 -66c0 -14.667 -3.66699 -29.334 -11 -44.001
c-15.333 -32.667 -47.333 -49 -96 -49c-10.667 0 -22.334 1 -35.001 3c-56.667 7.33301 -104 11 -142 11c-8.66699 0 -16.667 -0.333008 -24 -1c-41.333 -2 -122.333 -7 -243 -15c-22.667 -2 -43.667 -3 -63 -3c-82.667 0 -132 14.667 -148 44
c-8.66699 15.333 -13 30.333 -13 45c0 20 7.66699 39 23 57c17.333 21.333 40.333 32 69 32c14 0 29 -2.66699 45 -8c50 -15.333 114 -26.333 192 -33c14.667 -1.33301 29.334 -2 44.001 -2c64.667 0 131.667 12 201 36z" />
    <glyph glyph-name="greater" unicode="&#x3e;" horiz-adv-x="950" 
d="M884 470l0.000976562 -7.00488c0 -53.333 -38 -89.666 -114 -108.999c-188.667 -72 -316.667 -140.667 -384 -206s-113.666 -121 -138.999 -167c-19.333 -36 -46.333 -54 -81 -54c-5.33301 0 -11.333 0.666992 -18 2c-44 6.66699 -71.333 35.334 -82 86.001
c-0.666992 4.66699 -1 9.33398 -1 14.001c0 49.333 52.167 114.333 156.5 195s278.5 161 522.5 241c-244 80 -418.167 160.333 -522.5 241s-156.5 145.667 -156.5 195c0 4.66699 0.333008 9.33398 1 14.001c10.667 50.667 38 79.334 82 86.001
c6.66699 1.33301 12.667 2 18 2c34.667 0 61.667 -18 81 -54c25.333 -46 71.666 -101.667 138.999 -167s195 -134 383 -206c73.333 -14 111.666 -49.333 114.999 -106z" />
    <glyph glyph-name="question" unicode="?" horiz-adv-x="1387" 
d="M896 89c-21.333 -44.667 -50.333 -77.333 -87 -98c-20.667 -12 -41 -18 -61 -18c-15.333 0 -30 3.66699 -44 11c-34 15.333 -53.667 43.333 -59 84c-1.33301 8 -2 16.333 -2 25c0 32.667 8.33301 66.667 25 102c20.667 44 49.667 76.667 87 98c22 12 43 18 63 18
c13.333 0 26 -2.66699 38 -8c31.333 -14.667 51 -43 59 -85c2 -11.333 3 -23 3 -35c0 -30.667 -7.33301 -62 -22 -94zM707 776.001c-0.666992 -2.66699 -1.00391 -5 -1.00391 -7c0 -33.333 7.66699 -50 23 -50c7.33301 0 16.666 4.33301 27.999 13
c35.333 26.667 81.333 41.667 138 45h7c51.333 0 78.666 -29 81.999 -87v-10c0 -56.667 -26.667 -105.334 -80 -146.001c-31.333 -24 -65.333 -36 -102 -36c-29.333 0 -60.333 7.66699 -93 23c-74 34 -111 104 -111 210v3c0.666992 108 110.334 229.333 329.001 364
c209.333 128 314 262.667 314 404c0 6 -0.333008 12.333 -1 19c-10 148 -61.667 258 -155 330c-84.667 64.667 -196.667 97 -336 97c-14 0 -28.333 -0.333008 -43 -1c-160 -7.33301 -278.333 -49.666 -355 -126.999c-72 -73.333 -108 -155.333 -108 -246
c0 -6 0.333008 -11.667 1 -17c4.66699 -98 27.334 -153.333 68.001 -166c10 -3.33301 19.667 -5 29 -5c25.333 0 44.666 14.333 57.999 43c16.667 38 46.334 64.333 89.001 79c13.333 4.66699 27.333 7 42 7c28.667 0 58 -10 88 -30c39.333 -26 59 -65.333 59 -118v-21
c-6 -63.333 -47 -113 -123 -149c-41.333 -20 -82.666 -30 -123.999 -30c-34.667 0 -69 7 -103 21c-75.333 30 -135 85.667 -179 167c-30 54 -45 114 -45 180c0 33.333 4 68.333 12 105c22 108 77.333 202.833 166 284.5s219.334 129.5 392.001 143.5
c22.667 2 45.334 3 68.001 3c146 0 280.333 -39 403 -117c141.333 -90 212 -233 212 -429v-1c-0.666992 -197.333 -108.667 -357.333 -324 -480s-323.666 -212 -324.999 -268z" />
    <glyph glyph-name="at" unicode="@" horiz-adv-x="1718" 
d="M1233 539c-16.667 50.667 -25.0029 120.999 -25.0029 210.999c0 46 1 98.333 3 157c-14 -12.667 -57.667 -28.334 -131 -47.001c-73.333 -18 -127.666 -45 -162.999 -81c-26.667 -28 -40 -61 -40 -99c0 -12.667 1.33301 -25.667 4 -39
c11.333 -55.333 42.333 -95.666 93 -120.999c35.333 -18 75.333 -27 120 -27c18.667 0 38.334 1.66699 59.001 5c28.667 4.66699 55.334 18.334 80.001 41.001zM1473 469.999c27.333 0.666992 49.002 17.8291 65.002 51.4961s25.667 73.167 29 118.5c5.33301 60 19 90 41 90
c8 0 15.667 -1.66699 23 -5c21.333 -11.333 32 -39 32 -83c0 -16.667 -2 -36.334 -6 -59.001c-13.333 -70.667 -36.333 -123.334 -69 -158.001c-39.333 -36 -80.333 -54 -123 -54h-1c-82 1.33301 -145 30 -189 86c-29.333 -31.333 -58 -55 -86 -71
c-43.333 -24.667 -97.666 -37 -162.999 -37h-10c-70.667 1.33301 -138.5 24 -203.5 68s-103.833 106.333 -116.5 187c-2.66699 16.667 -4 33 -4 49c0 60.667 18.667 116.334 56 167.001c47.333 63.333 131.666 107.333 252.999 132s192.666 62.334 213.999 113.001
c1.33301 18.667 2 37 2 55c0 121.333 -26.333 212.333 -79 273c-60 69.333 -146.667 110.333 -260 123c-16 1.33301 -32.333 2 -49 2c-96.667 0 -194 -31.667 -292 -95c-114.667 -74 -201.334 -183.667 -260.001 -329c-46 -114 -69 -232.333 -69 -355
c0 -34.667 2 -69.667 6 -105c16.667 -161.333 70.334 -302.666 161.001 -423.999s203.667 -210 339 -266c102 -43.333 196.667 -65 284 -65c28 0 55.333 2.33301 82 7c109.333 18 183.333 51.333 222 100s79.667 80.334 123 95.001c13.333 4 26.666 6 39.999 6
c28 0 55.333 -10.333 82 -31c23.333 -19.333 35 -45.333 35 -78c0 -20 -4.66699 -43 -14 -69c-24 -66.667 -120 -119.334 -288 -158.001c-60 -14 -121 -21 -183 -21c-112 0 -227.667 22.667 -347 68c-185.333 70 -334.333 180.333 -447 331s-178 313.334 -196 488.001
c-4.66699 38.667 -7 77.334 -7 116.001c0 133.333 25 263.333 75 390c63.333 162.667 167 291.667 311 387c117.333 77.333 237.333 116 360 116c27.333 0 55 -1.66699 83 -5c151.333 -21.333 263.5 -94.166 336.5 -218.499s110.5 -310.833 112.5 -559.5
s33.667 -373 95 -373z" />
    <glyph glyph-name="A" unicode="A" horiz-adv-x="2858" 
d="M1807 812c214 -48 414 -174.333 600 -379c-173.333 475.333 -260 947 -260 1415c-91.333 -100 -159.5 -246.333 -204.5 -439zM741 -728c203.333 1.33301 380.169 106.173 530.502 314.506s280.166 587.166 389.499 1136.5c-44.667 9.33301 -89.334 14 -134.001 14
c-46 0 -92 -5 -138 -15c-90 -20 -155.833 -67 -197.5 -141s-96.167 -111 -163.5 -111c-30.667 0 -56.5 11.167 -77.5 33.5s-31.5 49.5 -31.5 81.5c6.66699 82 55 146.167 145 192.5s203.667 72.166 341 77.499c37.333 1.33301 71.666 2 102.999 2c82.667 0 143 -5 181 -15
l136 568.5c40.667 171 96.834 323.5 168.501 457.5s152.5 201 242.5 201c24 0 47.333 -13.667 70 -41c10.667 -14 16 -28.333 16 -43c0 -14 -5.66699 -28.667 -17 -44c-20.667 -36.667 -33.667 -84 -39 -142c0 -43.333 12.167 -171.5 36.5 -384.5s89.333 -478 195 -795
s186.834 -504.833 243.5 -563.5c56.667 -58.667 107.667 -98.667 153 -120c42.667 -20 64 -49.667 64 -89c-3.33301 -48 -26.333 -78.667 -69 -92c-18.667 -6 -37.334 -9 -56 -9c-24.667 0 -49 5.33301 -73 16c-42.667 17.333 -77.834 45.666 -105.5 84.999
c-27.667 39.333 -108.834 175 -243.5 407c-134.667 232 -345 377.333 -631 436c-116 -584.667 -261.167 -989.334 -435.5 -1214s-383.833 -337 -628.5 -337c-163.333 7.33301 -301.666 59.666 -414.999 156.999c-119.333 102.667 -181.666 230 -186.999 382
c8 164 63.833 291.833 167.5 383.5s227.167 140.5 370.5 146.5c206 -2 350.667 -72.333 434 -211c34 -58.667 51 -118.667 51 -180c-0.666992 -108 -35.334 -188 -104.001 -240c-29.333 -16.667 -59 -25 -89 -25c-36.667 0 -68.167 13.167 -94.5 39.5
s-39.5 58.166 -39.5 95.499c0 57.333 26 98.333 78 123l2 2c26 26 39 57.667 39 95c0 34 -21.5 72.333 -64.5 115s-115.167 64 -216.5 64c-107.333 0 -198.833 -37.667 -274.5 -113s-113.5 -170 -113.5 -284c0 -118 43 -217 129 -297
c81.333 -76.667 198.666 -116.667 351.999 -120z" />
    <glyph glyph-name="B" unicode="B" horiz-adv-x="2180" 
d="M705 59c-9.33301 32.667 -14 61 -14 85c0 32 8 56.667 24 74c18.667 20.667 42.334 31 71.001 31c52 0 80.167 -32 84.5 -96s32.166 -131 83.499 -201c79.333 90.667 119 252.334 119 485.001c0 563.333 -145.333 985.666 -436 1267
c-248 -204.667 -372.333 -556.667 -373 -1056c0.666992 -526 163.667 -789 489 -789c32.667 0 62.667 4.33301 90 13c-70.667 48.667 -116.667 111 -138 187zM1466 901c142.667 138 214.002 298 214.002 480c0 148 -40.667 277.667 -122 389
c-93.333 126.667 -226 190 -398 190c-191.333 -9.33301 -342 -62.333 -452 -159c338 -337.333 508.667 -769.666 512 -1297c0 -296.667 -49.667 -507 -149 -631c49.333 -48 152.666 -72 309.999 -72c112 0 212 33.333 300 100c119.333 90.667 186.333 249.667 201 477
c0 143.333 -42.667 249.666 -128 318.999c-56.667 40.667 -106.334 61 -149.001 61c-30.667 0 -57.667 -10.333 -81 -31c-55.333 -50 -107.333 -75 -156 -75c-47.333 1.33301 -71 26.666 -71 75.999c0 48.667 33.667 96.334 101 143.001c20 13.333 42.667 23.333 68 30z
M548.002 1819c-32.667 23.333 -81.667 36.666 -147 39.999c-67.333 0 -110.666 -30 -129.999 -90c-20.667 -65.333 -56.667 -98 -108 -98c-66 0 -99 35.667 -99 107c0 42 20 83.333 60 124c49.333 50.667 127.666 76.334 234.999 77.001c90.667 0 180 -30.667 268 -92
c154.667 133.333 334 200 538 200c134 0 254 -36.667 360 -110c180.667 -123.333 271 -318.666 271 -585.999c0 -200 -54.333 -365 -163 -495c258.667 -48 388 -222 388 -522c0 -88 -18.333 -182.667 -55 -284c-118.667 -268.667 -328 -403 -628 -403
c-124 0 -244.667 28.333 -362 85c-72 -49.333 -163.667 -74 -275 -74c-389.333 5.33301 -584 335 -584 989c0 441.333 143.667 818.666 431 1132z" />
    <glyph glyph-name="C" unicode="C" horiz-adv-x="1806" 
d="M2371 1525c0 -129.333 -51.498 -236.332 -154.498 -320.999s-227.167 -127 -372.5 -127s-269.333 39 -372 117c-85.333 85.333 -128 176 -128 272c0 44.667 9.33301 86.334 28 125.001c36 82 95 125.333 177 130c42.667 0 77.667 -15 105 -45
c24.667 -28.667 37 -58 37 -88c0 -10 -1.33301 -20.333 -4 -31c-12 -40.667 -38.333 -75.334 -79 -104.001c-27.333 -19.333 -41 -46.333 -41 -81c10.667 -119.333 109 -179 295 -179c106 0 195.5 31 268.5 93s109.5 141.667 109.5 239c0 80 -21.333 150.333 -64 211
c-100.667 129.333 -292.334 203.666 -575.001 222.999c-434.667 0 -769.334 -119.167 -1004 -357.5s-352 -533.5 -352 -885.5c0 -211.333 51.667 -404 155 -578c128 -217.333 320.667 -365.666 578 -444.999c180 -56.667 348.333 -85 505 -85
c234.667 0 411.667 49.333 531 148c112 92 198 138 258 138c52 -0.666992 78 -27 78 -79c-6.66699 -60 -99.334 -131.5 -278 -214.5c-178.667 -83 -384 -124.5 -616 -124.5c-191.333 0 -386 35.667 -584 107c-273.333 98 -478.666 279.333 -615.999 544
c-98 188.667 -147 385 -147 589c0 394.667 137.167 720.167 411.5 976.5s632.166 384.5 1073.5 384.5c336.667 -18.667 568 -111 694 -277c55.333 -80.667 83 -172.334 83 -275.001z" />
    <glyph glyph-name="D" unicode="D" horiz-adv-x="2866" 
d="M863 -63c-96.667 74 -185 111 -265 111c-107.333 -4 -164.333 -48.333 -171 -133c2 -91.333 59.667 -137 173 -137c92 0 179.667 53 263 159zM1355 1216c387.333 1.33301 701.667 115.665 943 342.998c-270.667 248.667 -620.667 380.334 -1050 395.001
c-262 -10 -453 -86.667 -573 -230c-28 -40.667 -42 -82.667 -42 -126c18 -237.333 258.667 -364.666 722 -381.999zM2389 1445c-291.333 -246.667 -638.331 -370.67 -1041 -372.003c-281.333 6 -493 46.667 -635 122s-219.667 186.666 -233 333.999
c0 64.667 17.333 133 52 205c135.333 230 393.666 345 774.999 345c400 -2.66699 750.667 -136 1052 -400c25.333 59.333 38 109.333 38 150c-2 24.667 -3 43.334 -3 56.001c0 44 8.66699 80.333 26 109c21.333 35.333 51.666 53 90.999 53
c67.333 -2.66699 101 -40.667 101 -114c0 -99.333 -47.333 -224.333 -142 -375c154.667 -206.667 232 -486.667 232 -840c-35.333 -683.333 -380 -1038.33 -1034 -1065c-269.333 4.66699 -503.333 69 -702 193c-111.333 -132 -235.333 -198.333 -372 -199
c-84 0 -151.667 18.667 -203 56c-60.667 44 -91 108 -91 192c8 179.333 109 269.333 303 270c96 0 201.667 -45.333 317 -136c58 103.333 90.333 235.333 97 396c-2 138 -31.833 231.333 -89.5 280s-88.167 105 -91.5 169c4 64.667 38.667 100.334 104 107.001
c81.333 -1.33301 141 -57.666 179 -168.999c21.333 -67.333 32 -150 32 -248c-6.66699 -250.667 -52.667 -453.667 -138 -609c180 -111.333 399 -169 657 -173c568.667 26.667 869 335.334 901 926.001c0 320 -60.667 565.667 -182 737z" />
    <glyph glyph-name="E" unicode="E" horiz-adv-x="1413" 
d="M1092 1984c-243.333 -2 -450.501 -74.3291 -621.501 -216.996s-259.5 -329 -265.5 -559c0 -163.333 54 -305 162 -425c153.333 -159.333 321 -242 503 -248c57.333 0 97.666 13 120.999 39c35.333 39.333 71.333 59 108 59c46 -3.33301 72.333 -30.333 79 -81
c0 -44 -18 -76 -54 -96c-46 -27.333 -109.667 -43.333 -191 -48c-58 -14.667 -116.667 -51.334 -176 -110.001c-75.333 -74 -113 -150 -113 -228c6 -160.667 103.333 -252.334 292 -275.001c86 0 152.333 17.333 199 52s85 62 115 82c20 12.667 43.667 19 71 19
c62 -0.666992 93 -30 93 -88c0 -60.667 -43.333 -110.5 -130 -149.5s-181.334 -58.5 -284.001 -58.5c-182 2.66699 -323.333 62.667 -424 180c-53.333 73.333 -80 151.666 -80 234.999c9.33301 146.667 80.333 264.334 213 353.001
c-203.333 44.667 -361.666 142 -474.999 292c-120 158.667 -180 335 -180 529c2.66699 223.333 95.334 421.166 278.001 593.499s429.334 265.166 740.001 278.499c212 0 389 -31.5 531 -94.5s242.333 -141.167 301 -234.5c51.333 -82.667 77 -169 77 -259
c-2.66699 -144 -49.167 -258.833 -139.5 -344.5s-220.5 -128.834 -390.5 -129.501c-328 13.333 -494.667 145 -500 395c8 178.667 76.333 270.334 205 275.001c42.667 0 77.667 -15 105 -45c24.667 -28.667 37 -58 37 -88c0 -54.667 -27.667 -99.667 -83 -135
c-27.333 -19.333 -41 -46.333 -41 -81c0 -17.333 3.66699 -37 11 -59c48 -84 145 -126.667 291 -128c94.667 0 178.667 29.5 252 88.5s112.333 140.167 117 243.5c0 76 -27 148.333 -81 217c-66 83.333 -155.5 145.333 -268.5 186s-247.5 62 -403.5 64z" />
    <glyph glyph-name="F" unicode="F" horiz-adv-x="1531" 
d="M1060 1530c64 0 160.667 -1 290 -3c290.667 0 488.667 32.833 594 98.5s158 135.5 158 209.5c-6 118.667 -104 178 -294 178c-233.333 -24 -422 -101 -566 -231c-82 -81.333 -142.667 -165.333 -182 -252zM1005 940c65.333 0 119.332 12.3311 161.999 36.998
c36 21.333 67.333 32 94 32c52.667 0 81 -29.333 85 -88c-4.66699 -82 -65.667 -123 -183 -123c-37.333 0 -81 3.66699 -131 11c8.66699 -39.333 19 -81 31 -125c46 -172.667 69 -320 69 -442c-2 -173.333 -44.167 -308.666 -126.5 -405.999
s-181.5 -155.666 -297.5 -174.999c-43.333 -7.33301 -84.666 -11 -123.999 -11c-67.333 0 -136.333 10.333 -207 31c-141.333 53.333 -215.333 132.333 -222 237c6 66 40.333 99.333 103 100c50.667 -6 99.334 -42.333 146.001 -109s123 -102.667 229 -108
c80 0 154 24 222 72c94 70 143 191 147 363c0 116.667 -25 256 -75 418c-20 65.333 -36.333 126.666 -49 183.999c-70.667 12.667 -129 19 -175 19c-58.667 0 -97.334 -10.333 -116.001 -31c-26 -28.667 -52.667 -43 -80 -43c-48 0 -75.333 25.333 -82 76
c4.66699 80 74 122.667 208 128c77.333 0 151.333 -8.33301 222 -25c-6 46 -9 89 -9 129c0 74.667 10.333 177.667 31 309c-194.667 -2.66699 -336 -11.667 -424 -27c-171.333 -25.333 -258 -77 -260 -155c6.66699 -42 40.334 -64.333 101.001 -67c28.667 0 48 13 58 39
c20.667 50 56 76.333 106 79c54 -4 84.333 -30.333 91 -79c-2.66699 -98.667 -74.334 -152.667 -215.001 -162c-156.667 0 -238.667 66.667 -246 200c2 148.667 114.333 241 337 277c102 14.667 264.667 23 488 25c48 138.667 135.667 265.334 263 380.001
c178 148.667 390.333 227.667 637 237c276.667 0 425 -101.333 445 -304c0 -138 -72.667 -246.833 -218 -326.5s-357.666 -119.5 -636.999 -119.5c-164.667 2.66699 -291.334 4 -380.001 4c-24.667 -120 -37 -211 -37 -273c0 -92 6.33301 -154.667 19 -188z" />
    <glyph glyph-name="G" unicode="G" horiz-adv-x="2208" 
d="M1038 -428c-62.667 -56.667 -94.001 -119.332 -94.001 -187.999c2.66699 -96.667 70 -178.334 202 -245.001c55.333 -20.667 113 -31 173 -31c220.667 1.33301 370.334 98.333 449.001 291c26.667 79.333 40 165.333 40 258c0 62.667 -6 128 -18 196
c-132.667 -52 -271.667 -94.333 -417 -127s-257 -84 -335 -154zM960.999 -132.998c-578 14.667 -867.002 385.668 -867.002 1113c0.666992 312 90.834 569.333 270.501 772s401.834 309.667 666.501 321c180.667 0 325 -34 433 -102
c189.333 -117.333 284.333 -290.333 285 -519c-3.33301 -119.333 -43.833 -219.166 -121.5 -299.499s-180.5 -123.5 -308.5 -129.5c-61.333 0 -119.666 11.667 -174.999 35c-126 60 -189 160.333 -189 301c9.33301 154 71.666 235.667 186.999 245
c41.333 0 75.333 -13.333 102 -40c24.667 -25.333 37 -55 37 -89c-4.66699 -54 -31.334 -101.333 -80.001 -142c-32.667 -22 -49 -48 -49 -78c7.33301 -64.667 72 -98.334 194 -101.001c73.333 0 133 21.333 179 64c53.333 48.667 84.333 131.667 93 249
c-2 176.667 -83 314.667 -243 414c-83.333 46.667 -198 70 -344 70c-214.667 -8 -400.5 -98.833 -557.5 -272.5s-236.833 -410.167 -239.5 -709.5c0 -629.333 245.667 -952 737 -968c388 7.33301 634 223.333 738 648c-2 23.333 -3 45 -3 65c0 128 40.667 192 122 192
c37.333 0 56 -28.667 56 -86c0 -26.667 -4 -59.334 -12 -98.001c-10 -48.667 -15 -106.334 -15 -173.001c0 -116 19.333 -281.667 58 -497c84 39.333 149 91.333 195 156c52 72 79.667 142.667 83 212s18.666 104.333 46 105c34 0 51 -28.667 51 -86
c-7.33301 -98 -35 -191.667 -83 -281c-47.333 -89.333 -137.666 -170.666 -271 -243.999c6.66699 -66 10 -128.667 10 -188c0 -144.667 -19.667 -270.667 -59 -378c-98 -244.667 -290.333 -367.667 -577 -369c-78.667 0 -155.667 14.667 -231 44
c-178 78 -268.333 196.333 -271 355c0 96 37.667 180.667 113 254c94.667 92 241.834 166.333 441.501 223s346.5 104.334 440.5 143.001c-26 146 -46.333 270 -61 372c-184.667 -332.667 -445 -500.334 -781 -503.001z" />
    <glyph glyph-name="H" unicode="H" horiz-adv-x="2341" 
d="M1121 609c-211.333 -57.333 -390.999 -132.501 -538.999 -225.501s-224 -206.5 -228 -340.5c0 -163.333 92 -248.666 276 -255.999c156 2 284.333 112.333 385 331c51.333 130 86.666 293.667 105.999 491zM1793 1026c210.667 144 322.001 345.333 334.001 604
c-2.66699 201.333 -55.334 302 -158.001 302c-108 -0.666992 -172.667 -214.667 -194 -642c0 -88.667 6 -176.667 18 -264zM168.002 1210c-63.333 80 -95.0029 174.668 -95.0029 284.001c3.33301 173.333 70 320.666 200 441.999c90 76.667 196.333 115 319 115
c197.333 -5.33301 361.833 -103.333 493.5 -294s198.5 -472.667 200.5 -846c0 -34.667 -0.666992 -70.667 -2 -108c108.667 40.667 236.667 92.334 384 155.001c-11.333 104.667 -17 216.667 -17 336c0 508 112 769.667 336 785c174.667 0 262.667 -150.333 264 -451
c-7.33301 -293.333 -154 -531.333 -440 -714c80.667 -378.667 161.834 -626.5 243.501 -743.5s146.5 -186.833 194.5 -209.5c44 -21.333 66 -59 66 -113c-5.33301 -73.333 -42.666 -110.333 -112 -111c-68.667 0 -152.334 79 -251 237
c-97.333 154.667 -187 444.667 -269 870c-147.333 -74.667 -282 -135 -404 -181c-21.333 -326.667 -89.666 -578.667 -204.999 -756s-276 -266 -482 -266c-227.333 20 -353.666 142 -378.999 366c0 41.333 6.66699 83.666 20 126.999c37.333 122 119 229 245 321
s343.667 189.333 653 292c3.33301 59.333 5 116 5 170c-6 315.333 -62.667 559.333 -170 732s-231.666 260.667 -372.999 264c-198.667 -6 -318.334 -118.667 -359.001 -338c0 -69.333 27 -120 81 -152c30 -17.333 63.333 -26 100 -26c53.333 10.667 106.333 16 159 16
c50.667 0 93.667 -17.667 129 -53s53 -78 53 -128c0 -50.667 -24.333 -93.667 -73 -129c-44.667 -32 -114 -48 -208 -48c-126 10 -228.333 61.667 -307 155z" />
    <glyph glyph-name="I" unicode="I" horiz-adv-x="1361" 
d="M949 1838c-64 -34 -182.837 -92.834 -356.504 -176.501s-292.167 -188.167 -355.5 -313.5c-28 -56 -42 -123 -42 -201c2 -109.333 53 -194.333 153 -255c45.333 -21.333 89 -32 131 -32c123.333 2.66699 186 45 188 127c0 30.667 -15.333 51.667 -46 63
c-57.333 33.333 -89 79.666 -95 138.999c0 25.333 8 50 24 74c27.333 40 71.666 61 132.999 63c62 0 112.667 -32.333 152 -97c26 -44.667 39 -92 39 -142c-6 -116.667 -56.333 -209.334 -151 -278.001c-65.333 -48.667 -148 -73 -248 -73
c-102.667 2.66699 -194.5 40.834 -275.5 114.501s-124.5 174.834 -130.5 303.501c0 97.333 21.333 182 64 254c74.667 131.333 227.834 255.5 459.501 372.5s359.5 191.833 383.5 224.5c26.667 36.667 54 55 82 55c10.667 0 21 -2.33301 31 -7
c14.667 7.33301 29.334 11 44.001 11c46.667 -2.66699 71.667 -27.334 75 -74.001c0 -34 -22 -74.333 -66 -121c-67.333 -69.333 -101.666 -175.333 -102.999 -318c0 -186 18.167 -384 54.5 -594s54.5 -422 54.5 -636c-5.33301 -248.667 -59.666 -422.667 -162.999 -522
s-234.333 -149 -393 -149c-163.333 0.666992 -291 54 -383 160c-30.667 34 -46 73.333 -46 118c12.667 59.333 47 89.333 103 90c21.333 0 41.666 -6.33301 60.999 -19c30 -20 65 -56.667 105 -110s108 -82.666 204 -87.999c114.667 0 206.334 45.667 275.001 137
s105.334 240.333 110.001 447c0 136 -17.667 320.167 -53 552.5s-53 442.833 -53 631.5c0.666992 110.667 12 200.334 34 269.001z" />
    <glyph glyph-name="J" unicode="J" horiz-adv-x="1768" 
d="M598 -428c-62.667 -56.667 -94.001 -119.332 -94.001 -187.999c2.66699 -96.667 70 -178.334 202 -245.001c55.333 -20.667 113 -31 173 -31c220.667 1.33301 370.334 98.333 449.001 291c26.667 79.333 40 165.333 40 258c0 62.667 -6 128 -18 196
c-132.667 -52 -271.667 -94.333 -417 -127s-257 -84 -335 -154zM1473 55.002c93.333 48.667 159 99.667 197 153c52 72 79.667 142.667 83 212s18.666 104.333 45.999 105c34 0 51 -28.667 51 -86c-7.33301 -98 -35 -191.667 -83 -281
c-47.333 -89.333 -137.666 -170.666 -270.999 -243.999c6.66699 -66 10 -128.667 10 -188c0 -144.667 -19.667 -270.667 -59 -378c-98 -244.667 -290.333 -367.667 -577 -369c-78.667 0 -155.667 14.667 -231 44c-178 78 -268.333 196.333 -271 355
c0 96 37.667 180.667 113 254c94.667 92 242 166.333 442 223c167.333 47.333 309 95 425 143c-46.667 317.333 -102.334 636 -167.001 956c-32 156.667 -48 299.667 -48 429c0 136.667 18 257.667 54 363c-166.667 -175.333 -374.334 -354.5 -623.001 -537.5
s-373.667 -397.167 -375 -642.5c10 -98 35.333 -175 76 -231c86 -120 212 -182.333 378 -187c129.333 2 224.333 53 285 153c21.333 45.333 32 89 32 131c-2.66699 123.333 -45 186 -127 188c-30.667 0 -51.667 -15.333 -63 -46c-33.333 -57.333 -79.666 -89 -138.999 -95
c-25.333 0 -50 8 -74 24c-40 27.333 -61 71.666 -63 132.999c0 62 32.333 112.667 97 152c44.667 26 92 39 142 39c116.667 -6 209.334 -56.333 278.001 -151c48.667 -65.333 73 -148 73 -248c-2.66699 -109.333 -40.834 -202.833 -114.501 -280.5
s-178.167 -119.5 -313.5 -125.5c-190.667 2 -347.667 72 -471 210c-74 96.667 -115 214.334 -123 353.001c1.33301 273.333 168 532.5 500 777.5s547.333 455.833 646 632.5c26.667 36.667 54.334 55 83.001 55c24 0 40.333 -6 49 -18c14.667 8 29.667 12 45 12
c40.667 -2.66699 66 -27.334 76 -74.001c0 -34 -22 -74.333 -66 -121c-74 -96 -111.667 -266.667 -113 -512c0 -172.667 20.333 -364 61 -574c46 -238.667 89.333 -474.667 130 -708z" />
    <glyph glyph-name="K" unicode="K" horiz-adv-x="2435" 
d="M1121 609c-211.333 -57.333 -390.999 -132.501 -538.999 -225.501s-224 -206.5 -228 -340.5c0 -163.333 92 -248.666 276 -255.999c156 2 284.333 112.333 385 331c51.333 130 86.666 293.667 105.999 491zM1286 902.999c76.667 16 135.998 24.3369 177.998 25.0039
c161.333 145.333 285.666 326.333 372.999 543c134.667 386.667 305.334 590 512.001 610c72 0 109.333 -31.333 112 -94c0 -16 -5.33301 -32 -16 -48c-29.333 -44 -93.333 -67.833 -192 -71.5s-210 -175.5 -334 -515.5c-68.667 -187.333 -163.667 -339 -285 -455
c116 -39.333 202.333 -107.333 259 -204c58.667 -101.333 125.334 -274.5 200.001 -519.5s207 -370.167 397 -375.5c65.333 0 110.666 23.167 136 69.5c25.333 46.333 59.333 69.5 102 69.5c46 -6.66699 69.333 -32.334 70 -77.001c0 -23.333 -10 -49.666 -30 -78.999
c-57.333 -72.667 -140 -109.334 -248 -110.001c-277.333 4 -463.5 151.667 -558.5 443s-188.5 482.333 -280.5 573c-59.333 58 -111 87 -155 87c-92.667 -52 -175 -90.333 -247 -115c-22 -324.667 -90.333 -575.334 -205 -752.001c-115.333 -177.333 -276 -266 -482 -266
c-227.333 20 -353.666 142 -378.999 366c0 41.333 6.66699 83.666 20 126.999c37.333 122 119 229 245 321s343.667 189.333 653 292c3.33301 59.333 5 116 5 170c-6 315.333 -62.667 559.333 -170 732s-231.666 260.667 -372.999 264
c-198.667 -6 -318.334 -118.667 -359.001 -338c0 -69.333 27 -120 81 -152c30 -17.333 63.333 -26 100 -26c53.333 10.667 106.333 16 159 16c50.667 0 93.667 -17.667 129 -53s53 -78 53 -128c0 -50.667 -24.333 -93.667 -73 -129c-44.667 -32 -114 -48 -208 -48
c-126 10 -228.333 61.667 -307 155c-63.333 80 -95 174.667 -95 284c3.33301 173.333 70 320.666 200 441.999c90 76.667 196.333 115 319 115c197.333 -5.33301 361.833 -103.333 493.5 -294s198.5 -472.667 200.5 -846v-8z" />
    <glyph glyph-name="L" unicode="L" horiz-adv-x="1345" 
d="M579 172c-226 -33.333 -339.333 -106.333 -340 -219c5.33301 -77.333 45.333 -119.333 120 -126c128 0 201.333 115 220 345zM652 1095c85.333 -18.667 171.666 -27.999 258.999 -27.999c124 0 256.333 19 397 57c336 124 509.667 294.333 521 511
c-6 214 -156 327.667 -450 341c-351.333 -4.66699 -578.666 -181.667 -681.999 -531c-24 -100.667 -39 -217.334 -45 -350.001zM2105 -998.999c164 2 287.335 62.001 370.002 180.001c43.333 74 65 150.333 65 229c-0.666992 84 -26.167 160 -76.5 228
s-126.833 103.667 -229.5 107c-98 0 -149.667 -39.667 -155 -119c0 -26 12.667 -48 38 -66c40.667 -29.333 62.334 -61 65 -95c0 -36.667 -11.333 -66.334 -34 -89.001c-19.333 -20 -51.333 -30 -96 -30c-118 10 -177 79 -177 207c8.66699 119.333 63.667 211.333 165 276
c54 29.333 112.667 44 176 44c127.333 -3.33301 233.666 -46 319 -128c85.333 -82 128.666 -191.333 129.999 -328c0 -94 -24.333 -187.333 -73 -280c-101.333 -158.667 -261 -240.667 -479 -246c-224 0 -407.167 93.833 -549.5 281.5s-280.5 394.5 -414.5 620.5
s-278.333 347.333 -433 364c-22.667 -312 -143 -469.667 -361 -473c-152.667 13.333 -234.334 96.333 -245.001 249c2.66699 201.333 159.334 319.666 470.001 354.999c-38 302.667 -57.667 546.667 -59 732c-125.333 42 -217.333 89.667 -276 143
c-77.333 69.333 -116 130 -116 182c0 72 34.333 110 103 114c20 0 40.333 -5.33301 61 -16c37.333 -19.333 67.333 -71 90 -155c16.667 -63.333 63.334 -115 140.001 -155c5.33301 126 20.666 238 45.999 336c110 418.667 382.667 633.334 818 644.001
c377.333 -9.33301 573.666 -156.666 588.999 -441.999c-12.667 -348.667 -269 -582 -769 -700c-110 -20.667 -209.333 -31 -298 -31c-91.333 0 -178 11 -260 33c0 -168 21 -398.667 63 -692c203.333 -20.667 378.833 -149.834 526.5 -387.501s283.5 -445.667 407.5 -624
s277 -267.833 459 -268.5z" />
    <glyph glyph-name="M" unicode="M" horiz-adv-x="3101" 
d="M866 1694c-244.667 -322 -367 -717.999 -367 -1188c10 -424.667 151.333 -650.334 424 -677.001c252.667 0 379 222.667 379 668c-32.667 516.667 -178 915.667 -436 1197zM1270 2062c218 -2.66699 389.329 -128.996 513.996 -378.996
c91.333 243.333 245 365.666 461 366.999c163.333 0 295.333 -90.667 396 -272c86.667 -156.667 130 -387.334 130 -692.001c0 -72 -2.33301 -148 -7 -228c-6.66699 -108 -10 -207 -10 -297c0 -258.667 27.333 -441 82 -547c72.667 -144 164 -216 274 -216
c60 3.33301 102.667 27.333 128 72s59.333 67 102 67c46 -3.33301 69.333 -29 70 -77c0 -23.333 -10 -49.666 -30 -78.999c-57.333 -72.667 -141 -109.334 -251 -110.001c-176.667 8.66699 -309 96.667 -397 264c-66.667 125.333 -100 314.666 -100 567.999
c0 82 3.66699 171 11 267c8 106 12 204.667 12 296c0 244.667 -28 437 -84 577c-76.667 191.333 -191 287 -343 287c-175.333 -2 -297.666 -146.333 -366.999 -433c-15.333 -79.333 -23 -149 -23 -209c12.667 -122.667 30.334 -209.334 53.001 -260.001
c11.333 -26.667 17 -59.334 17 -98.001c-2 -72 -38.667 -108 -110 -108s-109.333 77.333 -114 232c0 49.333 3.66699 140.666 11 273.999c0 135.333 -21.667 256 -65 362c-87.333 157.333 -214.333 237.333 -381 240c-116 0 -221 -45.333 -315 -136
c326.667 -357.333 491.667 -790.666 495 -1300c0 -530.667 -166.333 -796 -499 -796c-369.333 5.33301 -563.666 287.333 -582.999 846c0 419.333 144 828.333 432 1227c-53.333 36 -106 55.333 -158 58c-67.333 0 -110.666 -30 -129.999 -90
c-20.667 -65.333 -56.667 -98 -108 -98c-66 0 -99 35.667 -99 107c0 42 20 83.333 60 124c49.333 50.667 127.666 76.334 234.999 77.001c89.333 0 177 -29.667 263 -89c142.667 134.667 285.334 202 428.001 202z" />
    <glyph glyph-name="N" unicode="N" horiz-adv-x="2726" 
d="M686 -728c164 1.33301 312.999 66.3379 446.999 195.005c194 230.667 298.667 593 314 1087c-4.66699 354 -29.167 615.667 -73.5 785s-89.5 283.333 -135.5 342c-20 25.333 -30 48.333 -30 69c6.66699 52.667 44.334 81 113.001 85c32.667 0 62 -16 88 -48
c35.333 -43.333 110.5 -174.833 225.5 -394.5s359.5 -620.5 733.5 -1202.5c-64 277.333 -96 520.666 -96 729.999c3.33301 389.333 107.666 691.333 313 906c203.333 212.667 456.666 319 760 319c139.333 -2.66699 253.666 -22.334 343 -59.001
c117.333 -48.667 201.666 -120.334 253 -215.001c45.333 -84 68 -172 68 -264c-1.33301 -118 -43 -221.333 -125 -310s-180 -134.667 -294 -138c-83.333 0 -152 15 -206 45c-108 57.333 -163 145.666 -165 264.999c2 116.667 50.333 186.667 145 210
c13.333 2.66699 26 4 38 4c30.667 0 57.334 -8.66699 80 -26c29.333 -23.333 44 -54.666 44 -93.999c-2.66699 -38 -24.334 -71.333 -65 -100c-25.333 -18.667 -38 -41 -38 -67c0 -15.333 4.66699 -32 14 -50c22.667 -46 69.667 -69 141 -69
c89.333 3.33301 162.5 35.666 219.5 96.999s85.833 141.333 86.5 240c0 76.667 -20 147.667 -60 213c-46 74 -119.667 130.333 -221 169c-70.667 26 -156.667 40.333 -258 43c-286 -11.333 -513 -112.333 -681 -303c-170.667 -192.667 -260.667 -480.667 -270 -864
c0 -157.333 17.667 -326 53 -506s84.333 -317.333 147 -412c42.667 -54 64 -98 64 -132c-6.66699 -46 -40.667 -72.333 -102 -79c-32.667 0 -62 16 -88 48c-32 38.667 -101.5 138.834 -208.5 300.501s-356.833 578.167 -749.5 1249.5c55.333 -222 83 -496.333 83 -823
c-28.667 -544 -159.334 -934 -392.001 -1170c-161.333 -139.333 -341 -209 -539 -209c-163.333 7.33301 -301.666 59.666 -414.999 156.999c-119.333 102.667 -181.666 230 -186.999 382c8 164 63.833 291.833 167.5 383.5s227.167 140.5 370.5 146.5
c206 -2 350.667 -72.333 434 -211c34 -58.667 51 -118.667 51 -180c-0.666992 -108 -35.334 -188 -104.001 -240c-29.333 -16.667 -59 -25 -89 -25c-36.667 0 -68.167 13.167 -94.5 39.5s-39.5 58.166 -39.5 95.499c0 57.333 26 98.333 78 123l2 2c26 26 39 57.667 39 95
c0 34 -21.5 72.333 -64.5 115s-115.167 64 -216.5 64c-107.333 0 -198.833 -37.667 -274.5 -113s-113.5 -170 -113.5 -284c0 -118 43 -217 129 -297c81.333 -76 198.333 -116 351 -120z" />
    <glyph glyph-name="O" unicode="O" horiz-adv-x="2321" 
d="M1306 -265c-338.667 10 -591 116.5 -757 319.5s-252.333 480.833 -259 833.5c7.33301 373.333 105.833 663 295.5 869s426.167 312.667 709.5 320c379.333 -1.33301 620 -134.333 722 -399c24 -71.333 36 -138 36 -200c0 -70 -11 -128 -33 -174
c56.667 -106.667 92.667 -270 108 -490c-3.33301 -685.333 -277.333 -1045 -822 -1079zM2025 736c0 158 -31.332 297.332 -93.999 417.999c-77.333 -88 -184.666 -133.667 -321.999 -137c-232 8.66699 -354.667 118.667 -368 330c0 44 11.667 88 35 132
c36.667 68.667 90 103 160 103c96.667 0 147 -44.667 151 -134c0 -45.333 -26.667 -83.666 -80 -114.999c-32.667 -22 -49 -48 -49 -78c14 -64.667 75.667 -98 185 -100c79.333 0 149.666 31.333 210.999 94c-47.333 35.333 -71.666 79 -72.999 131
c6.66699 48 32 74.667 76 80c25.333 0 46.333 -5.66699 63 -17c0.666992 11.333 1 22.333 1 33c0 68 -16 133.667 -48 197c-108 186 -303.333 280 -586 282c-234.667 -4 -433.834 -97.833 -597.501 -281.5s-250.167 -449.167 -259.5 -796.5
c6.66699 -348 84.667 -602.5 234 -763.5s365.666 -242.167 648.999 -243.5h6c432.667 0 668 288.667 706 866z" />
    <glyph glyph-name="P" unicode="P" horiz-adv-x="1475" 
d="M1109 1147c71.333 -202.667 108 -420.333 110 -653c0 -530.667 -166.333 -796 -499 -796c-369.333 5.33301 -563.666 287.333 -582.999 846c0 419.333 144 828.333 432 1227c-53.333 36 -106 55.333 -158 58c-67.333 0 -110.666 -30 -129.999 -90
c-20.667 -65.333 -56.667 -98 -108 -98c-66 0 -99 35.667 -99 107c0 42 20 83.333 60 124c49.333 50.667 127.666 76.334 234.999 77.001c96 0 190.667 -36 284 -108c105.333 119.333 232.333 179.666 381 180.999c215.333 -5.33301 332 -127.333 350 -366
c0 -165.333 -52 -302 -156 -410c-38.667 -40.667 -78.334 -73.667 -119.001 -99zM1064 1264c34 20 66.001 47.6689 96.001 83.002c72 84 108 179.333 108 286c0 175.333 -83 264.666 -249 267.999c-108 -4.66699 -205 -46.334 -291 -125.001
c71.333 -70 141.666 -160.667 210.999 -272c47.333 -77.333 89 -157.333 125 -240zM989.001 1094c-29.333 -7.33301 -58.999 -10.998 -88.999 -10.998c-186.667 4.66699 -287.334 53.667 -302.001 147c0 54.667 31.667 84.667 95 90c43.333 0 76.333 -18.333 99 -55
c23.333 -30 61 -45 113 -45c13.333 0 26.333 0.666992 39 2c-71.333 183.333 -167.333 340.666 -288 471.999c-244.667 -322 -367 -718 -367 -1188c10 -424.667 151.333 -650.334 424 -677.001c252.667 0 379 222.667 379 668c-14 220.667 -48.333 419.667 -103 597z" />
    <glyph glyph-name="Q" unicode="Q" horiz-adv-x="2067" 
d="M803 -91c293.333 0 520.168 99.8379 680.501 299.505s240.5 440.834 240.5 723.501c0 315.333 -71.833 564.5 -215.5 747.5s-335.5 274.5 -575.5 274.5c-225.333 0 -413.333 -82.333 -564 -247c-96.667 -125.333 -147 -283.666 -151 -474.999
c1.33301 -254.667 104 -447 308 -577c84.667 -44 166 -66 244 -66c180.667 6 281.334 89 302.001 249c0 64 -26.667 110.333 -80 139c-94.667 35.333 -144.667 91.666 -150 168.999c0 25.333 9 51.666 27 78.999c26 38.667 74.667 58 146 58
c171.333 -16.667 257 -131.334 257 -344.001c-21.333 -307.333 -187.333 -461 -498 -461c-184.667 10 -339.834 80.333 -465.501 211s-192.167 307 -199.5 529c1.33301 205.333 52.666 380.333 153.999 525c161.333 216 384.666 324 669.999 324
c270.667 0 488.5 -102.5 653.5 -307.5s247.5 -480.833 247.5 -827.5c0 -314 -90.833 -581.833 -272.5 -803.5s-415.834 -332.834 -702.501 -333.501c130.667 -66.667 270.334 -189 419.001 -367c236 -284 445 -426.333 627 -427c164 2 287.333 62 370 180
c43.333 74 65 150.333 65 229c-0.666992 84 -26.167 160 -76.5 228s-126.833 103.667 -229.5 107c-98 0 -149.667 -39.667 -155 -119c0 -26 12.667 -48 38 -66c40.667 -29.333 62.334 -61 65.001 -95c0 -36.667 -11.333 -66.334 -34 -89.001
c-19.333 -20 -51.333 -30 -96 -30c-118 10 -177 79 -177 207c8.66699 119.333 63.667 211.333 165 276c54 29.333 112.667 44 176 44c127.333 -3.33301 233.666 -46 319 -128c85.333 -82 128.666 -191.333 129.999 -328c0 -94 -24.333 -187.333 -73 -280
c-101.333 -158.667 -261 -240.667 -479 -246c-224 0 -453.333 139.333 -688 418c-234.667 278 -425 418 -571 420c-130.667 -2.66699 -196 -71.334 -196 -206.001c6.66699 -61.333 37.334 -92.333 92.001 -93c23.333 0 44 12.333 62 37c28.667 40.667 62.667 61 102 61h1
c40 -0.666992 73.667 -17.334 101 -50.001c20.667 -26 31 -57.333 31 -94c-2 -64.667 -42.667 -117 -122 -157c-34 -15.333 -68.333 -23 -103 -23c-40.667 0 -82 10.333 -124 31c-98 58.667 -150.333 156.667 -157 294c4 252 158 378.667 462 380z" />
    <glyph glyph-name="R" unicode="R" horiz-adv-x="2189" 
d="M656 1694c-244.667 -322 -367 -717.999 -367 -1188c10 -424.667 151.333 -650.334 424 -677.001c252.667 0 379 222.667 379 668c-32.667 516.667 -178 915.667 -436 1197zM731 1773c70 -69.333 139.331 -159.002 207.998 -269.002
c183.333 -297.333 276.666 -634 279.999 -1010c0 -530.667 -166.333 -796 -499 -796c-369.333 5.33301 -563.666 287.333 -582.999 846c0 419.333 144 828.333 432 1227c-53.333 36 -106 55.333 -158 58c-67.333 0 -110.666 -30 -129.999 -90
c-20.667 -65.333 -56.667 -98 -108 -98c-66 0 -99 35.667 -99 107c0 42 20 83.333 60 124c49.333 50.667 127.666 76.334 234.999 77.001c92 0 182.667 -32.667 272 -98c166.667 157.333 351.334 236 554.001 236c134 0 254 -36.667 360 -110
c180.667 -123.333 271 -318.666 271 -585.999c0 -175.333 -68 -349.666 -204 -522.999c69.333 -34 126.333 -92.333 171 -175c58.667 -101.333 125.334 -274.5 200.001 -519.5s207 -370.167 397 -375.5c65.333 0 110.666 23.167 136 69.5
c25.333 46.333 59.333 69.5 102 69.5c46 -6.66699 69.333 -32.334 70 -77.001c0 -23.333 -10 -49.666 -30 -78.999c-57.333 -72.667 -140 -109.334 -248 -110.001c-277.333 4 -463.5 151.667 -558.5 443s-171.833 474.333 -230.5 549c-34 54 -77.333 81 -130 81
c-24.667 0 -47 -9 -67 -27c-40.667 -49.333 -87 -74 -139 -74c-54 1.33301 -81 26.666 -81 75.999c0 50 27.333 94.333 82 133c45.333 32.667 112 49 200 49c142.667 138 214 298 214 480c0 148 -40.667 277.667 -122 389c-93.333 126.667 -226 190 -398 190
c-184.667 -9.33301 -337.667 -71.666 -459 -186.999z" />
    <glyph glyph-name="S" unicode="S" horiz-adv-x="1392" 
d="M202 1270c4.66699 -178 94.8301 -337.499 270.497 -478.499s360.834 -274.833 555.501 -401.5s292 -264.334 292 -413.001c-4.66699 -98.667 -35.667 -176.667 -93 -234s-140.666 -87.333 -249.999 -90c-183.333 6 -287.333 70 -312 192c1.33301 68 28.333 102 81 102
c42.667 0 76.667 -27.333 102 -82s74 -84.667 146 -90c50 0 93.667 18.5 131 55.5s56 84.5 56 142.5c-5.33301 116.667 -89.166 227.167 -251.499 331.5s-342.5 235.666 -540.5 393.999s-300.667 346.5 -308 564.5c0 261.333 101.333 462.333 304 603
s452.334 211 749.001 211c390 -5.33301 654.667 -97.666 794 -276.999c55.333 -80.667 83 -172.334 83 -275.001c0 -129.333 -51.5 -236.333 -154.5 -321s-227.167 -127 -372.5 -127s-269.333 39 -372 117c-85.333 85.333 -128 176 -128 272
c0 44.667 9.33301 86.334 28 125.001c36 82 95 125.333 177 130c42.667 0 77.667 -15 105 -45c24.667 -28.667 37 -58 37 -88c-1.33301 -54.667 -29 -99.667 -83 -135c-27.333 -19.333 -41 -46.333 -41 -81c17.333 -119.333 115.666 -179 294.999 -179
c106 0 195.5 31 268.5 93s109.5 141.667 109.5 239c0 80 -21.333 150.333 -64 211c-114 142.667 -339 217 -675 223c-274 0 -499 -60 -675 -180s-264 -289.667 -264 -509z" />
    <glyph glyph-name="T" unicode="T" horiz-adv-x="1362" 
d="M1060 1530c64 0 160.667 -1 290 -3c290.667 0 488.667 32.833 594 98.5s158 135.5 158 209.5c-6 118.667 -104 178 -294 178c-233.333 -24 -422 -101 -566 -231c-82 -81.333 -142.667 -165.333 -182 -252zM877 1396c-216.667 -4 -358.002 -11.668 -424.002 -23.001
c-171.333 -25.333 -258 -77 -260 -155c6.66699 -42 40.334 -64.333 101.001 -67c28.667 0 48 13 58 39c20.667 50 56 76.333 106 79c54 -4 84.333 -30.333 91 -79c-2.66699 -98.667 -74.334 -152.667 -215.001 -162c-156.667 0 -238.667 66.667 -246 200
c2 148.667 114.333 241 337 277c102 14.667 264.667 23 488 25c48 138.667 135.667 265.334 263 380.001c178 148.667 390.333 227.667 637 237c276.667 0 425 -101.333 445 -304c0 -138 -72.667 -246.833 -218 -326.5s-357.666 -119.5 -636.999 -119.5
c-90 1.33301 -183.667 2 -281 2c-38.667 0 -75.667 -0.333008 -111 -1c-16.667 -78.667 -25 -168.334 -25 -269.001c0 -98.667 8 -207.667 24 -327c40 -302 68 -523 84 -663c6.66699 -57.333 10 -109 10 -155c0 -65.333 -6.66699 -118.333 -20 -159
c-18.667 -56 -46.667 -84 -84 -84c-9.33301 0 -19 2 -29 6c-40.667 13.333 -61 42 -61 86c0 12.667 1.66699 26.667 5 42c12.667 56 19 137 19 243c0 23.333 -0.333008 48 -1 74c-3.33301 142.667 -20.666 346.334 -51.999 611.001c-16 133.333 -24 251 -24 353
c0 92.667 6.66699 172.667 20 240z" />
    <glyph glyph-name="U" unicode="U" horiz-adv-x="2429" 
d="M1969 588c-6.66699 438.667 -19.667 660.334 -39 665.001h-2c-14 0 -21 -38.333 -21 -115c0 -19.333 0.333008 -41 1 -65c4.66699 -124.667 25 -286.334 61 -485.001zM1901 400c-72 228.667 -111.997 449.002 -119.997 661.002c-0.666992 21.333 -1 42 -1 62
c0 200 43.333 301 130 303h3c93.333 0 150.333 -108.333 170.999 -325c8.66699 -97.333 13 -193 13 -287c0 -117.333 -7 -232.333 -21 -345l-2 -2c-6.66699 -44 -14.334 -86 -23 -126c110 -339.333 241.667 -520.333 395 -543c34 0 64.333 12.667 91 38s45 44 55 56h1l1 1
c17.333 17.333 38.333 26 63 26s45.667 -8.66699 63 -26s26 -38.333 26 -63c0 -50.667 -24.5 -89.834 -73.5 -117.501s-103.167 -42.167 -162.5 -43.5c-204 5.33301 -376 164.666 -516 477.999c-64 -171.333 -157.333 -302.666 -280 -393.999
c-105.333 -72.667 -215.666 -109 -330.999 -109c-195.333 1.33301 -347 77.333 -455 228c-88.667 123.333 -133 343.333 -133 660c0 69.333 2.33301 143.333 7 222c13.333 252.667 20 453 20 601c0 109.333 -3.66699 190.333 -11 243
c-20.667 146.667 -71.334 246.667 -152.001 300c-48 31.333 -94 47 -138 47c-30 0 -59 -7.33301 -87 -22c-68.667 -36.667 -103.334 -90.667 -104.001 -162v-3c0 -44.667 16.667 -84 50 -118c33.333 -35.333 52.833 -63.833 58.5 -85.5s8.5 -39.167 8.5 -52.5
c0 -44.667 -16 -82.834 -48 -114.501s-70.333 -47.5 -115 -47.5c-58 0 -108.167 20.5 -150.5 61.5s-66.833 108.5 -73.5 202.5c-0.666992 9.33301 -1 18.666 -1 27.999c0 85.333 27.667 173 83 263c60.667 100 156 161.667 286 185c25.333 4 50.333 6 75 6
c99.333 0 189.666 -37.333 270.999 -112c101.333 -94 159.333 -230.333 174 -409c4 -45.333 6 -104.666 6 -177.999c0 -153.333 -8 -367 -24 -641c-5.33301 -88 -8 -169 -8 -243c0 -270 33.667 -452 101 -546c86 -120.667 198 -182 336 -184
c123.333 0 229.333 36.667 318 110c90.667 74 155.667 170.667 195 290c19.333 60.667 34.333 117.667 45 171l-18 55z" />
    <glyph glyph-name="V" unicode="V" horiz-adv-x="1677" 
d="M2561 2036c-276 -4 -509.166 -72.8311 -699.499 -206.498s-345.166 -315 -464.499 -544s-198 -475.167 -236 -738.5c-25.333 -171.333 -38 -323 -38 -455c0 -71.333 3.66699 -136.666 11 -195.999c9.33301 -16.667 14 -32.334 14 -47.001c0 -55.333 -38 -83 -114 -83
c-118.667 2.66699 -181.334 60 -188.001 172c-48.667 489.333 -118.667 860.333 -210 1113s-180.833 440.667 -268.5 564s-170.834 207.333 -249.501 252c-39.333 21.333 -59 51.333 -59 90c2 68 36 105 102 111c79.333 0 183.333 -93 312 -279s233 -415.5 313 -688.5
s145.667 -629.167 197 -1068.5c15.333 492.667 90.666 888.167 225.999 1186.5s316.333 526.333 543 684s496.334 237.5 809.001 239.5c143.333 -6.66699 252.333 -25.334 327 -56c117.333 -48.667 201.666 -120.334 253 -215.001c45.333 -84 68 -172 68 -264
c-1.33301 -118 -43 -221.333 -125 -310s-180 -134.667 -294 -138c-83.333 0 -152 15 -206 45c-108 57.333 -163 145.666 -165 264.999c2 116.667 50.333 186.667 145 210c13.333 2.66699 26 4 38 4c30.667 0 57.334 -8.66699 80 -26c29.333 -23.333 44 -54.666 44 -93.999
c-2.66699 -38 -24.334 -71.333 -65 -100c-25.333 -18.667 -38 -41 -38 -67c0 -15.333 4.66699 -32 14 -50c22.667 -46 69.667 -69 141 -69c89.333 3.33301 162.5 35.666 219.5 96.999s85.833 141.333 86.5 240c0 76.667 -20 147.667 -60 213
c-46 74 -119.667 130.333 -221 169c-54.667 20 -135.334 33.333 -242 40z" />
    <glyph glyph-name="W" unicode="W" horiz-adv-x="2477" 
d="M2197 1285.5c-119.333 -229 -197.994 -475.166 -235.994 -738.499c-25.333 -171.333 -38 -323 -38 -455c0 -71.333 3.66699 -136.666 11 -195.999c9.33301 -16.667 14 -32.334 14 -47.001c0 -55.333 -38 -83 -114 -83c-98.667 2.66699 -151.334 60 -158.001 172
c-68.667 489.333 -148.667 860.333 -240 1113c-22.667 63.333 -45.334 122.333 -68.001 177c-103.333 -212.667 -172.333 -439.667 -207 -681c-25.333 -171.333 -38 -323 -38 -455c0 -71.333 3.66699 -136.666 11 -195.999c9.33301 -16.667 14 -32.334 14 -47.001
c0 -55.333 -38 -83 -114 -83c-98.667 2.66699 -151.334 60 -158.001 172c-68.667 489.333 -148.667 860.333 -240 1113s-180.833 440.667 -268.5 564s-170.834 207.333 -249.501 252c-39.333 21.333 -59 51.333 -59 90c2 68 36 105 102 111c79.333 0 183.333 -93 312 -279
s233 -415.5 313 -688.5s145.667 -629.167 197 -1068.5c15.333 492.667 90.666 888.334 225.999 1187c27.333 60 56.333 117 87 171c-43.333 90 -86 165 -128 225c-88 123.333 -171.333 207.333 -250 252c-39.333 21.333 -59 51.333 -59 90c2 68 36 105 102 111
c79.333 0 183.333 -93 312 -279s233 -415.5 313 -688.5s145.667 -629.167 197 -1068.5c15.333 492.667 90.666 888.167 225.999 1186.5s317.333 526.333 546 684s497.334 237.5 806 239.5c143.333 -6.66699 252.333 -25.334 327 -56
c117.333 -48.667 201.666 -120.334 253 -215.001c45.333 -84 68 -172 68 -264c-1.33301 -118 -43 -221.333 -125 -310s-180 -134.667 -294 -138c-83.333 0 -152 15 -206 45c-108 57.333 -163 145.666 -165 264.999c2 116.667 50.333 186.667 145 210
c13.333 2.66699 26 4 38 4c30.667 0 57.334 -8.66699 80 -26c29.333 -23.333 44 -54.666 44 -93.999c-2.66699 -38 -24.334 -71.333 -65 -100c-25.333 -18.667 -38 -41 -38 -67c0 -15.333 4.66699 -32 14 -50c22.667 -46 69.667 -69 141 -69
c89.333 3.33301 162.5 35.666 219.5 96.999s85.833 141.333 86.5 240c0 76.667 -20 147.667 -60 213c-46 74 -119.667 130.333 -221 169c-54.667 20 -135.334 33.333 -242 40c-265.333 -2.66699 -495.833 -71.167 -691.5 -205.5s-353.167 -316 -472.5 -545z" />
    <glyph glyph-name="X" unicode="X" horiz-adv-x="2633" 
d="M1956 717c-287.333 -680.667 -517.332 -1114 -689.999 -1300s-365 -279 -577 -279c-175.333 2.66699 -322.666 55.334 -441.999 158.001s-181.666 230 -186.999 382c8 164 63.833 291.833 167.5 383.5s227.167 140.5 370.5 146.5c206 -2 350.667 -72.333 434 -211
c34 -58.667 51 -118.667 51 -180c-0.666992 -108 -35.334 -188 -104.001 -240c-29.333 -16.667 -59 -25 -89 -25c-36.667 0 -68.167 13.167 -94.5 39.5s-39.5 58.166 -39.5 95.499c0 57.333 26 98.333 78 123l2 2c26 26 39 57.667 39 95c0 34 -21.5 72.333 -64.5 115
s-115.167 64 -216.5 64c-107.333 0 -198.833 -37.667 -274.5 -113s-113.5 -170 -113.5 -284c0 -118 42.833 -217 128.5 -297s210.5 -120 374.5 -120c180 6 346.167 98.333 498.5 277s376.5 618 672.5 1318c-118.667 259.333 -227.834 460.833 -327.501 604.5
s-193.834 240.834 -282.501 291.501c-24.667 21.333 -37 48.333 -37 81c5.33301 54.667 37 82 95 82c57.333 -0.666992 143.5 -80 258.5 -238s236.167 -381 363.5 -669c154.667 318 342 583.333 562 796s488 322.667 804 330.001c152.667 0 276.667 -19.667 372 -59
c117.333 -48.667 201.666 -120.334 253 -215.001c45.333 -84 68 -172 68 -264c-1.33301 -118 -43 -221.333 -125 -310s-180 -134.667 -294 -138c-83.333 0 -152 15 -206 45c-108 57.333 -163 145.666 -165 264.999c2 116.667 50.333 186.667 145 210
c13.333 2.66699 26 4 38 4c30.667 0 57.334 -8.66699 80 -26c29.333 -23.333 44 -54.666 44 -93.999c-2.66699 -38 -24.334 -71.333 -65 -100c-25.333 -18.667 -38 -41 -38 -67c0 -15.333 4.66699 -32 14 -50c22.667 -46 69.667 -69 141 -69
c89.333 3.33301 162.5 35.666 219.5 96.999s85.833 141.333 86.5 240c0 76.667 -20 147.667 -60 213c-46 74 -119.667 130.333 -221 169c-79.333 29.333 -178.333 44 -297 44c-272.667 -6.66699 -512.5 -115.167 -719.5 -325.5s-394.5 -491.166 -562.5 -842.499
c108 -216 191.833 -373.667 251.5 -473s116.167 -181 169.5 -245c88 -106 156 -170.333 204 -193c44 -28 66 -65.667 66 -113c-5.33301 -73.333 -39.333 -110.333 -102 -111c-75.333 0 -162.333 79 -261 237c-44 69.333 -91.5 152.166 -142.5 248.499z" />
    <glyph glyph-name="Y" unicode="Y" horiz-adv-x="2438" 
d="M1268 -428c-62.667 -56.667 -94.001 -119.332 -94.001 -187.999c2.66699 -96.667 70 -178.334 202 -245.001c55.333 -20.667 113 -31 173 -31c220.667 1.33301 370.334 98.333 449.001 291c26.667 79.333 40 165.333 40 258c0 62.667 -6 128 -18 196
c-132.667 -52 -271.667 -94.333 -417 -127s-257 -84 -335 -154zM1714 53.002c-105.333 -72.667 -215.666 -108.998 -330.999 -108.998c-23.333 0 -47 1.66699 -71 5c-141.333 18 -257.666 91.667 -348.999 221c-84.667 118.667 -127 337.334 -127 656.001
c0 13.333 0.333008 26.666 1 39.999v147c0 264.667 -8.66699 459.667 -26 585c-20.667 146.667 -71.334 246.667 -152.001 300c-48 31.333 -94 47 -138 47c-30 0 -59 -7.33301 -87 -22c-68.667 -36.667 -103.334 -90.667 -104.001 -162v-3c0 -44.667 16.667 -84 50 -118
c33.333 -35.333 52.833 -63.833 58.5 -85.5s8.5 -39.167 8.5 -52.5c0 -44.667 -16 -82.834 -48 -114.501s-70.333 -47.5 -115 -47.5c-58 0 -108.167 20.5 -150.5 61.5s-66.833 108.5 -73.5 202.5c-0.666992 9.33301 -1 18.666 -1 27.999c0 85.333 27.667 173 83 263
c60.667 100 156 161.667 286 185c25.333 4 50.333 6 75 6c99.333 0 189.666 -37.333 270.999 -112c101.333 -94 159.333 -230.333 174 -409c11.333 -140.667 17 -319 17 -535c0 -58.667 -0.333008 -120.334 -1 -185.001v-42c0 -277.333 38.667 -466.666 116 -567.999
c81.333 -106 178.666 -159.667 291.999 -161c2 -0.666992 4.33301 -1 7 -1c110 0 209.333 36.667 298 110c90.667 74 162.334 168 215.001 282c24.667 74.667 41 135 49 181c-1.33301 16 -2.33301 31 -3 45l-2 23c0 128 40.667 192 122 192c37.333 0 56 -28.667 56 -86
c0 -26.667 -4 -59.334 -12 -98.001c-10 -48.667 -15 -106.334 -15 -173.001c0 -116 19.333 -281.667 58 -497c84 39.333 149 91.333 195 156c52 72 79.667 142.667 83 212s18.666 104.333 46 105c34 0 51 -28.667 51 -86c-7.33301 -98 -35 -191.667 -83 -281
c-47.333 -89.333 -137.666 -170.666 -271 -243.999c6.66699 -66 10 -128.667 10 -188c0 -144.667 -19.667 -270.667 -59 -378c-98 -244.667 -290.333 -367.667 -577 -369c-78.667 0 -155.667 14.667 -231 44c-178 78 -268.333 196.333 -271 355c0 96 37.667 180.667 113 254
c94.667 92 241.834 166.333 441.501 223s346.5 104.334 440.5 143.001c-26 146 -46.333 270 -61 372c-74 -144 -160 -249.667 -258 -317z" />
    <glyph glyph-name="Z" unicode="Z" horiz-adv-x="1473" 
d="M603 194c-126 -2 -223.668 -31.333 -293.001 -88c-50.667 -42 -76 -84 -76 -126c0 -64 26 -96 78 -96c24 0 53.333 10.333 88 31c76.667 46 144.334 139 203.001 279zM744.999 150c-70.667 -176 -154.999 -291.996 -252.999 -347.996c-65.333 -38 -124.333 -57 -177 -57
c-30.667 0 -59 6.33301 -85 19c-72.667 34 -112.334 96.667 -119.001 188c0 98.667 42.333 183 127 253c84.667 68.667 220.334 103 407.001 103c270 705.333 431 1134.67 483 1288c-89.333 0 -186.666 54.333 -291.999 163c-118.667 124 -228 186 -328 186
c-40 0 -76 -11.667 -108 -35c-56 -41.333 -84 -95.333 -84 -162c1.33301 -40.667 8.33301 -74.667 21 -102c24 -27.333 36 -59.333 36 -96c0 -40.667 -14.167 -75.334 -42.5 -104.001s-62.833 -43 -103.5 -43s-75 14.333 -103 43c-32 32 -49.333 89 -52 171
c8 216.667 112.333 361 313 433c46.667 11.333 91 17 133 17c123.333 0 252 -59.667 386 -179c83.333 -74.667 153 -112 209 -112c34 0 63 13.667 87 41c63.333 72 115.333 108.333 156 109c64 0 98.667 -30.667 104 -92c0 -26 -12.333 -49.667 -37 -71
c-35.333 -30.667 -77.333 -84 -126 -160s-220.334 -520.667 -515.001 -1334c174 -40.667 326.333 -165.667 457 -375c147.333 -238 283 -446.167 407 -624.5s277 -267.833 459 -268.5c164 2 287.333 62 370 180c43.333 74 65 150.333 65 229
c-0.666992 84 -26.167 160 -76.5 228s-126.833 103.667 -229.5 107c-98 0 -149.667 -39.667 -155 -119c0 -26 12.667 -48 38 -66c40.667 -29.333 62.334 -61 65 -95c0 -36.667 -11.333 -66.334 -34 -89.001c-19.333 -20 -51.333 -30 -96 -30c-118 10 -177 79 -177 207
c8.66699 119.333 63.667 211.333 165 276c54 29.333 112.667 44 176 44c127.333 -3.33301 233.666 -46 319 -128c85.333 -82 128.666 -191.333 129.999 -328c0 -94 -24.333 -187.333 -73 -280c-101.333 -158.667 -261 -240.667 -479 -246
c-224 0 -407.167 93.833 -549.5 281.5s-280.5 391.167 -414.5 610.5c-125.333 205.333 -260 327.666 -404 366.999z" />
    <glyph glyph-name="bracketleft" unicode="[" horiz-adv-x="840" 
d="M184 1363l4.99902 0.000976562c18 0 37.333 -6.33301 58 -19c8 -5.33301 15 -12.333 21 -21c19.333 -7.33301 41 -13.666 65 -18.999c42.667 -10 83.667 -15 123 -15c11.333 0 23 0.333008 35 1c49.333 4 97.666 16.333 144.999 37c21.333 9.33301 40.333 14 57 14
c21.333 0 39 -7 53 -21c15.333 -14.667 23 -30.334 23 -47.001c0 -11.333 -3.66699 -23 -11 -35c-18.667 -30 -65 -48.667 -139 -56c-30 -3.33301 -63 -5 -99 -5c-53.333 0 -113.333 3.33301 -180 10c-9.33301 0.666992 -18.666 1.66699 -27.999 3
c5.33301 -30 9.66602 -63.667 12.999 -101c9.33301 -118 14 -330 14 -636c0 -306.667 -4.66699 -518.667 -14 -636c-3.33301 -37.333 -7.66602 -71 -12.999 -101l28 4c64.667 6 123.334 9 176.001 9c37.333 0 71.666 -1.33301 102.999 -4c74 -8 120.333 -26.667 139 -56
c7.33301 -12.667 11 -24.667 11 -36c0 -16.667 -7.66699 -32.334 -23 -47.001c-14 -14 -31.667 -21 -53 -21c-16.667 0 -35.667 4.66699 -57 14c-47.333 20.667 -95.666 33 -144.999 37c-12 0.666992 -24.333 1 -37 1c-38.667 0 -79 -4.66699 -121 -14
c-24 -6 -45.667 -12.667 -65 -20c-6 -8.66699 -13 -15.334 -21 -20.001c-20.667 -13.333 -40 -20 -58 -20h-5c-2 -0.666992 -4.33301 -1 -7 -1c-14 0 -27.333 7.33301 -40 22c-16 14.667 -24 33.334 -24 56.001c0 12 2 24.667 6 38c14 42 36 117 66 225
c23.333 84 35 274 35 570s-11.667 486 -35 570c-30 108 -52 183.333 -66 226c-4 13.333 -6 25.666 -6 36.999c0 22.667 8 41.334 24 56.001c12.667 14.667 26 22 40 22c2.66699 0 5 -0.333008 7 -1z" />
    <glyph glyph-name="backslash" unicode="\" horiz-adv-x="914" 
d="M96.5 1859.5c-47 41.667 -77.167 83.8281 -90.5 126.495c-4 12.667 -6 24.667 -6 36c0 25.333 10 46 30 62c14 10.667 29.333 16 46 16c18 0 37.333 -6.33301 58 -19c40 -25.333 74.167 -76.333 102.5 -153s120 -390.5 275 -941.5s247 -845.167 276 -882.5
s50.167 -77 63.5 -119c4 -13.333 6 -25.666 6 -36.999c0 -25.333 -10 -45.666 -30 -60.999c-14 -11.333 -29.333 -17 -46 -17c-18 0 -37.333 6.66699 -58 20c-40 24.667 -65.667 71.834 -77 141.501s-94 381.334 -248 935.001s-254.5 851.334 -301.5 893.001z" />
    <glyph glyph-name="bracketright" unicode="]" horiz-adv-x="840" 
d="M655 1363c2 0.666992 4.33301 0.996094 7 0.996094c14 0 27.333 -7.33301 40 -22c16.667 -15.333 25 -34 25 -56c0 -11.333 -2 -23.666 -6 -36.999c-14 -42.667 -36 -118 -66 -226c-23.333 -84 -35 -274 -35 -570s11.667 -486 35 -570c30 -108 52 -183 66 -225
c4 -13.333 6 -25.666 6 -36.999c0 -22.667 -8.33301 -41.667 -25 -57c-12.667 -14.667 -26 -22 -40 -22c-2.66699 0 -5 0.333008 -7 1h-5c-18 0 -37 6.66699 -57 20c-8 4.66699 -15.333 11.334 -22 20.001c-18.667 7.33301 -40 14 -64 20c-42 9.33301 -82.333 14 -121 14
c-12.667 0 -24.667 -0.333008 -36 -1c-50 -4 -98.667 -16.333 -146 -37c-21.333 -9.33301 -40.333 -14 -57 -14c-21.333 0 -39 7 -53 21c-15.333 14.667 -23 30.334 -23 47.001c0 11.333 4 23.333 12 36c18 29.333 64.333 48 139 56c30.667 2.66699 64.667 4 102 4
c52.667 0 111.334 -3 176.001 -9l27 -4c-4.66699 30 -8.66699 63.667 -12 101c-9.33301 117.333 -14 329.333 -14 636c0 306 4.66699 518 14 636c3.33301 37.333 7.33301 71 12 101c-8.66699 -1.33301 -17.667 -2.33301 -27 -3c-66.667 -6.66699 -126.667 -10 -180 -10
c-36 0 -68.667 1.66699 -98 5c-74.667 7.33301 -121 26 -139 56c-8 12 -12 23.667 -12 35c0 16.667 7.66699 32.334 23 47.001c14 14 31.667 21 53 21c16.667 0 35.667 -4.66699 57 -14c47.333 -20.667 96 -33 146 -37c11.333 -0.666992 22.666 -1 33.999 -1
c39.333 0 80.333 5 123 15c24 5.33301 45.333 11.666 64 18.999c6.66699 8.66699 14 15.667 22 21c20 12.667 39 19 57 19h5z" />
    <glyph glyph-name="asciicircum" unicode="^" horiz-adv-x="950" 
d="M471 1475h7.00195c52.667 0 88.667 -38.333 108 -115c105.333 -121.333 174 -199.166 206 -233.499s71 -63.833 117 -88.5c36 -20 54 -47.333 54 -82c0 -5.33301 -0.666992 -11.333 -2 -18c-6.66699 -43.333 -35.334 -70.666 -86.001 -81.999
c-4.66699 -0.666992 -9.33398 -1 -14.001 -1c-49.333 0 -97.666 35.5 -144.999 106.5l-241 372.5l-241 -372.5c-47.333 -71 -95.666 -106.5 -144.999 -106.5c-4.66699 0 -9.33398 0.333008 -14.001 1c-50.667 11.333 -79.334 38.666 -86.001 81.999
c-1.33301 6.66699 -2 12.667 -2 18c0 34.667 18 62 54 82c46 24.667 85 54.167 117 88.5s100.667 112.166 206 233.499c14 72.667 49.667 111 107 115z" />
    <glyph glyph-name="underscore" unicode="_" horiz-adv-x="884" 
d="M-36 -463c-18 0 -33.167 6.33301 -45.5 19s-18.5 28 -18.5 46s6.16699 33.167 18.5 45.5s29.5 18.5 51.5 18.5h944c22 0 39.167 -6.16699 51.5 -18.5s18.5 -27.5 18.5 -45.5s-6.16699 -33.333 -18.5 -46s-27.5 -19 -45.5 -19h-956z" />
    <glyph glyph-name="grave" unicode="`" horiz-adv-x="601" 
d="M424 1121c18 -22.667 26.998 -42 26.998 -58c0 -7.33301 -1.66699 -14 -5 -20c-9.33301 -16 -21.666 -24 -36.999 -24c-27.333 0 -77.333 29.5 -150 88.5s-109 111.833 -109 158.5c0 10 2 19.333 6 28c10.667 25.333 31 38 61 38c36 -1.33301 72.833 -29 110.5 -83
s69.834 -96.667 96.501 -128z" />
    <glyph glyph-name="a" unicode="a" horiz-adv-x="1147" 
d="M630 613c-62 108.667 -140.332 162.999 -234.999 162.999c-81.333 0 -146.833 -30.833 -196.5 -92.5s-74.5 -141.5 -74.5 -239.5c0 -92 26.5 -170.333 79.5 -235s116.833 -97 191.5 -97c121.333 0 209.666 84.333 264.999 253c-18 98.667 -28 181.334 -30 248.001z
M698.001 178.999c-72.667 -130 -180.332 -195.001 -322.999 -195.001c-108.667 0 -201.667 45.333 -279 136s-116 199.667 -116 327c0 141.333 38.667 254 116 338s170.333 126 279 126s201.667 -44 279 -132c9.33301 47.333 37 71 83 71c30 0 54 -19 72 -57
c13.333 -30 20 -73 20 -129c0 -38.667 -3.33301 -83.667 -10 -135c-6 -45.333 -9 -87.666 -9 -126.999c0.666992 -198 48 -297 142 -297c47.333 0 86.833 23.5 118.5 70.5s50.5 109.167 56.5 186.5c5.33301 64.667 24 97 56 97c30.667 0 46 -29.667 46 -89
c0 -23.333 -3 -51.333 -9 -84c-18.667 -98 -54.334 -170.667 -107.001 -218s-106 -71 -160 -71h-2c-55.333 0.666992 -106.333 15.667 -153 45s-80 75 -100 137z" />
    <glyph glyph-name="b" unicode="b" horiz-adv-x="1095" 
d="M614 781c-27.333 13.333 -50.333 20 -69 20c-38 0 -59.667 -26.667 -65 -80c-2.66699 -10.667 -4 -21.667 -4 -33c0 -48.667 23 -107 69 -175c56 -84.667 129.333 -146 220 -184c2.66699 40 4 83.333 4 130c0 34 -4 70 -12 108c-27.333 102 -75 173.333 -143 214z
M130 641c85.333 179.333 131.333 395.998 138 649.998c-11.333 218 -39.333 327 -84 327c-57.333 -11.333 -90 -134.666 -98 -369.999c0 -161.333 14.667 -363.666 44 -606.999zM489 101.998c105.333 6.66699 178.333 49.334 219 128.001
c-103.333 34 -189.333 95.667 -258 185c-66 84.667 -99 171 -99 259v13c3.33301 92 26 155.333 68 190c30 24.667 65.667 37 107 37c16.667 0 34.667 -2 54 -6c71.333 -14 140.5 -62.333 207.5 -145s100.5 -188 100.5 -316c0 -54.667 -7 -106 -21 -154
c12.667 -2 24.667 -3 36 -3c48 0 90.333 16.333 127 49c44.667 40.667 67.334 99.667 68.001 177c0 44 12 66 36 66c22 0 35 -23.667 39 -71c0 -114 -35 -199.333 -105 -256c-56.667 -46 -120.334 -69 -191.001 -69c-18 0 -36.333 1.33301 -55 4
c-84 -137.333 -194 -206 -330 -206c-167.333 0 -308 120.667 -422 362c-11.333 -10 -26.666 -15 -45.999 -15c-42.667 4.66699 -67.334 33.334 -74.001 86.001c0 57.333 23 97.666 69 120.999c-37.333 172.667 -56 376 -56 610c6.66699 405.333 81 612 223 620
c128 0 192.333 -160.667 193 -482c-4.66699 -276.667 -80.667 -542.667 -228 -798c87.333 -250.667 200 -379.334 338 -386.001z" />
    <glyph glyph-name="c" unicode="c" horiz-adv-x="867" 
d="M-20 441c0 90.667 19.3359 175.332 58.0029 253.999c45.333 92.667 107.666 155.667 186.999 189c44 18.667 88.333 28 133 28c34 0 68 -5.33301 102 -16c111.333 -39.333 167.666 -115 168.999 -227c0 -32 -6.66699 -62.667 -20 -92c-25.333 -54.667 -60 -82 -104 -82
c-63.333 2 -97.333 32 -102 90c0 20.667 8 40 24 58c20.667 24.667 31 49 31 73c0 36 -17.333 60.333 -52 73c-8.66699 2.66699 -18.334 4 -29.001 4c-76 0 -137.833 -34.5 -185.5 -103.5s-71.5 -148.833 -71.5 -239.5c0 -72 18.667 -139 56 -201
c65.333 -100.667 163.333 -154 294 -160c105.333 4.66699 191.333 41 258 109s109.334 157 128.001 267c4 31.333 19.333 47 46 47c24 -4 36 -22 36 -54c-16.667 -124 -65.334 -234.5 -146.001 -331.5s-199 -147.167 -355 -150.5c-140 6 -250.5 48.833 -331.5 128.5
s-122.833 191.834 -125.5 336.501z" />
    <glyph glyph-name="d" unicode="d" horiz-adv-x="1175" 
d="M310 646c-121.333 -40 -186.331 -127.665 -194.998 -262.998c4 -122.667 57.333 -215 160 -277c45.333 -23.333 90.333 -35 135 -35c119.333 1.33301 210.666 54.666 273.999 159.999c-134.667 136.667 -229.334 293.667 -284.001 471
c-14.667 -28.667 -44.667 -47.334 -90 -56.001zM760.002 356.002c58 191.333 87 378.668 87 562.001c-20 321.333 -72 544.666 -156 669.999c-27.333 30 -53.333 45 -78 45c-84.667 0 -132 -136 -142 -408c0 -362 96.333 -651.667 289 -869zM335.002 1161
c21.333 388.667 111.33 586.999 269.997 594.999c111.333 0 200 -91.333 266 -274c68 -190.667 102 -384 102 -580c-2 -213.333 -43 -422 -123 -626c44 -51.333 97 -77.666 159 -78.999c36.667 0 69 12.333 97 37c36.667 32.667 57 80.667 61 144
c2.66699 52 17.667 78 45 78c26 0 39 -20.667 39 -62c0 -80.667 -24.167 -152.667 -72.5 -216s-115.166 -95.666 -200.499 -96.999c-66.667 0 -137.667 25.667 -213 77c-95.333 -117.333 -219.333 -177.333 -372 -180c-33.333 0 -67.666 3 -102.999 9
c-97.333 17.333 -173.666 63.333 -228.999 138s-83 156.334 -83 245.001c0 141.333 37.833 256.666 113.5 345.999s165.5 139.666 269.5 150.999c-17.333 107.333 -26 205.333 -26 294z" />
    <glyph glyph-name="e" unicode="e" horiz-adv-x="812" 
d="M154 592c-19.333 -60 -29.001 -110.668 -29.001 -152.001c0 -22.667 3 -42.667 9 -60c116.667 18 206.334 62.667 269.001 134c44 50.667 66 99.667 66 147c0 19.333 -3.66699 38.333 -11 57c-18 44.667 -47.667 67 -89 67c-18 0 -37.667 -4 -59 -12
c-74 -27.333 -126 -87.666 -156 -180.999zM187.999 866.999c56.667 29.333 111.334 43.998 164.001 43.998c34.667 0 68.334 -6.33301 101.001 -19c83.333 -31.333 129.666 -95.666 138.999 -192.999c0.666992 -10.667 1 -21 1 -31c0 -86 -35 -164 -105 -234
c-74.667 -75.333 -184.334 -128 -329.001 -158c9.33301 -20 20.333 -40 33 -60c51.333 -84.667 132.333 -127 243 -127c98.667 4.66699 183 41 253 109s107.667 157 113 267c4 31.333 19.333 47 46 47c24 -4 36 -22 36 -54c-3.33301 -124 -47 -234.5 -131 -331.5
s-197.333 -147.167 -340 -150.5c-126.667 0 -230.5 41.333 -311.5 124s-122.833 196.334 -125.5 341.001c0 38.667 3.33301 76 10 112c22 136 89.667 240.667 203 314z" />
    <glyph glyph-name="f" unicode="f" horiz-adv-x="657" 
d="M19 545c-38.667 247.333 -57.998 456.336 -57.998 627.003c3.33301 377.333 85.666 571.333 246.999 582c61.333 0 109.666 -37.333 144.999 -112s53 -174.334 53 -299.001c0 -102.667 -13 -226 -39 -370c-32 -172.667 -99.333 -349.667 -202 -531
c35.333 -216 130.666 -324.333 285.999 -325c54.667 0 99.334 20.667 134.001 62s54.334 98.333 59.001 171s22 109 52 109c26 0 39 -19.667 39 -59c0 -43.333 -3 -81.333 -9 -114c-18.667 -98 -57.167 -168.667 -115.5 -212s-118.5 -65 -180.5 -65
c-77.333 0 -142 13 -194 39c62 -262.667 94.667 -474 98 -634c0 -102 -8 -175.5 -24 -220.5s-46 -67.5 -90 -67.5c-40 4 -68.333 20.333 -85 49c-8 13.333 -12 30 -12 50c0 21.333 4.66699 46.666 14 75.999c18 55.333 27 119.333 27 192
c-4 245.333 -40.667 520.666 -110 825.999c-8 -2.66699 -16.333 -4 -25 -4c-25.333 0 -47 11.333 -65 34s-27 49.667 -27 81c0 32 9 59.333 27 82c15.333 18.667 33.666 29.667 54.999 33zM129.002 597.003c114 260 171.333 494.999 172 704.999c0 210.667 -29 316 -87 316
c-64.667 -3.33301 -104.667 -159.333 -120 -468c0 -151.333 11.667 -335.666 35 -552.999z" />
    <glyph glyph-name="g" unicode="g" horiz-adv-x="1119" 
d="M408 -605c0.666992 -135.333 92.333 -202.999 275 -202.999c170 6 258 107 264 303c0 117.333 -47.333 254.666 -142 411.999c-260 -168 -392.333 -338.667 -397 -512zM835.999 484.001c-3.33301 -37.333 -5.00391 -73 -5.00391 -107c0 -108 15 -203.667 45 -287
c72 42.667 129.667 91 173 145s65.833 115.667 67.5 185s15.834 104.333 42.501 105c33.333 0 50 -26.667 50 -80c0 -88.667 -20.5 -169.5 -61.5 -242.5s-114.167 -143.5 -219.5 -211.5c106 -198 159 -363.333 159 -496c-1.33301 -274.667 -129 -414 -383 -418
c-275.333 2.66699 -413.333 109.667 -414 321c0.666992 215.333 153.334 418.333 458.001 609c-23.333 68 -39.666 125.667 -48.999 173c-80 -130.667 -188 -196 -324 -196c-108.667 0 -201.667 45.333 -279 136s-116 199.667 -116 327c0 141.333 38.667 254 116 338
s170.333 126 279 126c106 0 197 -42.667 273 -128c15.333 44.667 43.333 67 84 67c34.667 0 62.334 -19 83.001 -57c17.333 -34.667 26 -93.334 26 -176.001c0 -39.333 -1.66699 -83.666 -5 -132.999zM629.995 613.001c-62 108.667 -140.332 162.999 -234.999 162.999
c-74.667 0 -138.5 -29.167 -191.5 -87.5s-79.5 -139.833 -79.5 -244.5c0 -92 26.5 -170.333 79.5 -235s116.833 -97 191.5 -97c121.333 0 209.666 84.333 264.999 253c-18 98.667 -28 181.334 -30 248.001z" />
    <glyph glyph-name="h" unicode="h" horiz-adv-x="982" 
d="M14 1178c0 -208 14.668 -387 44.001 -537c105.333 219.333 161.333 436 168 650c-4.66699 218 -39.334 327 -104.001 327c-64 -11.333 -100 -158 -108 -440zM164.001 322c16.667 -51.333 35.667 -97.334 57 -138.001c26.667 -52 40 -93.667 40 -125
c-6.66699 -50 -34.334 -75 -83.001 -75c-28 0 -53.333 15 -76 45c-54.667 91.333 -103.5 236.833 -146.5 436.5s-64.5 427.167 -64.5 682.5c0 130 9.66699 242.333 29 337c40.667 180.667 102 275 184 283c54.667 0 104.667 -40.667 150 -122
c42 -77.333 63 -195.666 63 -354.999c-0.666992 -166 -27 -322.667 -79 -470c50.667 60 123 90 217 90c98 -0.666992 172.667 -35.334 224 -104.001c38 -50.667 57 -158 57 -322c0 -18.667 -0.333008 -37.667 -1 -57v-37c0 -171.333 31.667 -257.666 95 -258.999
c20.667 0 41.667 11.667 63 35c44 48 69.333 125 76 231c0 51.333 15.667 77 47 77c30.667 0 46 -24.667 46 -74c-4 -134.667 -43.333 -248 -118 -340c-44.667 -43.333 -90.667 -65 -138 -65c-52 2.66699 -99.667 36.667 -143 102c-36 53.333 -54 150.333 -54 291
c0 30.667 1 64 3 100c0.666992 15.333 1 30.333 1 45c0 165.333 -57.333 250.333 -172 255c-159.333 0 -251.666 -155.667 -276.999 -467z" />
    <glyph glyph-name="i" unicode="i" horiz-adv-x="484" 
d="M-32 548c0 67.333 -3.33203 125.33 -9.99902 173.997c-2 14 -3 26.667 -3 38c0 58 23 88 69 90c46 0 79 -27 99 -81c10.667 -28.667 16 -75 16 -139c0 -58 -4.33301 -131 -13 -219c-2.66699 -24.667 -4 -47.667 -4 -69c0 -141.333 52 -220.666 156 -237.999
c0.666992 0 1 0.333008 1 1c47.333 0 90.166 25.167 128.499 75.5s59.833 130.833 64.5 241.5c0 38 12.333 57 37 57c31.333 0 47 -19.667 47 -59c0 -114 -25.833 -213 -77.5 -297s-125.167 -126 -220.5 -126c-88.667 0.666992 -162 33.334 -220 98.001
c-44 56 -66.667 133.833 -68 233.5s-2 172.834 -2 219.501zM49.001 1319c21.333 12 42 18 62 18c14 0 27.333 -3 40 -9c30.667 -14 50 -42 58 -84c2 -12 3 -23.667 3 -35c0 -30.667 -7.33301 -62 -22 -94c-21.333 -44.667 -49 -78 -83 -100
c-20.667 -12.667 -40.667 -19 -60 -19c-14 0 -28 3.33301 -42 10c-33.333 15.333 -54 44 -62 86c-2 11.333 -3 23 -3 35c0 30.667 7.33301 62 22 94c20.667 44 49.667 76.667 87 98z" />
    <glyph glyph-name="j" unicode="j" horiz-adv-x="456" 
d="M63 1319c21.333 12 42 17.998 62 17.998c14 0 27.333 -3 40 -9c30.667 -14 50 -42 58 -84c2 -11.333 3 -22.666 3 -33.999c0 -31.333 -7.66699 -63 -23 -95c-20.667 -44.667 -48 -78 -82 -100c-20.667 -12.667 -40.667 -19 -60 -19c-14 0 -28 3.33301 -42 10
c-34 15.333 -54.667 44 -62 86c-2.66699 10.667 -4 22 -4 34c0 30.667 7.66699 62.334 23 95.001c20.667 44 49.667 76.667 87 98zM-140 -544.002c14.667 -169.333 80 -254.333 196 -255c128 13.333 195 111.333 201 294c0 117.333 -47.333 254.666 -142 411.999
c-166.667 -121.333 -251.667 -271.666 -255 -450.999zM58 26.998c-56.667 89.333 -85 204.663 -85 345.996c0 12.667 0.333008 25.334 1 38.001c2.66699 70.667 4 130.334 4 179.001c0 60.667 -2 104.667 -6 132c-2 14 -3 26.667 -3 38c0 58 23 88 69 90c46 0 79 -27 99 -81
c10.667 -28.667 16 -75 16 -139c0 -58 -5 -137 -15 -237c-2 -19.333 -3 -38.666 -3 -57.999c0 -80 17 -158.333 51 -235c162 84 249.667 194.667 263 332c3.33301 34.667 15.333 52.334 36 53.001c27.333 0 42.666 -18.667 45.999 -56
c-14 -184.667 -111.667 -330.667 -293 -438c106 -171.333 159 -330 159 -476c-1.33301 -281.333 -115 -424.333 -341 -429c-202.667 7.33301 -310.667 122.333 -324 345c4.66699 258 113.334 456.667 326.001 596z" />
    <glyph glyph-name="k" unicode="k" horiz-adv-x="1014" 
d="M14 1178c0 -208 14.668 -387 44.001 -537c105.333 219.333 161.333 436 168 650c-4.66699 218 -39.334 327 -104.001 327c-64 -11.333 -100 -158 -108 -440zM860.001 132c20.667 0 41.667 11.6641 63 34.9971c44 48 69.333 125 76 231c0 51.333 15.667 77 47 77
c30.667 0 46 -24.667 46 -74c-4 -134.667 -43.333 -248 -118 -340c-44.667 -43.333 -90.667 -65 -138 -65c-85.333 2.66699 -155.666 65.834 -210.999 189.501s-146.333 187.834 -273 192.501c-68.667 0 -110 19.333 -124 58c-6.66699 17.333 -10 33.333 -10 48
c0 28 12 50.333 36 67c13.333 8.66699 26.666 13 39.999 13c23.333 0 47.666 -14 72.999 -42c22.667 -26 52.334 -39 89.001 -39c34 3.33301 60.333 14.333 79 33c28.667 28.667 43 63.334 43 104.001s-14.333 75.334 -43 104.001s-63.334 43 -104.001 43
c-60.667 0 -114.667 -26 -162 -78c-44 -48 -80.333 -131 -109 -249c-2 -18 -4.33301 -36.667 -7 -56c24 -92.667 46.667 -159.334 68 -200.001c26.667 -52 40 -93.667 40 -125c-6.66699 -50 -34.334 -75 -83.001 -75c-28 0 -53.333 15 -76 45
c-54.667 91.333 -103.5 236.833 -146.5 436.5s-64.5 427.167 -64.5 682.5c0 130 9.66699 242.333 29 337c40.667 180.667 102 275 184 283c54.667 0 104.667 -40.667 150 -122c42 -77.333 63 -195.666 63 -354.999c-0.666992 -166 -32.334 -333 -95.001 -501
c66 80 147.667 120.333 245 121c70.667 0 130.834 -24.833 180.501 -74.5s74.5 -109.834 74.5 -180.501c0 -70 -24.667 -130 -74 -180c-23.333 -23.333 -49 -41.333 -77 -54c84.667 -2 143.834 -50.667 177.501 -146s70.834 -143.333 111.501 -144z" />
    <glyph glyph-name="l" unicode="l" horiz-adv-x="573" 
d="M4 1178c0 -341.333 17.999 -563.668 53.999 -667.001c78.667 252.667 121.334 512.667 128.001 780c-4.66699 231.333 -32.667 347 -84 347c-57.333 -11.333 -90 -164.666 -98 -459.999zM201.499 182.998c42.333 -46 99.833 -72 172.5 -78
c47.333 0 90.166 25.167 128.499 75.5s59.833 130.833 64.5 241.5c0 38 12.333 57 37 57c31.333 0 47 -19.667 47 -59c0 -114 -25.833 -213 -77.5 -297s-128.5 -126 -230.5 -126c-182.667 0.666992 -312 142 -388 424c-63.333 200 -95 425.333 -95 676
c0.666992 439.333 75.334 663 224.001 671c54.667 0 104.667 -40.667 150 -122c42 -77.333 63 -195.666 63 -354.999c-0.666992 -262.667 -65.667 -567.334 -195 -914.001c24 -83.333 57.167 -148 99.5 -194z" />
    <glyph glyph-name="m" unicode="m" horiz-adv-x="1404" 
d="M128 378c4.66699 -33.333 22.998 -98.665 54.998 -195.998c12 -38.667 18 -71.667 18 -99c0 -40.667 -14.333 -68.334 -43 -83.001c-15.333 -7.33301 -30 -11 -44 -11c-30.667 0 -59 17.333 -85 52c-35.333 46.667 -53 144.667 -53 294
c0 15.333 0.333008 31.666 1 48.999c1.33301 66 2 123.333 2 172c0 80 -2 135.333 -6 166c-2 14 -3 26.667 -3 38c0 58 23 88 69 90c28.667 0 53 -13 73 -39c64.667 66.667 142.334 100 233.001 100c124.667 -0.666992 208.334 -53 251.001 -157
c72.667 104.667 165.667 157 279 157c98 -0.666992 172.667 -39 224 -115c45.333 -67.333 68 -175.666 68 -324.999c0 -20.667 -0.333008 -41.667 -1 -63c-1.33301 -18.667 -2 -36 -2 -52c0 -148 28.667 -222.667 86 -224c20.667 0 41.667 11.667 63 35
c44 48 69.333 125 76 231c0 51.333 15.667 77 47 77c30.667 0 46 -24.667 46 -74c-4 -134.667 -43.333 -248 -118 -340c-44.667 -43.333 -90.667 -65 -138 -65c-65.333 2.66699 -119.666 36.667 -162.999 102c-34.667 51.333 -52 181.333 -52 390
c0 196 -50 296.333 -150 301c-134 0 -201 -101.667 -201 -305c0 -28 1.33301 -58.333 4 -91h-2c6 -56 23 -126.333 51 -211c12 -38.667 18 -71.667 18 -99c0 -40.667 -14.333 -68.334 -43 -83.001c-15.333 -7.33301 -30 -11 -44 -11c-30.667 0 -59 17.333 -85 52
c-28.667 38 -45.334 127.333 -50.001 268l-4 -4c-5.33301 52.667 -8 114 -8 184c-0.666992 194.667 -56 294.667 -166 300c-133.333 0 -201 -137 -203 -411z" />
    <glyph glyph-name="n" unicode="n" horiz-adv-x="1026" 
d="M128 378c4.66699 -33.333 22.999 -98.666 54.999 -195.999c12 -38.667 18 -71.667 18 -99c0 -40.667 -14.333 -68.334 -43 -83.001c-15.333 -7.33301 -30 -11 -44 -11c-30.667 0 -59 17.333 -85 52c-35.333 46.667 -53 144.667 -53 294
c0 15.333 0.333008 31.666 1 48.999c1.33301 66 2 123.333 2 172c0 80 -2 135.333 -6 166c-2 14 -3 26.667 -3 38c0 58 23 88 69 90c46 0 81 -37.667 105 -113c82 101.333 185.667 159.333 311 174c118 0 202.667 -38 254 -114c43.333 -65.333 65 -172.666 65 -321.999
c0 -25.333 -0.666992 -51.666 -2 -78.999c-1.33301 -22.667 -2 -44 -2 -64c0 -148.667 29 -224.334 87 -227.001c40.667 0 76.834 25.167 108.501 75.5s49.834 130.833 54.501 241.5c0 38 12.333 57 37 57c31.333 0 47 -19.667 47 -59c0 -114 -25.833 -213 -77.5 -297
s-118.5 -126 -200.5 -126c-62 0.666992 -113.333 31.334 -154 92.001c-34 49.333 -51 146.666 -51 291.999c0 30.667 0.666992 63.667 2 99c0.666992 12.667 1 24.667 1 36c0 177.333 -67.667 268.333 -203 273c-152.667 -16.667 -250.334 -153.667 -293.001 -411z" />
    <glyph glyph-name="o" unicode="o" horiz-adv-x="1051" 
d="M697 387c2.66699 18 3.99902 37 3.99902 57c0 95.333 -27.667 176.5 -83 243.5s-122.333 100.5 -201 100.5c-74 -4 -111 -37 -111 -99c3.33301 -112 81 -199.667 233 -263c52.667 -20 105.334 -33 158.001 -39zM669.999 284
c-126.667 10.667 -232.333 44.999 -317 102.999c-98 66.667 -155.667 148.667 -173 246c-30.667 -55.333 -46 -118.333 -46 -189c0 -95.333 27.667 -176.666 83 -243.999s122 -101 200 -101c112 0 196.333 61.667 253 185zM966 423.999
c43.333 27.333 69.666 61.333 78.999 102c10.667 32.667 26.667 49 48 49c25.333 0 38 -14 38 -42c-0.666992 -51.333 -30 -104.833 -88 -160.5s-139.333 -86.167 -244 -91.5c-80.667 -198 -212.667 -297 -396 -297c-116.667 0 -216.167 45.333 -298.5 136
s-123.5 199.667 -123.5 327c0 128 41.167 237.333 123.5 328s181.833 136 298.5 136s216.334 -45.333 299.001 -136s124 -200 124 -328c0 -22 -1.33301 -43.333 -4 -64c52.667 0 100.667 13.667 144 41z" />
    <glyph glyph-name="p" unicode="p" horiz-adv-x="1075" 
d="M702 214c-90.667 45.333 -171 67.999 -241 67.999c-88 -3.33301 -132.667 -39 -134 -107c2.66699 -62 46.667 -95.667 132 -101c62.667 2.66699 115.667 17.834 159 45.501s71.333 59.167 84 94.5zM-36 623.999c0 146 35.665 221.334 106.998 226.001
c35.333 0 65 -29.667 89 -89c92.667 100 196.334 150 311.001 150c116.667 0 216.334 -45.333 299.001 -136s124 -200 124 -328c0 -55.333 -8 -107.333 -24 -156c5.33301 -0.666992 10.666 -1 15.999 -1c47.333 0 91 20 131 60s60.333 95.333 61 166c0 42 12 64 36 66
c22 0 35 -21.333 39 -64c0 -112 -28.333 -195.333 -85 -250s-127 -82 -211 -82c-11.333 0 -23 0.666992 -35 2c-64 -136 -187.667 -204 -371 -204c-146 9.33301 -220.333 72 -223 188c7.33301 142 91.333 213.667 252 215c72.667 0 157.667 -23 255 -69
c9.33301 26 14 62.667 14 110c-5.33301 106 -37.166 192.667 -95.499 260s-128.833 101 -211.5 101c-115.333 0 -206.333 -71.667 -273 -215c-8 -38.667 -12 -84 -12 -136c0 -110.667 18 -251.334 54 -422.001c52 -251.333 79.667 -452 83 -602c0 -102 -8 -175.5 -24 -220.5
s-46 -67.5 -90 -67.5c-40 4 -68.333 20.333 -85 49c-8 13.333 -12 30 -12 50c0 21.333 4.66699 46.666 14 75.999c18 55.333 27 119.333 27 192c-3.33301 212 -30.5 417.833 -81.5 617.5s-77.167 370.834 -78.5 513.501z" />
    <glyph glyph-name="q" unicode="q" horiz-adv-x="1226" 
d="M821 28c52 -356 116 -589.333 192 -700c40.667 -60 77.667 -90 111 -90c75.333 0 115.666 71.667 120.999 215c-5.33301 184 -107.333 362.333 -306 535c-41.333 4.66699 -80.666 18 -117.999 40zM630 613c-62 108.667 -140.332 162.999 -234.999 162.999
c-74.667 0 -138.5 -29.167 -191.5 -87.5s-79.5 -139.833 -79.5 -244.5c0 -92 26.5 -170.333 79.5 -235s116.833 -97 191.5 -97c121.333 0 209.666 84.333 264.999 253c-18 98.667 -28 181.334 -30 248.001zM1094 14.999c183.333 -162.667 275.331 -350.002 275.998 -562.002
c-13.333 -232.667 -93.333 -349 -240 -349c-112.667 2.66699 -214.667 104 -306 304c-74.667 172.667 -125.667 416.667 -153 732c-88 -104 -186.667 -156 -296 -156c-108.667 0 -201.667 45.333 -279 136s-116 199.667 -116 327c0 128 38.667 237.333 116 328
s170.333 136 279 136c102.667 0 191.334 -40.333 266.001 -121c9.33301 36.667 36 56.667 80 60c66.667 0 100 -59 100 -177c0 -27.333 -1.66699 -57.666 -5 -90.999c-6 -55.333 -9 -105.666 -9 -150.999c0 -98.667 14.333 -170.334 43 -215.001c42 -66 98.667 -99 170 -99
c54.667 0 100.5 24 137.5 72s55.5 108.333 55.5 181c4.66699 59.333 22 89 52 89c26 0 39 -19.667 39 -59c0 -43.333 -3 -81.333 -9 -114c-12 -84.667 -41.167 -149.667 -87.5 -195s-84.166 -70.666 -113.499 -75.999z" />
    <glyph glyph-name="r" unicode="r" horiz-adv-x="791" 
d="M591 104c0.666992 0 1.00195 0.333008 1.00195 1c47.333 0 90.166 25.167 128.499 75.5s59.833 130.833 64.5 241.5c0 38 12.333 57 37 57c31.333 0 47 -19.667 47 -59c0 -114 -25.833 -213 -77.5 -297s-125.167 -126 -220.5 -126
c-115.333 0.666992 -201 55.334 -257 164.001c-29.333 56.667 -44 122.334 -44 197.001c0 69.333 12.667 146.666 38 231.999c-56.667 -48 -121 -72 -193 -72c-104 8 -175 59.333 -213 154c-12 38 -18 72 -18 102c13.333 102.667 63.666 156.667 150.999 162
c81.333 -4.66699 125.333 -52.334 132 -143.001c0 -42 -13 -93 -39 -153c74.667 0 138.667 32.333 192 97c38.667 46.667 74 70 106 70c46.667 -3.33301 70 -29.666 70 -78.999c0 -26.667 -10.333 -62.334 -31 -107.001c-34.667 -84 -52 -167.667 -52 -251
c0 -30 2.33301 -60 7 -90c16.667 -113.333 73.667 -172 171 -176z" />
    <glyph glyph-name="s" unicode="s" horiz-adv-x="744" 
d="M213 181c6 -60 43 -91.667 111 -95c70 0 107.667 41 113 123c0 16 -2.66699 32.333 -8 49c-33.333 16 -64.333 24 -93 24c-82 -3.33301 -123 -37 -123 -101zM564 333c88.667 0 140.334 28.665 155.001 85.998s37.334 87 68.001 89c18.667 0 28 -16.667 28 -50
c-18.667 -156 -96.334 -237.667 -233.001 -245c-20.667 -163.333 -109 -245 -265 -245c-132 16 -201.333 83.667 -208 203c0 86.667 40.333 150 121 190c34 17.333 71 26 111 26c13.333 0 26.666 -1 39.999 -3c-33.333 26 -78.666 53 -135.999 81
c-157.333 75.333 -238.666 159.333 -243.999 252c0 64 18 111 54 141c33.333 28 70 42 110 42c60 -1.33301 103.333 -24.666 130 -69.999c9.33301 -18.667 14 -36 14 -52c0 -17.333 -5.66699 -32.666 -17 -45.999c-19.333 -23.333 -41 -35 -65 -35
c-34.667 0 -57.334 14 -68.001 42c-6.66699 18 -16.334 27 -29.001 27c-16.667 0 -25 -8.33301 -25 -25c6.66699 -62.667 78.5 -124.167 215.5 -184.5s218.167 -134.833 243.5 -223.5z" />
    <glyph glyph-name="t" unicode="t" horiz-adv-x="549" 
d="M218 927c-14.667 -136.667 -45.6641 -291.332 -92.9971 -463.999c6 -70 32.833 -144.333 80.5 -223s103.5 -121 167.5 -127c52 0 91 27.667 117 83s41 111 45 167c8 64 27.667 96 59 96c32.667 0 49 -29.667 49 -89c-4.66699 -94 -31.834 -179.667 -81.501 -257
s-118.834 -116 -207.501 -116c-61.333 0.666992 -122 26.167 -182 76.5s-112.5 131.5 -157.5 243.5s-77.5 294.333 -97.5 547c-14.667 -2 -28.334 -3 -41.001 -3c-34.667 0 -63 8 -85 24c-30.667 21.333 -46 51 -46 89l-1 1c0 37.333 17.667 66 53 86
c15.333 9.33301 32.666 14 51.999 14c23.333 0 49 -6.66699 77 -20c2.66699 287.333 56.334 432.666 161.001 435.999c93.333 0 140 -150.667 140 -452c210 138 359.667 207 449 207c56 0 87.333 -29.667 94 -89c0 -68 -42 -102 -126 -102c-102 0 -244 -42.667 -426 -128z
M58.0029 1015c18.667 -2 37.333 -2.99805 56 -2.99805c3.33301 67.333 5 121.666 5 162.999c-2 106.667 -9.33301 160 -22 160c-12.667 -6 -22.5 -37.833 -29.5 -95.5s-10.5 -107.834 -10.5 -150.501c0 -22 0.333008 -46.667 1 -74zM106.002 887.004
c-12.667 -3.33301 -26.333 -6.66699 -41 -10c4.66699 -74.667 11.667 -161 21 -259c8 101.333 14.667 191 20 269z" />
    <glyph glyph-name="u" unicode="u" horiz-adv-x="1074" 
d="M887 105c47.333 0 86.833 23.498 118.5 70.498s50.5 109.167 56.5 186.5c5.33301 64.667 24 97 56 97c30.667 0 46 -29.667 46 -89c0 -23.333 -3 -51.333 -9 -84c-18.667 -98 -54.334 -170.667 -107.001 -218s-106 -71 -160 -71h-2c-77.333 0 -141 26.667 -191 80
c-18.667 20 -36.667 48.333 -54 85l-32 -38c-0.666992 0.666992 -1 1.33398 -1 2.00098c-63.333 -71.333 -127.333 -114.666 -192 -129.999c-33.333 -8 -65.333 -12 -96 -12c-48.667 0 -95 10 -139 30c-72.667 32 -125 89 -157 171c-32.667 82 -49.667 168.833 -51 260.5
s-10.666 176.5 -27.999 254.5c-9.33301 28.667 -14 53 -14 73c0 33.333 12.667 55.666 38 66.999c14.667 6.66699 29 10 43 10c24.667 0 47.667 -10.667 69 -32c32.667 -34 51 -86.667 55 -158c1.33301 -20 2 -40 2 -60c0 -53.333 -4 -108 -12 -164
c-2.66699 -21.333 -4 -42 -4 -62c0 -52.667 10.333 -100 31 -142c40 -80 103.333 -120 190 -120l1 -1c86 0 150.333 37 193 111c12.667 22 23.5 53.5 32.5 94.5s13.5 75.5 13.5 103.5c0 86 -6 168.333 -18 247c-4 24.667 -6 47 -6 67c0 62.667 19.333 99.667 58 111
c11.333 3.33301 22 5 32 5c35.333 0 62 -20.667 80 -62c15.333 -36.667 23 -81.667 23 -135c0 -24.667 -1.66699 -51 -5 -79c-5.33301 -37.333 -8 -78.666 -8 -123.999c0 -51.333 3.33301 -108 10 -170c12 -116.667 58 -175 138 -175z" />
    <glyph glyph-name="v" unicode="v" horiz-adv-x="957" 
d="M645 452c21.333 28 31.999 80.334 31.999 157.001c-3.33301 93.333 -34.666 140 -93.999 140c-53.333 0 -80 -32.333 -80 -97c0 -72.667 47.333 -139.334 142 -200.001zM736.999 397.001c15.333 -6 30.999 -9 46.999 -9c29.333 0 59.5 9.33301 90.5 28
s51.167 44.667 60.5 78s24.333 51 45 53c22 0 33 -12.333 33 -37c0 -54.667 -26.333 -106.167 -79 -154.5s-112 -72.5 -178 -72.5c-27.333 0 -55.666 4.66699 -84.999 14c-29.333 -50 -97.666 -148.333 -204.999 -295c-18.667 -25.333 -38.334 -38 -59.001 -38
c-9.33301 0 -19 3 -29 9c-24 13.333 -36 29.333 -36 48c0 6 1.66699 14.667 5 26c0 27.333 -70.5 95.166 -211.5 203.499s-211.5 239.166 -211.5 392.499c0 57.333 11.333 107.333 34 150c20 38 47.333 57 82 57c60 -0.666992 90 -33.667 90 -99
c0 -19.333 -2.66699 -42 -8 -68c-7.33301 -32 -11 -62.667 -11 -92c1.33301 -131.333 106 -281.333 314 -450c60 64.667 111.333 131.334 154 200.001c-145.333 74 -219.666 179.667 -222.999 317c0 42 11.333 80 34 114c41.333 61.333 101.666 92 180.999 92
c143.333 -2.66699 218 -82 224 -238c-0.666992 -87.333 -20 -163.666 -58 -228.999z" />
    <glyph glyph-name="w" unicode="w" horiz-adv-x="1247" 
d="M935 452c21.333 48 31.999 103.668 31.999 167.001c-3.33301 86.667 -34.666 130 -93.999 130c-53.333 0 -80 -32.333 -80 -97c0 -72.667 47.333 -139.334 142 -200.001zM543.999 212.001c-22 -53.333 -64.6641 -123.332 -127.997 -209.999
c-18.667 -25.333 -38.334 -38 -59.001 -38c-9.33301 0 -19 3 -29 9c-24 13.333 -36 29.333 -36 48c0 6 1.66699 14.667 5 26c0 27.333 -62.167 95.166 -186.5 203.499s-186.5 239.166 -186.5 392.499c0 57.333 11.333 107.333 34 150c20 38 47.333 57 82 57
c60 -0.666992 90 -33.667 90 -99c0 -19.333 -2.66699 -42 -8 -68c-7.33301 -32 -11 -62.667 -11 -92c1.33301 -131.333 89.333 -281.333 264 -450c42.667 46 73 93 91 141c-101.333 102 -152 222.333 -152 361c0 57.333 11.333 107.333 34 150c20 38 47.333 57 82 57
c60 -0.666992 90 -33.667 90 -99c0 -19.333 -2.66699 -42 -8 -68c-7.33301 -32 -11 -62.667 -11 -92c1.33301 -131.333 89.333 -281.333 264 -450c46.667 64.667 88 131.334 124 200.001c-158.667 74 -239.667 179.667 -243 317c0 42 11.333 80 34 114
c41.333 61.333 101.666 92 180.999 92c143.333 -2.66699 218 -78.667 224 -228c-0.666992 -74 -20 -153.667 -58 -239c15.333 -6 31 -9 47 -9c29.333 0 59.5 9.33301 90.5 28s51.167 44.667 60.5 78s24.333 51 45 53c22 0 33 -12.333 33 -37
c0 -54.667 -26.333 -106.167 -79 -154.5s-112 -72.5 -178 -72.5c-27.333 0 -49 4.66699 -65 14c-22.667 -50 -81 -148.333 -175 -295c-18.667 -25.333 -38.334 -38 -59.001 -38c-9.33301 0 -19 3 -29 9c-24 13.333 -36 29.333 -36 48c0 6 1.66699 14.667 5 26
c0 24 -47.667 79 -143 165z" />
    <glyph glyph-name="x" unicode="x" horiz-adv-x="858" 
d="M152 -41c-52 0.666992 -79.334 26.0039 -82.001 76.0039c-0.666992 2 -1 4 -1 6c0 47.333 33.667 87.666 101 120.999c50.667 31.333 93.334 82 128.001 152c-34 39.333 -69.5 89 -106.5 149s-79.333 96.167 -127 108.5s-84.334 31.333 -110.001 57
s-38.5 56.5 -38.5 92.5s12.833 66.833 38.5 92.5s56.5 38.5 92.5 38.5c30 0 63.667 -13.667 101 -41s74.5 -83.833 111.5 -169.5s79.5 -160.834 127.5 -225.501c56 107.333 93 207.666 111 300.999s48 142 90 146h9c36.667 0 57.667 -21.667 63 -65
c0.666992 -4.66699 1 -9.33398 1 -14.001c0 -48.667 -26.333 -127.334 -79 -236.001c-41.333 -85.333 -88.333 -164.333 -141 -237c99.333 -134.667 174.333 -202 225 -202h3c58 2 102.667 32.667 134 92s47.333 122 48 188c0 54 11.333 81 34 81
c5.33301 0 11 -1.33301 17 -4c23.333 -10 35 -36.667 35 -80c0 -20 -2.33301 -43 -7 -69c-15.333 -84.667 -43.666 -156.667 -84.999 -216s-88.333 -93.333 -141 -102c-16 -2.66699 -32 -4 -48 -4c-38 0 -76.667 7 -116 21c-48.667 16.667 -110.667 83.334 -186 200.001
c-82.667 -171.333 -150 -257 -202 -257z" />
    <glyph glyph-name="y" unicode="y" horiz-adv-x="1020" 
d="M309 -605c0.666992 -135.333 92.333 -202.999 275 -202.999c170 6 258 107 264 303c0 117.333 -47.333 254.666 -142 411.999c-260 -168 -392.333 -338.667 -397 -512zM607.999 126.001c-63.333 -71.333 -127.336 -114.666 -192.003 -129.999
c-33.333 -8 -65.333 -12 -96 -12c-48.667 0 -95 10 -139 30c-72.667 32 -125 89 -157 171c-32.667 82 -49.667 168.833 -51 260.5s-10.666 176.5 -27.999 254.5c-9.33301 28.667 -14 53 -14 73c0 33.333 12.667 55.666 38 66.999c14.667 6.66699 29 10 43 10
c24.667 0 47.667 -10.667 69 -32c32.667 -34 51 -86.667 55 -158c1.33301 -20 2 -40 2 -60c0 -53.333 -4 -108 -12 -164c-2.66699 -21.333 -4 -42 -4 -62c0 -52.667 10.333 -100 31 -142c40 -80 103.333 -120 190 -120l1 -1c86 0 150.333 37 193 111
c12.667 22 23.5 53.5 32.5 94.5s13.5 75.5 13.5 103.5c0 86 -6 168.333 -18 247c-4 24.667 -6 47 -6 67c0 62.667 19.333 99.667 58 111c11.333 3.33301 22 5 32 5c35.333 0 62 -20.667 80 -62c15.333 -36.667 23 -81.667 23 -135c0 -24.667 -1.66699 -51 -5 -79
c-7.33301 -56 -12.333 -121.667 -15 -197c0 -108 15 -203.667 45 -287c72 42.667 129.667 91 173 145s65.833 115.667 67.5 185s15.834 104.333 42.501 105c33.333 0 50 -26.667 50 -80c0 -88.667 -20.5 -169.5 -61.5 -242.5s-114.167 -143.5 -219.5 -211.5
c106 -198 159 -363.333 159 -496c-1.33301 -274.667 -129 -414 -383 -418c-275.333 2.66699 -413.333 109.667 -414 321c0.666992 215.333 153.334 418.333 458.001 609c-20 38 -31.833 67.167 -35.5 87.5s-5.5 30.833 -5.5 31.5z" />
    <glyph glyph-name="z" unicode="z" horiz-adv-x="824" 
d="M301 -370c-27.333 -56.667 -41 -114.666 -41 -173.999c0 -35.333 4.66699 -71 14 -107c25.333 -98 85.666 -147 180.999 -147c0 -0.666992 0.333008 -1 1 -1c94.667 0 158.334 68 191.001 204c6.66699 28.667 10 58.667 10 90c0 117.333 -47.333 254.666 -142 411.999
c-100 -94.667 -171.333 -187 -214 -277zM533 660.001c-79.333 -59.333 -159.666 -91.6611 -240.999 -96.9941c-36.667 -2.66699 -69.667 -4 -99 -4c-54.667 0 -97.334 4.33301 -128.001 13c-48 12 -84.833 30.833 -110.5 56.5s-38.5 56.5 -38.5 92.5
s12.833 66.833 38.5 92.5s56.5 38.5 92.5 38.5c30 0 63.667 -13.667 101 -41s108 -50.333 212 -69c22.667 -4 45.667 -6 69 -6c42 0 84.667 6.66699 128 20c18.667 68 45.667 103.667 81 107h9c36.667 0 57.667 -21.667 63 -65c0.666992 -4.66699 1 -9.33398 1 -14.001
c0 -48.667 -26.333 -127.334 -79 -236.001c-40.667 -83.333 -115.667 -193.333 -225 -330c20 -10.667 40.667 -24.334 62 -41.001c34.667 -28 67 -60.667 97 -98c94.667 76 155.667 131.333 183 166c36.667 47.333 56.667 105.666 60 174.999s18.333 104.333 45 105h1
c34 0 51 -28.667 51 -86c0 -9.33301 -0.333008 -19.333 -1 -30c-6.66699 -78 -26.5 -150.167 -59.5 -216.5s-102.167 -133.5 -207.5 -201.5c10.667 -22.667 41.334 -80.667 92.001 -174c44.667 -82 67 -182.667 67 -302c0 -16 -0.333008 -32.667 -1 -50
c-7.33301 -141.333 -54.333 -246 -141 -314c-55.333 -43.333 -118.333 -65 -189 -65c-21.333 0 -43.333 2 -66 6c-98.667 16.667 -173.334 69.334 -224.001 158.001c-29.333 51.333 -44 111.666 -44 180.999c0 50 7.66699 104.667 23 164c36 142 135 274 297 396
c0 0.666992 0.333008 1 1 1c-45.333 46.667 -93.333 70 -144 70c-17.333 0 -35.333 -3 -54 -9c-42 -36 -76.333 -54 -103 -54c-52 0.666992 -79.333 26 -82 76c-0.666992 2 -1 4 -1 6c0 47.333 33.667 87.666 101 120.999c69.333 34.667 145.333 106 228 214
c65.333 85.333 110.333 166.666 135 243.999z" />
    <glyph glyph-name="braceleft" unicode="{" horiz-adv-x="867" 
d="M306 526c37.333 -40 62.3311 -95.335 74.998 -166.002c4.66699 -26.667 7 -53.667 7 -81c0 -79.333 -21 -160.333 -63 -243c-32 -63.333 -48 -118.333 -48 -165c0 -35.333 9.33301 -65.666 28 -90.999c41.333 -56 92.666 -84 153.999 -84h8
c40.667 1.33301 74.667 11.166 102 29.499s59.333 27.5 96 27.5c40.667 0 75.334 -14.167 104.001 -42.5s43 -62.833 43 -103.5s-14.333 -75 -43 -103c-25.333 -25.333 -68.333 -41.666 -129 -48.999c-11.333 -2 -23.333 -3 -36 -3c-54.667 0 -121.667 13.667 -201 41
c-126.667 47.333 -206 138 -238 272c-11.333 46.667 -17 91 -17 133c0 76.667 19.333 144.334 58 203.001c39.333 60.667 59 116.334 59 167.001c0 25.333 -5 49.666 -15 72.999c-21.333 50.667 -51.666 84 -90.999 100c-38 14.667 -57 44.334 -57 89.001
c0 2 0.333008 4 1 6c1.33301 48 20.833 76.5 58.5 85.5s67.167 38.833 88.5 89.5c10 23.333 15 47.666 15 72.999c0 50.667 -19.667 106.334 -59 167.001c-38.667 58.667 -58 126.334 -58 203.001c0 42 5.66699 86.667 17 134c32 133.333 111.333 223.666 238 270.999
c80 27.333 147.333 41 202 41c12.667 0 24.334 -0.666992 35.001 -2c60.667 -7.33301 103.667 -23.666 129 -48.999c28.667 -28.667 43 -63.334 43 -104.001s-14.333 -75.167 -43 -103.5s-63.334 -42.5 -104.001 -42.5c-36.667 0 -68.667 9.16699 -96 27.5
s-61.333 28.166 -102 29.499h-8c-61.333 0 -112.666 -28 -153.999 -84c-18.667 -25.333 -28 -55.666 -28 -90.999c0 -46.667 16 -101.334 48 -164.001c42 -83.333 63 -164.666 63 -243.999c0 -26.667 -2.33301 -53.334 -7 -80.001c-12.667 -71.333 -37.667 -127 -75 -167z
" />
    <glyph glyph-name="bar" unicode="|" horiz-adv-x="1014" 
d="M412 780c27.333 314 41.001 552.668 41.001 716.001c0 108 -6 183.667 -18 227c-30 108 -51.667 183.333 -65 226c-4.66699 13.333 -7 25.666 -7 36.999c0 24.667 10.333 45 31 61c14 10.667 29.333 16 46 16c18 0 37.333 -6.33301 58 -19
c39.333 -25.333 65 -110.333 77 -255c2.66699 -30 4 -68 4 -114c0 -174.667 -18 -466.334 -54 -875.001c-28 -320.667 -42 -561 -42 -721c0 -99.333 5.33301 -168.333 16 -207c30 -107.333 52 -182 66 -224c4 -14 6 -26.667 6 -38c0 -24.667 -10 -44.667 -30 -60
c-14.667 -11.333 -30.334 -17 -47.001 -17c-18 0 -37 6.66699 -57 20c-40 24.667 -66 109.334 -78 254.001c-2 24 -3 55.333 -3 94c0 164 18.667 457 56 879z" />
    <glyph glyph-name="braceright" unicode="}" horiz-adv-x="867" 
d="M486 693c-4.66699 26.667 -7.00195 53.3359 -7.00195 80.0029c0 79.333 21 160.666 63 243.999c32 62.667 48 117.334 48 164.001c0 35.333 -9.33301 65.666 -28 90.999c-41.333 56 -92.666 84 -153.999 84h-8c-40.667 -1.33301 -74.667 -11.166 -102 -29.499
s-59.333 -27.5 -96 -27.5c-40.667 0 -75.334 14.167 -104.001 42.5s-43 62.833 -43 103.5s14.333 75.334 43 104.001c25.333 25.333 68.333 41.666 129 48.999c10.667 1.33301 22.334 2 35.001 2c54.667 0 122 -13.667 202 -41c126.667 -47.333 206 -137.666 238 -270.999
c11.333 -47.333 17 -92 17 -134c0 -76.667 -19 -144.334 -57 -203.001c-40 -60.667 -60 -116.334 -60 -167.001c0 -25.333 5 -49.666 15 -72.999c21.333 -50.667 50.833 -80.5 88.5 -89.5s57.5 -37.5 59.5 -85.5v-6c0 -44.667 -19 -74.334 -57 -89.001
c-39.333 -16 -69.666 -49.333 -90.999 -100c-10 -23.333 -15 -47.666 -15 -72.999c0 -50.667 20 -106.334 60 -167.001c38 -58.667 57 -126.334 57 -203.001c0 -42 -5.66699 -86.333 -17 -133c-32 -134 -111.333 -224.667 -238 -272c-79.333 -27.333 -146.333 -41 -201 -41
c-12.667 0 -24.667 1 -36 3c-60.667 7.33301 -103.667 23.666 -129 48.999c-28.667 28 -43 62.333 -43 103s14.333 75.167 43 103.5s63.334 42.5 104.001 42.5c36.667 0 68.667 -9.16699 96 -27.5s61.333 -28.166 102 -29.499h8c61.333 0 112.666 28 153.999 84
c18.667 25.333 28 55.666 28 90.999c0 46.667 -16 101.667 -48 165c-42 82.667 -63 163.667 -63 243c0 27.333 2.33301 54.333 7 81c13.333 70.667 38.333 126 75 166c-36.667 40 -61.667 95.667 -75 167z" />
    <glyph glyph-name="asciitilde" unicode="~" horiz-adv-x="919" 
d="M569 311c5.33301 -1.33301 10.3311 -2 14.998 -2c28.667 0 49 16 61 48c14 36.667 38.333 61 73 73c11.333 4 22.333 6 33 6c22.667 0 44.667 -8.66699 66 -26c16.667 -13.333 25 -31 25 -53c0 -20 -7 -43.667 -21 -71c-28.667 -58 -78.667 -91.333 -150 -100
c-12.667 -2 -24.667 -3 -36 -3c-56.667 0 -106.667 18 -150 54c-53.333 42.667 -98.333 69 -135 79c-7.33301 2 -14.333 3 -21 3c-25.333 0 -43.666 -14.667 -54.999 -44c-14 -37.333 -38.333 -62 -73 -74c-11.333 -4 -22.333 -6 -33 -6c-22.667 0 -44.667 8.66699 -66 26
c-16.667 13.333 -25 31 -25 53c0 20 7 44 21 72c28.667 57.333 78.667 87.333 150 90h12c66 0 124.333 -18.667 175 -56c52.667 -40 97.334 -63 134.001 -69z" />
    <glyph glyph-name="exclamdown" unicode="&#xa1;" horiz-adv-x="449" 
d="M251 1246c-22 -12.667 -43 -18.998 -63 -18.998c-14 0 -27.333 3 -40 9c-30.667 14 -49.667 42 -57 84c-2.66699 11.333 -4 22.666 -4 33.999c0 31.333 7.66699 63 23 95c20.667 44.667 48.334 78 83.001 100c20 12.667 39.667 19 59 19c14 0 28.333 -3 43 -9
c33.333 -16 54 -44.667 62 -86c2 -12 3 -23.667 3 -35c0 -30.667 -7.66699 -62.334 -23 -95.001c-20.667 -44 -49.334 -76.333 -86.001 -97zM267 990.002c-5.33301 -23.333 -8 -54.001 -8 -92.001c0 -54 5.66699 -123.667 17 -209c18.667 -144.667 35.334 -301 50.001 -469
c5.33301 -64.667 8 -122 8 -172c0 -80 -7 -141.333 -21 -184c-18.667 -56 -46.667 -84 -84 -84c-9.33301 0 -19 2 -29 6c-38.667 12.667 -58 59.334 -58 140.001c0 29.333 2.66699 63.333 8 102c9.33301 74.667 14 154 14 238c0 78 -4 160 -12 246
c-14.667 148 -22 269.333 -22 364c0 19.333 0.333008 38 1 56c3.33301 98 28.666 147 75.999 147h5c39.333 -2.66699 59 -21.667 59 -57c0 -9.33301 -1.33301 -20 -4 -32z" />
    <glyph glyph-name="cent" unicode="&#xa2;" horiz-adv-x="1200" 
d="M687 1168l6.00098 23.998c16 68 24 124 24 168c0 35.333 -5 62.666 -15 81.999c-8 16 -12 31.333 -12 46c0 26 12.333 49.667 37 71c19.333 16.667 39 25 59 25c20.667 0 42 -8.66699 64 -26c39.333 -31.333 59 -63.666 59 -96.999
c0 -3.33301 -0.333008 -6.66602 -1 -9.99902c-4.66699 -37.333 -30.334 -120.333 -77.001 -249l-52 -144c11.333 -30.667 17 -60.334 17 -89.001c0 -32 -7 -62.667 -21 -92c-25.333 -54.667 -60 -82 -104 -82h-5c-46.667 2 -76.667 20.333 -90 55
c-4.66699 12 -7 23.667 -7 35c0 20.667 8 40 24 58c20.667 24.667 31 49 31 73v12c-4 28 -21.333 48.333 -52 61c-8.66699 2.66699 -18.334 4 -29.001 4c-29.333 0 -68 -12 -116 -36c-66 -34 -109.667 -105.333 -131 -214c-6.66699 -32 -10 -63 -10 -93
c0 -72 18.667 -139 56 -201c52 -87.333 126.333 -138.666 223 -153.999c24 -4 47.667 -6 71 -6c66 0 124.667 16.667 176 50c68 44.667 116.667 93.334 146 146.001c21.333 39.333 42 59 62 59c6.66699 0 13.334 -2 20.001 -6c10 -6.66699 15 -17.334 15 -32.001
c0 -22 -12.333 -53.333 -37 -94c-40.667 -67.333 -105 -129 -193 -185c-74.667 -47.333 -158 -71 -250 -71c-18 0 -36 1 -54 3c-15.333 -61.333 -23 -126.666 -23 -195.999c0 -9.33301 0.333008 -18.666 1 -27.999v-11c0 -72.667 -22.667 -110.334 -68 -113.001
c-2.66699 -0.666992 -5.66699 -1 -9 -1c-42 0 -70.333 21.667 -85 65c-3.33301 9.33301 -5 21.666 -5 36.999c0 57.333 23 154.666 69 291.999c-52 15.333 -105.167 55.833 -159.5 121.5s-85.5 153.834 -93.5 264.501c-1.33301 17.333 -2 34.333 -2 51
c0 90.667 19.333 175.334 58 254.001c45.333 92.667 107.666 155.667 186.999 189c44.667 18.667 89.334 28 134.001 28c33.333 0 67 -5.33301 101 -16c22.667 -8 43 -17.333 61 -28z" />
    <glyph glyph-name="sterling" unicode="&#xa3;" horiz-adv-x="1000" 
d="M309 467c14 -0.666992 27.332 -0.996094 39.999 -0.996094c58.667 0 100 7.66699 124 23c16 10 31.667 15 47 15c18.667 0 36.667 -7.66699 54 -23c16 -14.667 24 -30.667 24 -48c0 -16 -7 -33.333 -21 -52c-19.333 -24.667 -56.333 -37 -111 -37
c-29.333 0 -64.333 3.66699 -105 11l-25 4c10 -54.667 15 -107.334 15 -158.001v-9c8.66699 0.666992 17.334 1 26.001 1c62.667 0 121.667 -15.333 177 -46c46 -25.333 86.333 -38 121 -38c13.333 0 25.666 1.66699 36.999 5c36.667 11.333 55 30.333 55 57
c0 4 -0.333008 8.33301 -1 13c-1.33301 6 -2 12.333 -2 19c0 25.333 10.333 47 31 65c18.667 16.667 40.334 25 65.001 25c8.66699 0 18 -1 28 -3c36.667 -8.66699 61.334 -30.334 74.001 -65.001c4.66699 -12.667 7 -26.334 7 -41.001c0 -26 -7.33301 -55.333 -22 -88
c-22.667 -52 -81 -85.333 -175 -100c-24.667 -4 -48 -6 -70 -6c-62.667 0 -115 15.333 -157 46c-54 38.667 -100 58 -138 58h-8c-40 -3.33301 -65 -21 -75 -53c-10 -31.333 -32.333 -47 -67 -47h-2c-36 0.666992 -60.333 18.334 -73 53.001
c-3.33301 9.33301 -5 18.666 -5 27.999c0 26.667 13.333 55.334 40 86.001c0.666992 15.333 1 30.333 1 45c0 54.667 -4.66699 110 -14 166c-36 0 -64.667 -3.66699 -86 -11c-19.333 -6.66699 -36 -10 -50 -10c-21.333 0 -37.333 7 -48 21c-8 10 -12 20.333 -12 31
c0 14.667 7 30 21 46c16 19.333 55 29 117 29c10.667 0 22.334 -0.333008 35.001 -1c-11.333 40.667 -25 81.334 -41 122.001c-40.667 102.667 -61 200.334 -61 293.001c0 42 4 83 12 123c26.667 128.667 91 221.667 193 279c78 44 160.667 66 248 66
c26 0 52.333 -1.66699 79 -5c116.667 -17.333 206.167 -58.333 268.5 -123s98.833 -135 109.5 -211c2 -18 3 -35.333 3 -52c0 -57.333 -13.333 -112 -40 -164c-35.333 -68 -83 -119.333 -143 -154c-40 -24 -83.333 -36 -130 -36c-23.333 0 -47.333 3 -72 9
c-74.667 17.333 -128.334 55.666 -161.001 114.999c-20 36 -30 71 -30 105c0 21.333 4 42.333 12 63c20.667 53.333 54 83.666 100 90.999c8 0.666992 16 1 24 1c35.333 0 64.666 -13 87.999 -39c18.667 -21.333 28 -45 28 -71c0 -13.333 -2.66699 -27.333 -8 -42
c-4.66699 -14 -7 -26.667 -7 -38c0 -22.667 11 -38.334 33 -47.001c7.33301 -4 15.666 -6 24.999 -6c26.667 0 57.334 16 92.001 48c45.333 41.333 69.333 92.333 72 153v9c0 57.333 -25.667 113.333 -77 168c-54 57.333 -124 91.333 -210 102c-16 1.33301 -32 2 -48 2
c-68.667 0 -135 -17.667 -199 -53c-78.667 -44.667 -121.667 -127.334 -129 -248.001c-1.33301 -16 -2 -31.667 -2 -47c0 -106 22.333 -216 67 -330c12 -31.333 22.667 -62.333 32 -93z" />
    <glyph glyph-name="currency" unicode="&#xa4;" horiz-adv-x="954" 
d="M478 795c-56.667 0 -105 -23.833 -145 -71.5s-60 -105.5 -60 -173.5s20 -125.833 60 -173.5s88.333 -71.5 145 -71.5c56 0 104 23.833 144 71.5s60 105.5 60 173.5s-20 125.833 -60 173.5s-88 71.5 -144 71.5zM267 262c-20 -20.667 -32.0029 -35.3311 -36.0029 -43.998
c-3.33301 -8 -7 -16.333 -11 -25l-4 -10c-24.667 -53.333 -53 -80 -85 -80c-7.33301 0 -15.333 1.66699 -24 5c-2.66699 0.666992 -5.66699 1.66699 -9 3c-34 15.333 -51 42 -51 80c0 4.66699 0.333008 9.33398 1 14.001c0.666992 10 4.33398 21.667 11.001 35
c8.66699 20 50.334 65.667 125.001 137c-24 52 -36 109.667 -36 173s12 120.666 36 171.999c-74.667 71.333 -116.667 117 -126 137c-6 14 -9.33301 26 -10 36c-0.666992 4.66699 -1 9.33398 -1 14.001c0 38 17 64.667 51 80c3.33301 1.33301 6.33301 2.33301 9 3
c8.66699 3.33301 16.667 5 24 5c32 0 60.333 -26.667 85 -80l4 -10c3.33301 -8.66699 7 -17 11 -25c4 -8.66699 15.667 -23.334 35 -44.001c59.333 56.667 128.666 85 207.999 85c80.667 -2 152.667 -30 216 -84c19.333 20 30.666 34.333 33.999 43
c4.66699 8 8.33398 16.333 11.001 25l4 10c24.667 53.333 53 80 85 80c7.33301 0 15.333 -1.66699 24 -5c2.66699 -0.666992 5.66699 -1.66699 9 -3c34 -15.333 51 -42 51 -80c0 -4.66699 -0.333008 -9.33398 -1 -14.001c-0.666992 -10 -4 -22 -10 -36
c-8.66699 -19.333 -48.667 -63 -120 -131c18 -39.333 28 -83.333 30 -132c-3.33301 -82 -17.666 -152.667 -42.999 -212c79.333 -75.333 123.333 -123.333 132 -144c6.66699 -13.333 10.334 -25 11.001 -35c0.666992 -4.66699 1 -9.33398 1 -14.001
c0 -38 -17 -64.667 -51 -80c-3.33301 -1.33301 -6.33301 -2.33301 -9 -3c-8.66699 -3.33301 -16.667 -5 -24 -5c-32 0 -60.333 26.667 -85 80l-4 10c-3.33301 8.66699 -7 17 -11 25c-4 9.33301 -17.333 25.333 -40 48c-59.333 -59.333 -129.333 -89 -210 -89
c-79.333 0 -148.333 28.333 -207 85z" />
    <glyph glyph-name="yen" unicode="&#xa5;" horiz-adv-x="1000" 
d="M388 709l-10.0039 23.999c-65.333 120.667 -130.5 214.667 -195.5 282s-119.167 113 -162.5 137c-38 20 -57 48 -57 84c0 5.33301 0.333008 11 1 17c6.66699 44 35.667 71.333 87 82c4 0.666992 8.33301 1 13 1c49.333 0 112.666 -49.667 189.999 -149
c84.667 -109.333 160 -235 226 -377l20 -54l20 54c66.667 142 142.334 267.667 227.001 377c76.667 99.333 139.667 149 189 149c4.66699 0 9.33398 -0.333008 14.001 -1c50.667 -10.667 79.334 -38 86.001 -82c0.666992 -6 1 -11.667 1 -17c0 -36 -18.667 -64 -56 -84
c-44 -24 -98.5 -69.667 -163.5 -137s-130.167 -161.333 -195.5 -282c-4.66699 -10.667 -9 -21.667 -13 -33c39.333 4 68.666 12 87.999 24s38 18 56 18c20.667 0 40.334 -8.33301 59.001 -25c16.667 -16 25 -33.333 25 -52s-7.66699 -38 -23 -58
c-20.667 -27.333 -61.667 -41 -123 -41c-34.667 0 -76 4.33301 -124 13h-2c-2.66699 -6.66699 -5 -13.334 -7 -20.001c7.33301 -41.333 14 -81.666 20 -120.999c54.667 2 94.334 10.667 119.001 26c19.333 12 38 18 56 18c20.667 0 40.334 -8.33301 59.001 -25
c16.667 -16 25 -33.333 25 -52c0 -18 -7.66699 -37.333 -23 -58c-20.667 -27.333 -62.334 -41 -125.001 -41c-27.333 0 -58.666 2.66699 -93.999 8l2 -22c6.66699 -30.667 10 -60.667 10 -90c0 -40 -6 -78.667 -18 -116c-18 -53.333 -43.667 -80 -77 -80
c-8 0 -16.333 1.66699 -25 5c-35.333 11.333 -53 37.333 -53 78c0 12.667 1.66699 27 5 43c12 52 18 107.667 18 167c0 12 -0.333008 23.667 -1 35c-29.333 3.33301 -55.666 5 -78.999 5c-38 0 -68.333 -4 -91 -12c-23.333 -8 -43.666 -12 -60.999 -12
c-22.667 0 -39.334 7.33301 -50.001 22c-8.66699 10.667 -13 21.667 -13 33c0 16 7.66699 33 23 51c18 21.333 62 32 132 32c32 0 69.333 -2.33301 112 -7c7.33301 -1.33301 14.666 -2.33301 21.999 -3c-3.33301 46 -8 90.667 -14 134c-2 6.66699 -4.33301 13.334 -7 20.001
c-17.333 1.33301 -33.333 2 -48 2c-40 0 -72 -4 -96 -12c-23.333 -8 -43.666 -12 -60.999 -12c-22.667 0 -39.334 7.33301 -50.001 22c-8.66699 10 -13 21 -13 33c0 16 7.66699 33 23 51c18 20.667 61.333 31 130 31c22 0 46.333 -1 73 -3z" />
    <glyph glyph-name="brokenbar" unicode="&#xa6;" horiz-adv-x="1014" 
d="M417 1430c7.33301 41.333 10.999 85.3301 10.999 131.997c0 50.667 -4.33301 104.334 -13 161.001c-17.333 108 -32.666 183.333 -45.999 226c-4 12.667 -6 24.667 -6 36c0 25.333 10 46 30 62c14 10.667 29.333 16 46 16c18 0 37.333 -6.33301 58 -19
c40 -25.333 66 -110.333 78 -255c-15.333 -142 -25.333 -263.667 -30 -365c-0.666992 -20 -1 -39.333 -1 -58c0 -73.333 7.33301 -131.333 22 -174c18.667 -54 34.667 -102 48 -144c4 -13.333 6 -25.666 6 -36.999c0 -25.333 -10 -45.666 -30 -60.999
c-14 -11.333 -29.333 -17 -46 -17c-18 0 -37.333 6.66699 -58 20c-40 24.667 -65.333 88.667 -76 192c-4.66699 42 -7 83 -7 123c0 56.667 4.66699 110.667 14 162zM416.999 29.9971c7.33301 41.333 10.999 85.3301 10.999 131.997c0 50.667 -4.33301 104.334 -13 161.001
c-17.333 108 -32.666 183.333 -45.999 226c-4 12.667 -6 24.667 -6 36c0 25.333 10 46 30 62c14 10.667 29.333 16 46 16c18 0 37.333 -6.33301 58 -19c40 -25.333 66 -110.333 78 -255c-15.333 -142 -27 -268 -35 -378c-2 -29.333 -3 -56.333 -3 -81
c0 -68 8 -118.333 24 -151c22 -45.333 39.667 -89 53 -131c4 -13.333 6 -25.666 6 -36.999c0 -25.333 -10 -45.666 -30 -60.999c-14 -11.333 -29.333 -17 -46 -17c-18 0 -37.333 6.66699 -58 20c-40 24.667 -65.333 88.667 -76 192c-4.66699 42 -7 83 -7 123
c0 56.667 4.66699 110.667 14 162z" />
    <glyph glyph-name="section" unicode="&#xa7;" horiz-adv-x="1775" 
d="M1564 221c30.667 -49.333 52.333 -103.666 65 -162.999c8 -38 12 -75.333 12 -112c0 -103.333 -32.333 -199 -97 -287c-87.333 -119.333 -231 -195.666 -431 -228.999c-70 -11.333 -137.333 -17 -202 -17c-120.667 0 -232.667 20.333 -336 61
c-159.333 62 -264 157.667 -314 287c-18.667 47.333 -28 94.333 -28 141c0 79.333 27 157 81 233c84.667 120.667 194.334 188 329.001 202c26.667 2.66699 53 4 79 4c102 0 192.333 -22 271 -66c98 -54.667 163 -128 195 -220c14.667 -42.667 22 -83.667 22 -123
c0 -45.333 -9.66699 -88 -29 -128c-36.667 -76 -86 -118.333 -148 -127c-12.667 -2 -24.667 -3 -36 -3c-44.667 0 -79.667 14.667 -105 44c-22 25.333 -33 52.666 -33 81.999c0 11.333 1.66699 23 5 35c12.667 42 35 79 67 111c20 20 30 46.333 30 79
c0 18.667 -3.33301 39.667 -10 63c-18.667 62 -83 101 -193 117c-18.667 2.66699 -36.667 4 -54 4c-89.333 0 -171 -33.667 -245 -101c-59.333 -54.667 -89 -117.334 -89 -188.001c0 -34.667 7 -71 21 -109c43.333 -117.333 136.333 -197 279 -239c86 -26 173 -39 261 -39
c58.667 0 118 5.66699 178 17c149.333 28 256.666 86.667 321.999 176c46 62.667 69 133 69 211c0 33.333 -4 68 -12 104c-28 120 -102.5 211.167 -223.5 273.5s-298 125.833 -531 190.5s-387 128 -462 190s-119.167 145.333 -132.5 250c-3.33301 22 -5 44.667 -5 68
c0 84.667 19.667 174 59 268l18 -8c-30.667 49.333 -52.334 104 -65.001 164c-8 38 -12 75 -12 111c0 103.333 32.333 199.333 97 288c87.333 118.667 231 194.667 431 228c70 11.333 137.333 17 202 17c120.667 0 233 -20 337 -60
c158.667 -62.667 263 -158.334 313 -287.001c18.667 -48 28 -95.333 28 -142c0 -79.333 -26.667 -157 -80 -233c-85.333 -120.667 -195.333 -187.667 -330 -201c-26.667 -3.33301 -53 -5 -79 -5c-101.333 0 -191.333 22 -270 66c-98.667 54.667 -163.667 128 -195 220
c-15.333 42.667 -23 83.667 -23 123c0 45.333 10 88.333 30 129c36 75.333 85.333 117.666 148 126.999c12 1.33301 23.667 2 35 2c44.667 0 79.667 -14.333 105 -43c22 -26 33 -53.667 33 -83c0 -11.333 -1.66699 -23 -5 -35c-12.667 -42 -35 -79 -67 -111
c-20 -20 -30 -46.333 -30 -79c0 -18.667 3.33301 -39.334 10 -62.001c18.667 -62.667 83.334 -102 194.001 -118c18 -2.66699 35.667 -4 53 -4c89.333 0 171 34 245 102c59.333 54 89 116.333 89 187c0 34.667 -7 71.334 -21 110.001
c-43.333 116.667 -136.333 196.334 -279 239.001c-86 25.333 -173 38 -261 38c-58.667 0 -117.667 -5.66699 -177 -17c-150 -28 -257.667 -86.667 -323 -176c-46 -62.667 -69 -133 -69 -211c0 -33.333 4.33301 -67.666 13 -102.999
c27.333 -120.667 101.5 -212.167 222.5 -274.5s298 -125.833 531 -190.5s387 -128 462 -190s119.5 -145 133.5 -249c2.66699 -22.667 4 -45.667 4 -69c0 -84.667 -19.667 -174 -59 -268zM1494 308c18 58 26.999 111.001 26.999 159.001c0 71.333 -19.667 132 -59 182
c-73.333 92.667 -232.333 168.834 -477 228.501s-438 131.167 -580 214.5c-47.333 27.333 -88.666 58.666 -123.999 93.999c-17.333 -57.333 -26 -110 -26 -158c0 -71.333 19.667 -132 59 -182c72.667 -93.333 231.334 -169.833 476.001 -229.5s438 -130.834 580 -213.501
c47.333 -28 88.666 -59.667 123.999 -95z" />
    <glyph glyph-name="dieresis" unicode="&#xa8;" horiz-adv-x="700" 
d="M455 1204c12.667 6.66699 24.667 10.001 36 10.001c8 0 16 -1.66699 24 -5c18 -8.66699 29.333 -25.334 34 -50.001c0.666992 -6.66699 1 -13.334 1 -20.001c0 -18 -4.33301 -36.667 -13 -56c-12 -26 -28 -45.333 -48 -58c-12 -8 -24 -12 -36 -12c-8 0 -16 2 -24 6
c-20 9.33301 -32.333 26.333 -37 51c-1.33301 6.66699 -2 13.334 -2 20.001c0 18 4.33301 36.667 13 56c12.667 26 30 45.333 52 58zM215 1204c12.667 6.66699 24.667 10.001 36 10.001c8 0 16 -1.66699 24 -5c18 -8.66699 29.333 -25.334 34 -50.001
c0.666992 -6.66699 1 -13.334 1 -20.001c0 -18 -4.33301 -36.667 -13 -56c-12 -26 -28 -45.333 -48 -58c-12 -8 -24 -12 -36 -12c-8 0 -16 2 -24 6c-20 9.33301 -32.333 26.333 -37 51c-1.33301 6.66699 -2 13.334 -2 20.001c0 18 4.33301 36.667 13 56
c12.667 26 30 45.333 52 58z" />
    <glyph glyph-name="copyright" unicode="&#xa9;" horiz-adv-x="2057" 
d="M1301 1286c-64 31.333 -134.331 47 -210.998 47c-131.333 0 -243.666 -46.333 -336.999 -139s-140 -205 -140 -337c0 -130.667 46.667 -242.667 140 -336s205.666 -140 336.999 -140c105.333 0 198.333 29.667 279 89l54 35c16.667 11.333 30.667 17 42 17
c9.33301 0 17 -3.66699 23 -11s9 -14.666 9 -21.999c0 -8.66699 -5 -17.667 -15 -27c-110 -110 -242.333 -165 -397 -165c-156 0 -288.833 55 -398.5 165s-164.5 242.333 -164.5 397c0 156 54.833 288.833 164.5 398.5s242.5 164.5 398.5 164.5
c154.667 0 270 -35.667 346 -107c69.333 -65.333 104 -131.666 104 -198.999c0 -6 -0.333008 -12 -1 -18c-2 -16.667 -4.66699 -32.667 -8 -48c-10 -50.667 -29.667 -91 -59 -121c-38 -38.667 -88.333 -64.334 -151 -77.001c-22.667 -4.66699 -45 -7 -67 -7
c-39.333 0 -78 7.33301 -116 22c-60 22.667 -99.333 61 -118 115c-8.66699 24.667 -13 47 -13 67c0 25.333 6.33301 47.666 19 66.999c18.667 28.667 45.334 43 80.001 43c7.33301 0 14.666 -0.333008 21.999 -1c45.333 -7.33301 75.666 -38 90.999 -92
c13.333 -47.333 39.666 -71 78.999 -71c6 0 12.333 0.666992 19 2c49.333 8 82.333 38 99 90c4 14.667 6 29 6 43c0 36 -15 70 -45 102c-22 21.333 -45.667 39.333 -71 54zM452.002 1449c-163.333 -163.333 -244.998 -360.332 -244.998 -590.999s81.5 -427.5 244.5 -590.5
s359.833 -244.5 590.5 -244.5c231.333 0 428.5 81.5 591.5 244.5s244.5 359.833 244.5 590.5s-81.333 427.667 -244 591c-104 94 -200.333 155.333 -289 184s-136.667 54 -144 76c0 -34 -16.667 -60 -50 -78c-20.667 -11.333 -49 -17 -85 -17
c-22.667 0 -48.334 2.33301 -77.001 7c-28.667 4 -58 6 -88 6c-48.667 0 -99.334 -5.66699 -152.001 -17c-86.667 -18.667 -185.667 -72.334 -297 -161.001zM1195 1788c7.33301 8.66699 19 13 35 13h9c20.667 -2 41.667 -10.667 63 -26c15.333 -11.333 62.833 -38 142.5 -80
s159.834 -101.667 240.501 -179c181.333 -181.333 272 -400.333 272 -657c0 -256 -90.667 -474.667 -272 -656s-400.333 -272 -657 -272c-256 0 -474.667 90.667 -656 272s-272 400 -272 656c0 256.667 82 468.667 246 636s369.333 270 616 308c42.667 4.66699 80 7 112 7
c57.333 0 97.666 -7.33301 120.999 -22z" />
    <glyph glyph-name="ordfeminine" unicode="&#xaa;" horiz-adv-x="1007" 
d="M518 1680c-44 78.667 -98 117.999 -162 117.999c-54.667 0 -99.667 -22.5 -135 -67.5s-53 -104.5 -53 -178.5c0 -69.333 18.833 -127.666 56.5 -174.999s81.5 -71 131.5 -71c83.333 0 144.666 61.667 183.999 185c-13.333 75.333 -20.666 138.333 -21.999 189zM580 1312
c-45.333 -82.667 -125.001 -123.999 -239.001 -123.999c-87.333 0 -161 36.167 -221 108.5s-90 158.166 -90 257.499c0 110.667 30.167 199.5 90.5 266.5s133.833 100.5 220.5 100.5c87.333 0 154 -27 200 -81c4.66699 23.333 28.667 35 72 35c29.333 0 52 -17.333 68 -52
c10.667 -24 16 -58 16 -102c0 -30 -2.66699 -64.667 -8 -104c-4 -34.667 -6 -67 -6 -97c0 -146 30.333 -219 91 -219c29.333 0 55 16.667 77 50s35 79.333 39 138c4.66699 56 23.667 84 57 84s50 -26 50 -78c0 -18.667 -2.33301 -40.667 -7 -66
c-14.667 -76.667 -43 -134.667 -85 -174c-41.333 -38 -84.666 -57 -129.999 -57h-2c-45.333 0.666992 -86.833 13 -124.5 37s-60.5 49.667 -68.5 77z" />
    <glyph glyph-name="guillemotleft" unicode="&#xab;" horiz-adv-x="901" 
d="M95 332c-26.667 12.667 -40 35 -40 67v5c1.33301 34 14.666 60 39.999 78c10.667 5.33301 46.667 61.666 108 168.999c60.667 106.667 114.334 160 161.001 160h1c46.667 -0.666992 74 -25.667 82 -75c0.666992 -6 1 -11.667 1 -17c0 -41.333 -27.333 -73 -82 -95
c-61.333 -25.333 -128.666 -97.666 -201.999 -216.999c73.333 -119.333 140.666 -191.333 201.999 -216c57.333 -24 86 -57.667 86 -101v-9c-4 -48 -33 -75.333 -87 -82c-3.33301 -0.666992 -6.66602 -1 -9.99902 -1c-50.667 0 -99.667 51.333 -147 154
c-50.667 108.667 -88.334 168.667 -113.001 180zM444 332c-26.667 12.667 -40 35 -40 67v5c1.33301 34 14.666 60 39.999 78c10.667 5.33301 46.667 61.666 108 168.999c60.667 106.667 114.334 160 161.001 160h1c46.667 -0.666992 74 -25.667 82 -75
c0.666992 -6 1 -11.667 1 -17c0 -41.333 -27.333 -73 -82 -95c-61.333 -25.333 -128.666 -97.666 -201.999 -216.999c73.333 -119.333 140.666 -191.333 201.999 -216c57.333 -24 86 -57.667 86 -101v-9c-4 -48 -33 -75.333 -87 -82
c-3.33301 -0.666992 -6.66602 -1 -9.99902 -1c-50.667 0 -99.667 51.333 -147 154c-50.667 108.667 -88.334 168.667 -113.001 180z" />
    <glyph glyph-name="logicalnot" unicode="&#xac;" horiz-adv-x="950" 
d="M861 418c-12.667 -66.667 -18.999 -107.667 -18.999 -123c0 -40 5.33301 -75.333 16 -106c14.667 -44.667 22 -79.334 22 -104.001c0 -25.333 -7.33301 -43.5 -22 -54.5s-34 -16.5 -58 -16.5c-24.667 0 -44.5 9.16699 -59.5 27.5s-24.167 51.5 -27.5 99.5
c-0.666992 10 -1 21.333 -1 34c0 32.667 6.66699 90.334 20 173.001c-20 -1.33301 -43 -2 -69 -2c-36.667 0 -105.334 0.333008 -206.001 1h-12c-94.667 0 -156.334 -4.33301 -185.001 -13c-41.333 -12 -76 -18 -104 -18s-47.333 7 -58 21s-16 32 -16 54
c0 21.333 9.33301 39.666 28 54.999s51.334 26.333 98.001 33c11.333 2 24.333 3 39 3c43.333 0 116.666 -3.33301 219.999 -10c23.333 -2 45.333 -3 66 -3c68.667 0 118.334 9.33301 149.001 28c40 23.333 74.667 35 104 35s51 -8 65 -24c11.333 -13.333 17 -31 17 -53
c0 -4.66699 -0.333008 -9.66699 -1 -15c-0.666992 -7.33301 -2.66699 -14.666 -6 -21.999z" />
    <glyph glyph-name="registered" unicode="&#xae;" horiz-adv-x="2057" 
d="M734 371c13.333 -4 26 -6.00098 38 -6.00098c90.667 0 151.334 101.333 182.001 304c6.66699 42.667 10 84 10 124c0 176 -62 326.333 -186 451c-116.667 -92.667 -181.334 -253.667 -194.001 -483c-1.33301 -23.333 -2 -45.666 -2 -66.999
c0 -188 50.667 -295.667 152 -323zM1065 855.999c132 51.333 201 138.332 207 260.999v19c0 112.667 -46.333 195.334 -139 248.001c-37.333 21.333 -75 32 -113 32c-60.667 0 -121.667 -27.667 -183 -83c102 -93.333 178 -252.333 228 -477zM1615 164.998
c-25.333 -12 -52 -17.998 -80 -17.998c-41.333 0 -85.333 13.667 -132 41c-73.333 42 -110 153.333 -110 334c0 12 0.333008 24.667 1 38v20c0 137.333 -40.667 206 -122 206c-29.333 0 -64.333 -9 -105 -27c-12 -327.333 -105 -491 -279 -491h-15
c-184 10 -286 136 -306 378c-2.66699 31.333 -4 61.666 -4 90.999c0 203.333 59.333 378.666 178 525.999c126.667 158 261 237 403 237c10.667 0 21 -0.333008 31 -1c154 -12 254.667 -92 302 -240c15.333 -48.667 23 -95.334 23 -140.001
c0 -93.333 -32.667 -179.333 -98 -258c64 -64.667 96 -152 96 -262c0 -110.667 8.16699 -190.667 24.5 -240s58.5 -80 126.5 -92c6 -1.33301 12 -2 18 -2c62 0 125.333 53.333 190 160c71.333 117.333 107 256.333 107 417v17c0 230.667 -81.5 427.667 -244.5 591
s-360.167 245 -591.5 245c-230.667 0 -427.5 -81.667 -590.5 -245s-244.5 -360.333 -244.5 -591s81.5 -427.5 244.5 -590.5s359.833 -244.5 590.5 -244.5c129.333 0 234.333 19 315 57c29.333 19.333 53.666 29 72.999 29c16 0 28.667 -6.66699 38 -20c6 -8 9 -16 9 -24
c0 -21.333 -20 -41.666 -60 -60.999c-95.333 -49.333 -220.333 -74 -375 -74c-256 0 -474.667 90.667 -656 272s-272 400 -272 656c0 256.667 90.667 475.667 272 657s400 272 656 272c256.667 0 475.667 -90.667 657 -272s272 -400.333 272 -657
c-20 -228 -66.167 -393.167 -138.5 -495.5s-140.166 -168.5 -203.499 -198.5z" />
    <glyph glyph-name="macron" unicode="&#xaf;" horiz-adv-x="706" 
d="M165 1059c-10 8 -14.9961 19.332 -14.9961 33.999v5c1.33301 17.333 8.66602 30.333 21.999 39c7.33301 4.66699 15.333 7 24 7c7.33301 0 15.333 -1.66699 24 -5c14 -6 37 -9 69 -9c9.33301 0 19.666 0.333008 30.999 1c47.333 2 92 8.66699 134 20
c11.333 3.33301 21.666 5 30.999 5c26 0 45.667 -10.667 59 -32c8 -14 12 -27.333 12 -40c0 -14.667 -5.66699 -28.667 -17 -42c-16.667 -19.333 -37.667 -29 -63 -29c-8 0 -16.667 1.33301 -26 4c-38 8 -80.333 13.833 -127 17.5s-81.834 6.33398 -105.501 8.00098
s-41.167 7.16699 -52.5 16.5z" />
    <glyph glyph-name="degree" unicode="&#xb0;" horiz-adv-x="413" 
d="M217 1088c-13.333 4.66699 -24.666 7 -33.999 7c-12 0 -21.667 -3.66699 -29 -11c-16.667 -16 -25.334 -35 -26.001 -57v-4c0 -20.667 6.33301 -37.667 19 -51c14 -15.333 32 -23 54 -23s41.333 7.66699 58 23c16.667 16 25.667 36 27 60v7c0 20 -5 35.667 -15 47
c-4 -4.66699 -10 -7 -18 -7c-9.33301 0 -21.333 3 -36 9zM332 1141c20.667 -32.667 31 -66.998 31 -102.998c0 -6 -0.333008 -12 -1 -18c-4 -42.667 -20.333 -78.334 -49 -107.001c-30.667 -29.333 -66.667 -44 -108 -44h-5c-43.333 1.33301 -79.666 17.666 -108.999 48.999
c-27.333 28 -41 63.333 -41 106c0 5.33301 0.333008 10.333 1 15c3.33301 49.333 21.666 89 54.999 119c30.667 28 67.667 42 111 42h9c46.667 -2 82 -21.667 106 -59z" />
    <glyph glyph-name="plusminus" unicode="&#xb1;" horiz-adv-x="950" 
d="M548 459c49.333 1.33301 94 13.8359 134 37.5029s74.667 35.5 104 35.5s51 -8 65 -24c11.333 -13.333 17 -31 17 -53c0 -4.66699 -0.333008 -9.66699 -1 -15c-3.33301 -29.333 -23 -54 -59 -74c-24 -13.333 -72.333 -20 -145 -20c-36.667 0 -79.334 1.66699 -128.001 5
c-2 -20 -3 -38.667 -3 -56c0 -40 5.33301 -75.333 16 -106c14.667 -44.667 22 -79.334 22 -104.001c0 -25.333 -7.33301 -43.5 -22 -54.5s-34 -16.5 -58 -16.5c-24.667 0 -44.5 9.16699 -59.5 27.5s-24.167 51.5 -27.5 99.5c-0.666992 10 -1 21.333 -1 34
c0 44 4.66699 100.667 14 170c-16 1.33301 -31.333 2 -46 2c-43.333 0 -80 -4.33301 -110 -13c-41.333 -12 -76 -18 -104 -18s-47.333 7 -58 21s-16 32 -16 54c0 21.333 9.33301 39.666 28 54.999s51.334 26.333 98.001 33c11.333 2 24.333 3 39 3
c43.333 0 100.333 -7.66699 171 -23c0 84.667 -12.333 148 -37 190s-38.667 74.667 -42 98c-0.666992 3.33301 -1 6.33301 -1 9c0 19.333 8.33301 36.666 25 51.999c19.333 17.333 45.333 26 78 26c32 0 61.333 -19.667 88 -59c17.333 -26.667 26 -81 26 -163
c0 -43.333 -2.33301 -94.333 -7 -153zM467 -227.997c23.333 -2 45.334 -2.99902 66.001 -2.99902c68.667 0 118.334 9.33301 149.001 28c40 23.333 74.667 35 104 35s51 -8 65 -24c11.333 -13.333 17 -31 17 -53c0 -4.66699 -0.333008 -9.66699 -1 -15
c-3.33301 -29.333 -23 -54 -59 -74c-24 -13.333 -72.333 -20 -145 -20c-36.667 0 -105.334 0.333008 -206.001 1h-12c-94.667 0 -156.334 -4.33301 -185.001 -13c-41.333 -12 -76 -18 -104 -18s-47.333 7 -58 21s-16 32 -16 54c0 21.333 9.33301 39.666 28 54.999
s51.334 26.333 98.001 33c11.333 2 24.333 3 39 3c43.333 0 116.666 -3.33301 219.999 -10z" />
    <glyph glyph-name="uni00B2" unicode="&#xb2;" horiz-adv-x="899" 
d="M628 1216c37.333 -44 56.001 -92.3359 56.001 -145.003c0 -6 -0.333008 -11.667 -1 -17c-15.333 -99.333 -63.833 -165.333 -145.5 -198s-152.167 -69 -211.5 -109c27.333 10.667 54.666 16 81.999 16c39.333 0 78.333 -11 117 -33c10 -4 18 -6 24 -6
c5.33301 0 9.33301 2.33301 12 7c15.333 24 37 42 65 54c10 3.33301 20.333 5 31 5c23.333 0 44.333 -9.33301 63 -28c19.333 -19.333 29 -40.666 29 -63.999c0 -9.33301 -2 -19.666 -6 -30.999c-12 -36 -34 -60 -66 -72c-20 -6.66699 -42 -10 -66 -10
c-12 0 -25 0.666992 -39 2c-39.333 6 -73.666 17.667 -102.999 35c-20 11.333 -44.333 17 -73 17h-8c-28 -1.33301 -46.667 -9.33301 -56 -24c-13.333 -22 -32 -33 -56 -33c-11.333 0 -23.333 3 -36 9c-32 14.667 -50.333 40 -55 76v10c0 32 13.833 63.833 41.5 95.5
s86.834 71.334 177.501 119.001s142 95.834 154 144.501c3.33301 12.667 5 24.667 5 36c0 31.333 -12 57.333 -36 78c-30 25.333 -67.667 38 -113 38h-12c-47.333 -2.66699 -78 -19 -92 -49c-7.33301 -16.667 -11 -30.334 -11 -41.001c0 -8 2 -13.333 6 -16
c4 -3.33301 7.66699 -5 11 -5c6 0 13.333 3 22 9c17.333 12.667 35.666 19 54.999 19c17.333 0 34 -5.33301 50 -16c24 -14.667 36 -35.667 36 -63c0 -10 -1.66699 -20.667 -5 -32c-13.333 -44 -49 -69.333 -107 -76c-8.66699 -1.33301 -17 -2 -25 -2
c-46.667 0 -87.334 15.667 -122.001 47c-40.667 35.333 -61.334 80.333 -62.001 135v2c0 54.667 27.333 103.334 82 146.001c48.667 38 106.334 57 173.001 57c10 0 20.333 -0.333008 31 -1c80.667 -6.66699 142 -35.334 184 -86.001z" />
    <glyph glyph-name="uni00B3" unicode="&#xb3;" horiz-adv-x="899" 
d="M594 1045c13.333 -4.66699 34.6689 -20 64.002 -46c46 -41.333 69 -92.666 69 -153.999c0 -7.33301 -0.333008 -14.333 -1 -21c-6 -70.667 -35.667 -129 -89 -175s-119.333 -69 -198 -69c-9.33301 0 -14.333 0.333008 -15 1c-72.667 0 -133 22.667 -181 68
s-73.333 95.666 -76 150.999v11c0 52 19 87.333 57 106c18 8.66699 35.667 13 53 13c22 0 41.667 -7 59 -21c22 -18 33 -40.333 33 -67c0 -7.33301 -0.666992 -15.333 -2 -24c-2 -6 -3 -12.333 -3 -19c0 -19.333 6.33301 -39.333 19 -60c13.333 -21.333 37 -32 71 -32h11
c41.333 2 73.666 18.333 96.999 49c13.333 18.667 20 43.667 20 75c0 7.33301 -0.333008 15.333 -1 24c-4 40 -20 70 -48 90c-26 18 -53.333 27 -82 27h-9c-32.667 -2 -60.334 -3 -83.001 -3h-11c-30 0.666992 -55.667 8 -77 22c-21.333 13.333 -32 31 -32 53
c0 4.66699 0.666992 9.66699 2 15c4.66699 25.333 22 38 52 38c8 0 17.333 -1.33301 28 -4c18 -5.33301 44.333 -8 79 -8c14 0 29.667 0.333008 47 1c58.667 3.33301 102.667 35.333 132 96c-26.667 -24 -53.334 -36 -80.001 -36c-6.66699 0 -13.667 1 -21 3
c-33.333 8 -58.666 15 -75.999 21s-29.333 9 -36 9c-6 0 -10 -1.66699 -12 -5c-17.333 -42.667 -51.333 -64 -102 -64c-24.667 0 -47 10 -67 30c-19.333 19.333 -29 40.666 -29 63.999c0.666992 54 26 89.667 76 107c20.667 7.33301 43.667 11 69 11
c44.667 -0.666992 87.667 -11 129 -31c32 -16 60.333 -24 85 -24h4c20 0.666992 35 8.66699 45 24c11.333 17.333 29 26 53 26c10 0 21.667 -1.66699 35 -5c39.333 -12 60 -38.667 62 -80v-5c0 -34.667 -15.333 -71 -46 -109c-23.333 -29.333 -48 -53.666 -74 -72.999z" />
    <glyph glyph-name="acute" unicode="&#xb4;" horiz-adv-x="601" 
d="M273.5 1249c37.667 54 74.498 81.667 110.498 83c30 0 50.333 -12.667 61 -38c4 -8.66699 6 -18 6 -28c0 -46.667 -36.333 -99.5 -109 -158.5s-122.667 -88.5 -150 -88.5c-15.333 0 -27.666 8 -36.999 24c-3.33301 6 -5 12.667 -5 20c0 16 9 35.333 27 58
c26.667 31.333 58.834 74 96.501 128z" />
    <glyph glyph-name="mu" unicode="&#xb5;" horiz-adv-x="1082" 
d="M17 219c-1.33301 5.33301 -2.66895 10.332 -4.00195 14.999l1 1c-32 140 -48.667 266.333 -50 379v10c0 132.667 25 206.334 75 221.001c12.667 4 24.667 6 36 6c32 0 55.333 -17 70 -51c13.333 -33.333 20 -80.333 20 -141c0 -22 -0.666992 -46 -2 -72
c-6 -82 -9 -154 -9 -216v-35c3.33301 -38.667 8.33301 -79.667 15 -123c40 -67.333 100 -101 180 -101h2c86 0 150 36.667 192 110c14.667 26 31.667 60.667 51 104c-2 19.333 -3 39.333 -3 60c0 10.667 0.333008 21.334 1 32.001c1.33301 23.333 2 46.333 2 69
c0 64 -4.33301 124 -13 180c-4 25.333 -6 48 -6 68c0 62 19.333 98.667 58 110c11.333 3.33301 22 5 32 5c35.333 0 62 -20.667 80 -62c15.333 -36.667 23 -81.667 23 -135c0 -24.667 -1.66699 -51 -5 -79c-9.33301 -74.667 -15.333 -150 -18 -226
c3.33301 -48.667 12 -92.334 26 -131.001c28.667 -75.333 66.334 -113 113.001 -113c0.666992 0 1 0.333008 1 1c47.333 0 88.5 23.5 123.5 70.5s55.333 106 61 177s22.5 106.833 50.5 107.5c23.333 0 35 -31.333 35 -94c0 -12.667 -0.333008 -26.334 -1 -41.001
c-6 -90.667 -35.333 -168 -88 -232s-109.667 -96 -171 -96h-1c-62 0.666992 -116.333 15.667 -163 45c-46 28.667 -78.667 71.667 -98 129c-56.667 -96.667 -127 -155 -211 -175c-33.333 -8 -65.666 -12 -96.999 -12c-40 0 -78.667 6.66699 -116 20
c30 -135.333 53 -283.666 69 -444.999c6.66699 -67.333 10 -126.333 10 -177c0 -74 -6.66699 -131.333 -20 -172c-18.667 -56 -46.667 -84 -84 -84c-9.33301 0 -19 2 -29 6c-40.667 13.333 -61 42 -61 86c0 12.667 1.66699 26.667 5 42c12.667 56 19 145 19 267
c0 26.667 -0.333008 55 -1 85c-3.33301 166 -29.333 340 -78 522c-8 28.667 -15.333 57 -22 85z" />
    <glyph glyph-name="paragraph" unicode="&#xb6;" horiz-adv-x="1360" 
d="M413 989c-208 129.333 -312.329 309.998 -312.996 541.998c10.667 183.333 74 319 190 407c107.333 80.667 233.666 121 378.999 121c12 0 24.333 -0.333008 37 -1c161.333 -7.33301 284.333 -36 369 -86s140.667 -115.667 168 -197c11.333 -33.333 17 -64 17 -92
c0 -40 -11.667 -75 -35 -105c-26.667 -32.667 -56 -49 -88 -49c-18 0 -37 5 -57 15c-46.667 22 -70 63.333 -70 124c0 12.667 1 25.667 3 39c1.33301 10.667 2 20.334 2 29.001c0 45.333 -17.667 82.333 -53 111c-12 -50.667 -18 -297 -18 -739
c0 -12.667 0.333008 -25 1 -37c0 -466 1 -847 3 -1143v-34c0 -274.667 -20.333 -424.667 -61 -450c-23.333 -15.333 -45 -23 -65 -23c-17.333 0 -33.333 6 -48 18c-20.667 16 -31 37.333 -31 64c0 14 2.66699 29 8 45c15.333 48 30.666 188.333 45.999 421
c8.66699 138 13 300.333 13 487c0 128.667 -2 269 -6 421c-10.667 372.667 -17.334 719.334 -20.001 1040c-33.333 8 -65 12 -95 12c-34.667 0 -67.334 -5.33301 -98.001 -16c-20.667 -1016.67 -31 -1674.67 -31 -1974c0 -22.667 0.333008 -43 1 -61v-30
c0 -244 -20.333 -378.667 -61 -404c-23.333 -15.333 -45 -23 -65 -23c-17.333 0 -33 6 -47 18c-21.333 16 -32 37.333 -32 64c0 14 3 29 9 45c15.333 48 30.333 171.667 45 371c8 106.667 12 259 12 457c0 170.667 -3 375 -9 613z" />
    <glyph glyph-name="periodcentered" unicode="&#xb7;" horiz-adv-x="508" 
d="M231 911c-17.333 -10.667 -34.333 -16 -51 -16c-58.667 0 -89 37 -91 111c2 42.667 14 79.334 36 110.001c14 21.333 31.667 39.333 53 54c17.333 10.667 34.333 16 51 16c58.667 0 89 -37 91 -111c-2 -42.667 -14 -79.334 -36 -110.001
c-14 -21.333 -31.667 -39.333 -53 -54z" />
    <glyph glyph-name="periodcentered" unicode="&#x2219;" horiz-adv-x="508" 
d="M231 911c-17.333 -10.667 -34.333 -16 -51 -16c-58.667 0 -89 37 -91 111c2 42.667 14 79.334 36 110.001c14 21.333 31.667 39.333 53 54c17.333 10.667 34.333 16 51 16c58.667 0 89 -37 91 -111c-2 -42.667 -14 -79.334 -36 -110.001
c-14 -21.333 -31.667 -39.333 -53 -54z" />
    <glyph glyph-name="cedilla" unicode="&#xb8;" horiz-adv-x="615" 
d="M465 -302c0 -52 -19.9971 -94.9971 -59.9971 -128.997c-34 -28 -71 -42 -111 -42c-8 0 -16.333 0.666992 -25 2c-50 6.66699 -84.333 26 -103 58c-10.667 17.333 -16 34.333 -16 51c0 14 3.66699 28 11 42c14.667 27.333 35.667 41 63 41h6
c29.333 -2 49.666 -17.667 60.999 -47c7.33301 -20 18.333 -30 33 -30c7.33301 0 15.666 2.33301 24.999 7c22 11.333 33 29.666 33 54.999c0 6 -0.666992 12.667 -2 20c-7.33301 36 -23 65 -47 87s-46.667 36.333 -68 43c-12.667 3.33301 -19 13.333 -19 30
c0 12 3.33301 27.667 10 47c16 45.333 29.167 75.666 39.5 90.999s23.166 24 38.499 26h6c12 0 20.333 -5.66699 25 -17c0.666992 -2 1 -4.33301 1 -7c0 -18.667 -17.333 -62.334 -52 -131.001c34.667 -10 68.5 -32.333 101.5 -67s49.5 -78 49.5 -130z" />
    <glyph glyph-name="uni00B9" unicode="&#xb9;" horiz-adv-x="720" 
d="M534 770c12.667 -32.667 19.0029 -61.3311 19.0029 -85.998s-6 -46.334 -18 -65.001c-18.667 -30 -43.334 -45 -74.001 -45c-11.333 0 -22 1.66699 -32 5c-40.667 13.333 -63.334 53.333 -68.001 120c-0.666992 14.667 -1 31 -1 49c0 58 5.66699 120.167 17 186.5
s17 122.833 17 169.5l-47 -70c-53.333 -75.333 -102 -113 -146 -113c-5.33301 0 -9.66602 0.333008 -12.999 1c-48 7.33301 -72 31.666 -72 72.999v4c2 42.667 21 68 57 76s78.167 36.333 126.5 85s79.166 83.334 92.499 104.001c13.333 24.667 35.666 37 66.999 37
c4.66699 0 9.66699 -0.333008 15 -1c35.333 -4 53 -22.333 53 -55c0 -4.66699 -0.333008 -9.33398 -1 -14.001c-4.66699 -29.333 -8.66699 -102.333 -12 -219c-1.33301 -20 -2 -39 -2 -57c0 -85.333 7.33301 -147 22 -185z" />
    <glyph glyph-name="ordmasculine" unicode="&#xba;" horiz-adv-x="756" 
d="M569 1520c0.666992 6 1 16.668 1 32.001c0 72 -19.667 132.5 -59 181.5s-85.333 73.5 -138 73.5c-46 -2.66699 -69 -24.667 -69 -66c2 -82.667 57.667 -147.334 167 -194.001c38 -15.333 70.667 -24.333 98 -27zM542 1420c-86.667 8 -163.001 35 -229.001 81
c-76 53.333 -118 104.333 -126 153c-8 -14.667 -12 -48.667 -12 -102c0 -72 19.667 -132.667 59 -182s85.333 -74 138 -74c76.667 0 133.334 41.333 170.001 124zM740.999 1489c3.33301 -7.33301 5.00098 -14.667 5.00098 -22c0 -9.33301 -3 -18.666 -9 -27.999
c-10.667 -14.667 -30.667 -22 -60 -22h-7c-60.667 -152.667 -163.334 -229 -308.001 -229c-93.333 0 -172 36.167 -236 108.5s-96 158.166 -96 257.499c0 100 32 186.167 96 258.5s142.667 108.5 236 108.5c92.667 0 171.167 -36.167 235.5 -108.5s96.5 -158.5 96.5 -258.5
c0 -17.333 -0.666992 -30.333 -2 -39c24.667 0 41 -8.66699 49 -26z" />
    <glyph glyph-name="guillemotright" unicode="&#xbb;" horiz-adv-x="896" 
d="M457 332c-24.667 -11.333 -62.334 -71.333 -113.001 -180c-47.333 -102.667 -96.333 -154 -147 -154c-3.33301 0 -6.66602 0.333008 -9.99902 1c-54 6.66699 -83 34 -87 82v9c0 43.333 28.667 77 86 101c60.667 24.667 127.667 96.667 201 216
c-73.333 119.333 -140.333 191.666 -201 216.999c-54.667 22 -82 53.667 -82 95c0 5.33301 0.666992 11 2 17c7.33301 49.333 34.666 74.333 81.999 75c46.667 0 100.667 -53.333 162 -160c60.667 -107.333 96.334 -163.666 107.001 -168.999c24.667 -18 38 -44 40 -78v-6
c0 -31.333 -13.333 -53.333 -40 -66zM806 332c-24.667 -11.333 -62.334 -71.333 -113.001 -180c-47.333 -102.667 -96.333 -154 -147 -154c-3.33301 0 -6.66602 0.333008 -9.99902 1c-54 6.66699 -83 34 -87 82v9c0 43.333 28.667 77 86 101
c60.667 24.667 127.667 96.667 201 216c-73.333 119.333 -140.333 191.666 -201 216.999c-54.667 22 -82 53.667 -82 95c0 5.33301 0.666992 11 2 17c7.33301 49.333 34.666 74.333 81.999 75c46.667 0 100.667 -53.333 162 -160
c60.667 -107.333 96.334 -163.666 107.001 -168.999c24.667 -18 38 -44 40 -78v-6c0 -31.333 -13.333 -53.333 -40 -66z" />
    <glyph glyph-name="onequarter" unicode="&#xbc;" horiz-adv-x="1842" 
d="M534 770c12.667 -32.667 19.0029 -61.3311 19.0029 -85.998s-6 -46.334 -18 -65.001c-18.667 -30 -43.334 -45 -74.001 -45c-11.333 0 -22 1.66699 -32 5c-40.667 13.333 -63.334 53.333 -68.001 120c-0.666992 14.667 -1 31 -1 49c0 58 5.66699 120.167 17 186.5
s17 122.833 17 169.5l-47 -70c-53.333 -75.333 -102 -113 -146 -113c-5.33301 0 -9.66602 0.333008 -12.999 1c-48 7.33301 -72 31.666 -72 72.999v4c2 42.667 21 68 57 76s78.167 36.333 126.5 85s79.166 83.334 92.499 104.001c13.333 24.667 35.666 37 66.999 37
c4.66699 0 9.66699 -0.333008 15 -1c35.333 -4 53 -22.333 53 -55c0 -4.66699 -0.333008 -9.33398 -1 -14.001c-4.66699 -29.333 -8.66699 -102.333 -12 -219c-1.33301 -20 -2 -39 -2 -57c0 -85.333 7.33301 -147 22 -185zM544.003 181.503
c-78 -136.333 -137 -216.832 -177 -241.499c-20.667 -13.333 -40 -20 -58 -20c-16.667 0 -32 5.66699 -46 17c-20 15.333 -30 35.666 -30 60.999c0 11.333 2 23.666 6 36.999c13.333 42 67.833 115 163.5 219l426 482.5c188.333 217.667 330 398.167 425 541.5
s162.5 227.666 202.5 252.999c20.667 12.667 40 19 58 19c16.667 0 32 -5.33301 46 -16c20 -16 30 -36.667 30 -62c0 -11.333 -2 -23.333 -6 -36c-13.333 -42.667 -76.833 -118.167 -190.5 -226.5s-264.167 -272.666 -451.5 -492.999s-320 -398.666 -398 -534.999z
M1598 208.004c14 -46 20.999 -81.335 20.999 -106.002c0 -23.333 -4.33301 -42.666 -13 -57.999c-18 -29.333 -43.667 -44 -77 -44c-10.667 0 -21 1.66699 -31 5c-43.333 11.333 -70.333 49 -81 113c-3.33301 21.333 -5 55.333 -5 102
c-22.667 -1.33301 -81 -5.66602 -175 -12.999c-33.333 -2.66699 -61.666 -4 -84.999 -4c-43.333 0 -67.666 21.667 -72.999 65c-0.666992 5.33301 -1 10 -1 14c0 34.667 17.667 53.667 53 57c24.667 2 75 56 151 162c77.333 107.333 116 179.666 116 216.999v2
c0 48 27.667 72 83 72c5.33301 0 11.333 -0.333008 18 -1c58 -5.33301 87 -31.666 87 -78.999s-6.66699 -109.333 -20 -186c-8 -44 -12 -84.667 -12 -122c0 -28 2 -53.667 6 -77h8c86.667 0 138.667 -10.667 156 -32c9.33301 -12.667 14 -24.667 14 -36
c0 -14 -6 -27.333 -18 -40c-16.667 -16 -37.334 -24 -62.001 -24c-12.667 0 -32.667 4.33301 -60 13zM1422 322.002c18 116.667 27.334 192.333 28.001 227c-14.667 -28 -59.334 -90.667 -134.001 -188l-33 -42c70.667 1.33301 117 2.33301 139 3z" />
    <glyph glyph-name="onehalf" unicode="&#xbd;" horiz-adv-x="1842" 
d="M534 770c12.667 -32.667 19.0029 -61.3311 19.0029 -85.998s-6 -46.334 -18 -65.001c-18.667 -30 -43.334 -45 -74.001 -45c-11.333 0 -22 1.66699 -32 5c-40.667 13.333 -63.334 53.333 -68.001 120c-0.666992 14.667 -1 31 -1 49c0 58 5.66699 120.167 17 186.5
s17 122.833 17 169.5l-47 -70c-53.333 -75.333 -102 -113 -146 -113c-5.33301 0 -9.66602 0.333008 -12.999 1c-48 7.33301 -72 31.666 -72 72.999v4c2 42.667 21 68 57 76s78.167 36.333 126.5 85s79.166 83.334 92.499 104.001c13.333 24.667 35.666 37 66.999 37
c4.66699 0 9.66699 -0.333008 15 -1c35.333 -4 53 -22.333 53 -55c0 -4.66699 -0.333008 -9.33398 -1 -14.001c-4.66699 -29.333 -8.66699 -102.333 -12 -219c-1.33301 -20 -2 -39 -2 -57c0 -85.333 7.33301 -147 22 -185zM544.003 181.503
c-78 -136.333 -137 -216.832 -177 -241.499c-20.667 -13.333 -40 -20 -58 -20c-16.667 0 -32 5.66699 -46 17c-20 15.333 -30 35.666 -30 60.999c0 11.333 2 23.666 6 36.999c13.333 42 67.833 115 163.5 219l426 482.5c188.333 217.667 330 398.167 425 541.5
s162.5 227.666 202.5 252.999c20.667 12.667 40 19 58 19c16.667 0 32 -5.33301 46 -16c20 -16 30 -36.667 30 -62c0 -11.333 -2 -23.333 -6 -36c-13.333 -42.667 -76.833 -118.167 -190.5 -226.5s-264.167 -272.666 -451.5 -492.999s-320 -398.666 -398 -534.999z
M1571 634.004c37.333 -44 56.001 -92.3359 56.001 -145.003c0 -6 -0.333008 -11.667 -1 -17c-15.333 -99.333 -63.833 -165.333 -145.5 -198s-152.167 -69 -211.5 -109c27.333 10.667 54.666 16 81.999 16c39.333 0 78.333 -11 117 -33c10 -4 18 -6 24 -6
c5.33301 0 9.33301 2.33301 12 7c15.333 24 37 42 65 54c10 3.33301 20.333 5 31 5c23.333 0 44.333 -9.33301 63 -28c19.333 -19.333 29 -40.666 29 -63.999c0 -9.33301 -2 -19.666 -6 -30.999c-12 -36 -34 -60 -66 -72c-20 -6.66699 -42 -10 -66 -10
c-12 0 -25 0.666992 -39 2c-39.333 6 -73.666 17.667 -102.999 35c-20 11.333 -44.333 17 -73 17h-8c-28 -1.33301 -46.667 -9.33301 -56 -24c-13.333 -22 -32 -33 -56 -33c-11.333 0 -23.333 3 -36 9c-32 14.667 -50.333 40 -55 76v10c0 32 13.833 63.833 41.5 95.5
s86.834 71.334 177.501 119.001s142 95.834 154 144.501c3.33301 12.667 5 24.667 5 36c0 31.333 -12 57.333 -36 78c-30 25.333 -67.667 38 -113 38h-12c-47.333 -2.66699 -78 -19 -92 -49c-7.33301 -16.667 -11 -30.334 -11 -41.001c0 -8 2 -13.333 6 -16
c4 -3.33301 7.66699 -5 11 -5c6 0 13.333 3 22 9c17.333 12.667 35.666 19 54.999 19c17.333 0 34 -5.33301 50 -16c24 -14.667 36 -35.667 36 -63c0 -10 -1.66699 -20.667 -5 -32c-13.333 -44 -49 -69.333 -107 -76c-8.66699 -1.33301 -17 -2 -25 -2
c-46.667 0 -87.334 15.667 -122.001 47c-40.667 35.333 -61.334 80.333 -62.001 135v2c0 54.667 27.333 103.334 82 146.001c48.667 38 106.334 57 173.001 57c10 0 20.333 -0.333008 31 -1c80.667 -6.66699 142 -35.334 184 -86.001z" />
    <glyph glyph-name="threequarters" unicode="&#xbe;" horiz-adv-x="1842" 
d="M579 1045c13.333 -4.66699 34.6689 -20 64.002 -46c46 -41.333 69 -92.666 69 -153.999c0 -7.33301 -0.333008 -14.333 -1 -21c-6 -70.667 -35.667 -129 -89 -175s-119.333 -69 -198 -69c-9.33301 0 -14.333 0.333008 -15 1c-72.667 0 -133 22.667 -181 68
s-73.333 95.666 -76 150.999v11c0 52 19 87.333 57 106c18 8.66699 35.667 13 53 13c22 0 41.667 -7 59 -21c22 -18 33 -40.333 33 -67c0 -7.33301 -0.666992 -15.333 -2 -24c-2 -6 -3 -12.333 -3 -19c0 -19.333 6.33301 -39.333 19 -60c13.333 -21.333 37 -32 71 -32h11
c41.333 2 73.666 18.333 96.999 49c13.333 18.667 20 43.667 20 75c0 7.33301 -0.333008 15.333 -1 24c-4 40 -20 70 -48 90c-26 18 -53.333 27 -82 27h-9c-32.667 -2 -60.334 -3 -83.001 -3h-11c-30 0.666992 -55.667 8 -77 22c-21.333 13.333 -32 31 -32 53
c0 4.66699 0.666992 9.66699 2 15c4.66699 25.333 22 38 52 38c8 0 17.333 -1.33301 28 -4c18 -5.33301 44.333 -8 79 -8c14 0 29.667 0.333008 47 1c58.667 3.33301 102.667 35.333 132 96c-26.667 -24 -53.334 -36 -80.001 -36c-6.66699 0 -13.667 1 -21 3
c-33.333 8 -58.666 15 -75.999 21s-29.333 9 -36 9c-6 0 -10 -1.66699 -12 -5c-17.333 -42.667 -51.333 -64 -102 -64c-24.667 0 -47 10 -67 30c-19.333 19.333 -29 40.666 -29 63.999c0.666992 54 26 89.667 76 107c20.667 7.33301 43.667 11 69 11
c44.667 -0.666992 87.667 -11 129 -31c32 -16 60.333 -24 85 -24h4c20 0.666992 35 8.66699 45 24c11.333 17.333 29 26 53 26c10 0 21.667 -1.66699 35 -5c39.333 -12 60 -38.667 62 -80v-5c0 -34.667 -15.333 -71 -46 -109c-23.333 -29.333 -48 -53.666 -74 -72.999z
M608.003 181.5c-78 -136.333 -137 -216.832 -177 -241.499c-20.667 -13.333 -40 -20 -58 -20c-16.667 0 -32 5.66699 -46 17c-20 15.333 -30 35.666 -30 60.999c0 11.333 2 23.666 6 36.999c13.333 42 67.833 115 163.5 219l426 482.5
c188.333 217.667 330 398.167 425 541.5s162.5 227.666 202.5 252.999c20.667 12.667 40 19 58 19c16.667 0 32 -5.33301 46 -16c20 -16 30 -36.667 30 -62c0 -11.333 -2 -23.333 -6 -36c-13.333 -42.667 -76.833 -118.167 -190.5 -226.5s-264.167 -272.666 -451.5 -492.999
s-320 -398.666 -398 -534.999zM1562 208.001c14 -46 20.999 -81.335 20.999 -106.002c0 -23.333 -4.33301 -42.666 -13 -57.999c-18 -29.333 -43.667 -44 -77 -44c-10.667 0 -21 1.66699 -31 5c-43.333 11.333 -70.333 49 -81 113c-3.33301 21.333 -5 55.333 -5 102
c-22.667 -1.33301 -81 -5.66602 -175 -12.999c-33.333 -2.66699 -61.666 -4 -84.999 -4c-43.333 0 -67.666 21.667 -72.999 65c-0.666992 5.33301 -1 10 -1 14c0 34.667 17.667 53.667 53 57c24.667 2 75 56 151 162c77.333 107.333 116 179.666 116 216.999v2
c0 48 27.667 72 83 72c5.33301 0 11.333 -0.333008 18 -1c58 -5.33301 87 -31.666 87 -78.999s-6.66699 -109.333 -20 -186c-8 -44 -12 -84.667 -12 -122c0 -28 2 -53.667 6 -77h8c86.667 0 138.667 -10.667 156 -32c9.33301 -12.667 14 -24.667 14 -36
c0 -14 -6 -27.333 -18 -40c-16.667 -16 -37.334 -24 -62.001 -24c-12.667 0 -32.667 4.33301 -60 13zM1386 321.999c18 116.667 27.334 192.333 28.001 227c-14.667 -28 -59.334 -90.667 -134.001 -188l-33 -42c70.667 1.33301 117 2.33301 139 3z" />
    <glyph glyph-name="questiondown" unicode="&#xbf;" horiz-adv-x="1387" 
d="M541 1452c21.333 44.667 50.334 77.335 87.001 98.002c20.667 12 41 18 61 18c15.333 0 30.333 -3.33301 45 -10c33.333 -16 52.666 -44 57.999 -84c1.33301 -8.66699 2 -17.334 2 -26.001c0 -32.667 -8.33301 -66.667 -25 -102c-20.667 -44 -49.334 -76.333 -86.001 -97
c-22 -12.667 -42.667 -19 -62 -19c-14 0 -27.333 3 -40 9c-31.333 14.667 -50.666 43 -57.999 85c-2.66699 11.333 -4 22.666 -4 33.999c0 30.667 7.33301 62 22 94zM731.001 765.001l0.00292969 7c0 33.333 -7.66699 50 -23 50c-7.33301 0 -16.666 -4.33301 -27.999 -13
c-35.333 -26.667 -81 -41.334 -137 -44.001c-2.66699 -0.666992 -5.33398 -1 -8.00098 -1c-51.333 0 -78.333 29.333 -81 88v8c0 57.333 26.667 106.333 80 147c30.667 24 64.334 36 101.001 36c29.333 0 60.666 -7.66699 93.999 -23c73.333 -34 110 -104 110 -210v-3
c-0.666992 -108 -110.334 -229 -329.001 -363c-209.333 -128.667 -314 -263.667 -314 -405c0 -6 0.333008 -12.333 1 -19c10 -148 61.667 -257.667 155 -329c84.667 -65.333 196.667 -98 336 -98c14 0 28.667 0.333008 44 1c159.333 7.33301 277.333 50 354 128
c72 72.667 108 154.334 108 245.001v18c-5.33301 97.333 -28.333 152.666 -69 165.999c-10 2.66699 -19.667 4 -29 4c-25.333 0 -44.333 -14 -57 -42c-17.333 -38.667 -47 -65 -89 -79c-14 -5.33301 -28.333 -8 -43 -8c-28.667 0 -58 10 -88 30
c-39.333 26 -59 65.333 -59 118c0 6.66699 0.333008 13.667 1 21c5.33301 63.333 46 113.333 122 150c41.333 19.333 82.666 29 123.999 29c34.667 0 69 -6.66699 103 -20c75.333 -30.667 135.333 -86.667 180 -168c29.333 -54 44 -114 44 -180
c0 -33.333 -3.66699 -68 -11 -104c-22.667 -108.667 -78.334 -203.834 -167.001 -285.501s-219 -129.5 -391 -143.5c-23.333 -2 -46.333 -3 -69 -3c-146 0 -280 39 -402 117c-142 90 -213 233 -213 429c0 0.666992 0.333008 1.33398 1 2.00098
c0 196.667 107.667 356.334 323 479.001s324 212 326 268z" />
    <glyph glyph-name="Agrave" unicode="&#xc0;" horiz-adv-x="2858" 
d="M1807 812c214 -48 414 -174.333 600 -379c-173.333 475.333 -260 947 -260 1415c-91.333 -100 -159.5 -246.333 -204.5 -439zM741 -728c203.333 1.33301 380.169 106.173 530.502 314.506s280.166 587.166 389.499 1136.5c-44.667 9.33301 -89.334 14 -134.001 14
c-46 0 -92 -5 -138 -15c-90 -20 -155.833 -67 -197.5 -141s-96.167 -111 -163.5 -111c-30.667 0 -56.5 11.167 -77.5 33.5s-31.5 49.5 -31.5 81.5c6.66699 82 55 146.167 145 192.5s203.667 72.166 341 77.499c37.333 1.33301 71.666 2 102.999 2c82.667 0 143 -5 181 -15
l136 568.5c40.667 171 96.834 323.5 168.501 457.5s152.5 201 242.5 201c24 0 47.333 -13.667 70 -41c10.667 -14 16 -28.333 16 -43c0 -14 -5.66699 -28.667 -17 -44c-20.667 -36.667 -33.667 -84 -39 -142c0 -43.333 12.167 -171.5 36.5 -384.5s89.333 -478 195 -795
s186.834 -504.833 243.5 -563.5c56.667 -58.667 107.667 -98.667 153 -120c42.667 -20 64 -49.667 64 -89c-3.33301 -48 -26.333 -78.667 -69 -92c-18.667 -6 -37.334 -9 -56 -9c-24.667 0 -49 5.33301 -73 16c-42.667 17.333 -77.834 45.666 -105.5 84.999
c-27.667 39.333 -108.834 175 -243.5 407c-134.667 232 -345 377.333 -631 436c-116 -584.667 -261.167 -989.334 -435.5 -1214s-383.833 -337 -628.5 -337c-163.333 7.33301 -301.666 59.666 -414.999 156.999c-119.333 102.667 -181.666 230 -186.999 382
c8 164 63.833 291.833 167.5 383.5s227.167 140.5 370.5 146.5c206 -2 350.667 -72.333 434 -211c34 -58.667 51 -118.667 51 -180c-0.666992 -108 -35.334 -188 -104.001 -240c-29.333 -16.667 -59 -25 -89 -25c-36.667 0 -68.167 13.167 -94.5 39.5
s-39.5 58.166 -39.5 95.499c0 57.333 26 98.333 78 123l2 2c26 26 39 57.667 39 95c0 34 -21.5 72.333 -64.5 115s-115.167 64 -216.5 64c-107.333 0 -198.833 -37.667 -274.5 -113s-113.5 -170 -113.5 -284c0 -118 43 -217 129 -297
c81.333 -76.667 198.666 -116.667 351.999 -120zM2209 2237.01c18 -22.667 26.999 -42 26.999 -58c0 -7.33301 -1.66699 -14 -5 -20c-9.33301 -16 -21.666 -24 -37 -24c-27.333 0 -77.333 29.5 -150 88.5s-109 111.833 -109 158.5c0 10 2 19.333 6 28
c10.667 25.333 31 38 61 38c36 -1.33301 72.833 -29 110.5 -83s69.834 -96.667 96.501 -128z" />
    <glyph glyph-name="Aacute" unicode="&#xc1;" horiz-adv-x="2858" 
d="M1807 812c214 -48 414 -174.333 600 -379c-173.333 475.333 -260 947 -260 1415c-91.333 -100 -159.5 -246.333 -204.5 -439zM741 -728c203.333 1.33301 380.169 106.173 530.502 314.506s280.166 587.166 389.499 1136.5c-44.667 9.33301 -89.334 14 -134.001 14
c-46 0 -92 -5 -138 -15c-90 -20 -155.833 -67 -197.5 -141s-96.167 -111 -163.5 -111c-30.667 0 -56.5 11.167 -77.5 33.5s-31.5 49.5 -31.5 81.5c6.66699 82 55 146.167 145 192.5s203.667 72.166 341 77.499c37.333 1.33301 71.666 2 102.999 2c82.667 0 143 -5 181 -15
l136 568.5c40.667 171 96.834 323.5 168.501 457.5s152.5 201 242.5 201c24 0 47.333 -13.667 70 -41c10.667 -14 16 -28.333 16 -43c0 -14 -5.66699 -28.667 -17 -44c-20.667 -36.667 -33.667 -84 -39 -142c0 -43.333 12.167 -171.5 36.5 -384.5s89.333 -478 195 -795
s186.834 -504.833 243.5 -563.5c56.667 -58.667 107.667 -98.667 153 -120c42.667 -20 64 -49.667 64 -89c-3.33301 -48 -26.333 -78.667 -69 -92c-18.667 -6 -37.334 -9 -56 -9c-24.667 0 -49 5.33301 -73 16c-42.667 17.333 -77.834 45.666 -105.5 84.999
c-27.667 39.333 -108.834 175 -243.5 407c-134.667 232 -345 377.333 -631 436c-116 -584.667 -261.167 -989.334 -435.5 -1214s-383.833 -337 -628.5 -337c-163.333 7.33301 -301.666 59.666 -414.999 156.999c-119.333 102.667 -181.666 230 -186.999 382
c8 164 63.833 291.833 167.5 383.5s227.167 140.5 370.5 146.5c206 -2 350.667 -72.333 434 -211c34 -58.667 51 -118.667 51 -180c-0.666992 -108 -35.334 -188 -104.001 -240c-29.333 -16.667 -59 -25 -89 -25c-36.667 0 -68.167 13.167 -94.5 39.5
s-39.5 58.166 -39.5 95.499c0 57.333 26 98.333 78 123l2 2c26 26 39 57.667 39 95c0 34 -21.5 72.333 -64.5 115s-115.167 64 -216.5 64c-107.333 0 -198.833 -37.667 -274.5 -113s-113.5 -170 -113.5 -284c0 -118 43 -217 129 -297
c81.333 -76.667 198.666 -116.667 351.999 -120zM2159.5 2365.01c37.667 54 74.499 81.667 110.499 83c30 0 50.333 -12.667 61 -38c4 -8.66699 6 -18 6 -28c0 -46.667 -36.333 -99.5 -109 -158.5s-122.667 -88.5 -150 -88.5c-15.333 0 -27.666 8 -37 24
c-3.33301 6 -5 12.667 -5 20c0 16 9 35.333 27 58c26.667 31.333 58.834 74 96.501 128z" />
    <glyph glyph-name="Acircumflex" unicode="&#xc2;" horiz-adv-x="2858" 
d="M1807 812c214 -48 414 -174.333 600 -379c-173.333 475.333 -260 947 -260 1415c-91.333 -100 -159.5 -246.333 -204.5 -439zM741 -728c203.333 1.33301 380.169 106.173 530.502 314.506s280.166 587.166 389.499 1136.5c-44.667 9.33301 -89.334 14 -134.001 14
c-46 0 -92 -5 -138 -15c-90 -20 -155.833 -67 -197.5 -141s-96.167 -111 -163.5 -111c-30.667 0 -56.5 11.167 -77.5 33.5s-31.5 49.5 -31.5 81.5c6.66699 82 55 146.167 145 192.5s203.667 72.166 341 77.499c37.333 1.33301 71.666 2 102.999 2c82.667 0 143 -5 181 -15
l136 568.5c40.667 171 96.834 323.5 168.501 457.5s152.5 201 242.5 201c24 0 47.333 -13.667 70 -41c10.667 -14 16 -28.333 16 -43c0 -14 -5.66699 -28.667 -17 -44c-20.667 -36.667 -33.667 -84 -39 -142c0 -43.333 12.167 -171.5 36.5 -384.5s89.333 -478 195 -795
s186.834 -504.833 243.5 -563.5c56.667 -58.667 107.667 -98.667 153 -120c42.667 -20 64 -49.667 64 -89c-3.33301 -48 -26.333 -78.667 -69 -92c-18.667 -6 -37.334 -9 -56 -9c-24.667 0 -49 5.33301 -73 16c-42.667 17.333 -77.834 45.666 -105.5 84.999
c-27.667 39.333 -108.834 175 -243.5 407c-134.667 232 -345 377.333 -631 436c-116 -584.667 -261.167 -989.334 -435.5 -1214s-383.833 -337 -628.5 -337c-163.333 7.33301 -301.666 59.666 -414.999 156.999c-119.333 102.667 -181.666 230 -186.999 382
c8 164 63.833 291.833 167.5 383.5s227.167 140.5 370.5 146.5c206 -2 350.667 -72.333 434 -211c34 -58.667 51 -118.667 51 -180c-0.666992 -108 -35.334 -188 -104.001 -240c-29.333 -16.667 -59 -25 -89 -25c-36.667 0 -68.167 13.167 -94.5 39.5
s-39.5 58.166 -39.5 95.499c0 57.333 26 98.333 78 123l2 2c26 26 39 57.667 39 95c0 34 -21.5 72.333 -64.5 115s-115.167 64 -216.5 64c-107.333 0 -198.833 -37.667 -274.5 -113s-113.5 -170 -113.5 -284c0 -118 43 -217 129 -297
c81.333 -76.667 198.666 -116.667 351.999 -120zM2086 2270.01c-22 -28 -42.6689 -58.666 -62.002 -91.999c-18.667 -32 -44 -48 -76 -48h-2c-33.333 1.33301 -54.666 18.666 -63.999 52c-2.66699 6.66699 -4 13.334 -4 20c0 24.667 14.667 46 44 64
c36.667 23.333 71.167 51 103.5 83s51 54.667 56 68s11.333 24.333 19 33s19.834 14 36.501 16c2.66699 0.666992 5.66699 1 9 1c12 0 22 -3.66699 30 -11c9.33301 -8 15.5 -20.167 18.5 -36.5s20.5 -40.333 52.5 -72s66.333 -59.167 103 -82.5
c29.333 -18 44 -39.333 44 -64c0 -6.66699 -1 -13.334 -3 -20c-10 -33.333 -31.333 -50.666 -64 -52h-3c-32 0 -57.333 16 -76 48c-19.333 33.333 -40 64.166 -62 92.499l-50 63.5z" />
    <glyph glyph-name="Atilde" unicode="&#xc3;" horiz-adv-x="2858" 
d="M1807 812c214 -48 414 -174.333 600 -379c-173.333 475.333 -260 947 -260 1415c-91.333 -100 -159.5 -246.333 -204.5 -439zM741 -728c203.333 1.33301 380.169 106.173 530.502 314.506s280.166 587.166 389.499 1136.5c-44.667 9.33301 -89.334 14 -134.001 14
c-46 0 -92 -5 -138 -15c-90 -20 -155.833 -67 -197.5 -141s-96.167 -111 -163.5 -111c-30.667 0 -56.5 11.167 -77.5 33.5s-31.5 49.5 -31.5 81.5c6.66699 82 55 146.167 145 192.5s203.667 72.166 341 77.499c37.333 1.33301 71.666 2 102.999 2c82.667 0 143 -5 181 -15
l136 568.5c40.667 171 96.834 323.5 168.501 457.5s152.5 201 242.5 201c24 0 47.333 -13.667 70 -41c10.667 -14 16 -28.333 16 -43c0 -14 -5.66699 -28.667 -17 -44c-20.667 -36.667 -33.667 -84 -39 -142c0 -43.333 12.167 -171.5 36.5 -384.5s89.333 -478 195 -795
s186.834 -504.833 243.5 -563.5c56.667 -58.667 107.667 -98.667 153 -120c42.667 -20 64 -49.667 64 -89c-3.33301 -48 -26.333 -78.667 -69 -92c-18.667 -6 -37.334 -9 -56 -9c-24.667 0 -49 5.33301 -73 16c-42.667 17.333 -77.834 45.666 -105.5 84.999
c-27.667 39.333 -108.834 175 -243.5 407c-134.667 232 -345 377.333 -631 436c-116 -584.667 -261.167 -989.334 -435.5 -1214s-383.833 -337 -628.5 -337c-163.333 7.33301 -301.666 59.666 -414.999 156.999c-119.333 102.667 -181.666 230 -186.999 382
c8 164 63.833 291.833 167.5 383.5s227.167 140.5 370.5 146.5c206 -2 350.667 -72.333 434 -211c34 -58.667 51 -118.667 51 -180c-0.666992 -108 -35.334 -188 -104.001 -240c-29.333 -16.667 -59 -25 -89 -25c-36.667 0 -68.167 13.167 -94.5 39.5
s-39.5 58.166 -39.5 95.499c0 57.333 26 98.333 78 123l2 2c26 26 39 57.667 39 95c0 34 -21.5 72.333 -64.5 115s-115.167 64 -216.5 64c-107.333 0 -198.833 -37.667 -274.5 -113s-113.5 -170 -113.5 -284c0 -118 43 -217 129 -297
c81.333 -76.667 198.666 -116.667 351.999 -120zM2150 2269.01c27.333 -22 47.999 -33.001 61.999 -33.001c9.33301 0 15.666 5.66699 19 17c7.33301 26.667 25 44.334 53 53.001c8 2 16 3 24 3c18 0 34.667 -6.66699 50 -20c12.667 -12.667 19 -29 19 -49
c0 -12 -2.33301 -25.667 -7 -41c-13.333 -40.667 -43 -63.667 -89 -69c-6 -0.666992 -11.667 -1 -17 -1c-42 0 -88 17.667 -138 53c-32 22 -56.333 33 -73 33c-12 0 -19.667 -6.33301 -23 -19c-7.33301 -30.667 -26.666 -48.667 -57.999 -54
c-5.33301 -0.666992 -10.333 -1 -15 -1c-24 0 -41.667 10.667 -53 32c-6 10 -9 21.333 -9 34c0 18 6.33301 38.333 19 61c20 37.333 52.667 56.333 98 57h2c44 0 89.333 -18.667 136 -56z" />
    <glyph glyph-name="Adieresis" unicode="&#xc4;" horiz-adv-x="2858" 
d="M1807 812c214 -48 414 -174.333 600 -379c-173.333 475.333 -260 947 -260 1415c-91.333 -100 -159.5 -246.333 -204.5 -439zM741 -728c203.333 1.33301 380.169 106.173 530.502 314.506s280.166 587.166 389.499 1136.5c-44.667 9.33301 -89.334 14 -134.001 14
c-46 0 -92 -5 -138 -15c-90 -20 -155.833 -67 -197.5 -141s-96.167 -111 -163.5 -111c-30.667 0 -56.5 11.167 -77.5 33.5s-31.5 49.5 -31.5 81.5c6.66699 82 55 146.167 145 192.5s203.667 72.166 341 77.499c37.333 1.33301 71.666 2 102.999 2c82.667 0 143 -5 181 -15
l136 568.5c40.667 171 96.834 323.5 168.501 457.5s152.5 201 242.5 201c24 0 47.333 -13.667 70 -41c10.667 -14 16 -28.333 16 -43c0 -14 -5.66699 -28.667 -17 -44c-20.667 -36.667 -33.667 -84 -39 -142c0 -43.333 12.167 -171.5 36.5 -384.5s89.333 -478 195 -795
s186.834 -504.833 243.5 -563.5c56.667 -58.667 107.667 -98.667 153 -120c42.667 -20 64 -49.667 64 -89c-3.33301 -48 -26.333 -78.667 -69 -92c-18.667 -6 -37.334 -9 -56 -9c-24.667 0 -49 5.33301 -73 16c-42.667 17.333 -77.834 45.666 -105.5 84.999
c-27.667 39.333 -108.834 175 -243.5 407c-134.667 232 -345 377.333 -631 436c-116 -584.667 -261.167 -989.334 -435.5 -1214s-383.833 -337 -628.5 -337c-163.333 7.33301 -301.666 59.666 -414.999 156.999c-119.333 102.667 -181.666 230 -186.999 382
c8 164 63.833 291.833 167.5 383.5s227.167 140.5 370.5 146.5c206 -2 350.667 -72.333 434 -211c34 -58.667 51 -118.667 51 -180c-0.666992 -108 -35.334 -188 -104.001 -240c-29.333 -16.667 -59 -25 -89 -25c-36.667 0 -68.167 13.167 -94.5 39.5
s-39.5 58.166 -39.5 95.499c0 57.333 26 98.333 78 123l2 2c26 26 39 57.667 39 95c0 34 -21.5 72.333 -64.5 115s-115.167 64 -216.5 64c-107.333 0 -198.833 -37.667 -274.5 -113s-113.5 -170 -113.5 -284c0 -118 43 -217 129 -297
c81.333 -76.667 198.666 -116.667 351.999 -120zM2241 2320.01c12.667 6.66699 24.667 9.99902 36 9.99902c8 0 16 -1.66699 24 -5c18 -8.66699 29.333 -25.334 34 -50c0.666992 -6.66699 1 -13.334 1 -20c0 -18 -4.33301 -36.667 -13 -56c-12 -26 -28 -45.333 -48 -58
c-12 -8 -24 -12 -36 -12c-8 0 -16 2 -24 6c-20 9.33301 -32.333 26.333 -37 51c-1.33301 6.66699 -2 13.334 -2 20.001c0 18 4.33301 36.667 13 56c12.667 26 30 45.333 52 58zM2001 2320.01c12.667 6.66699 24.667 10 36 10c8 0 16 -1.66699 24 -5
c18 -8.66699 29.333 -25.334 34 -50c0.666992 -6.66699 1 -13.334 1 -20c0 -18 -4.33301 -36.667 -13 -56c-12 -26 -28 -45.333 -48 -58c-12 -8 -24 -12 -36 -12c-8 0 -16 2 -24 6c-20 9.33301 -32.333 26.333 -37 51c-1.33301 6.66699 -2 13.334 -2 20
c0 18 4.33301 36.667 13 56c12.667 26 30 45.333 52 58z" />
    <glyph glyph-name="Aring" unicode="&#xc5;" horiz-adv-x="2858" 
d="M1807 812c214 -48 414 -174.333 600 -379c-173.333 475.333 -260 947 -260 1415c-91.333 -100 -159.5 -246.333 -204.5 -439zM2041 2235c0 -28 9.16699 -51.833 27.5 -71.5s40.833 -29.5 67.5 -29.5c26 0 48.333 9.83301 67 29.5s28 43.5 28 71.5
c0 28.667 -9.16699 53.667 -27.5 75s-39.833 32.333 -64.5 33c-2.66699 -6.66699 -6 -13 -10 -19c-9.33301 -13.333 -19.333 -20 -30 -20s-23 -4.33301 -37 -13s-21 -27.334 -21 -56zM2256 2066c16.667 -5.33301 33.3379 -17.9932 50.0039 -37.9932
c10.667 -14 16 -28.333 16 -43c0 -14 -5.66699 -28.667 -17 -44c-20.667 -36.667 -33.667 -84 -39 -142c0 -43.333 12.167 -171.5 36.5 -384.5s89.333 -478 195 -795s186.834 -504.833 243.5 -563.5c56.667 -58.667 107.667 -98.667 153 -120c42.667 -20 64 -49.667 64 -89
c-3.33301 -48 -26.333 -78.667 -69 -92c-18.667 -6 -37.334 -9 -56 -9c-24.667 0 -49 5.33301 -73 16c-42.667 17.333 -77.834 45.666 -105.5 84.999c-27.667 39.333 -108.834 175 -243.5 407c-134.667 232 -345 377.333 -631 436
c-116 -584.667 -261.167 -989.334 -435.5 -1214s-383.833 -337 -628.5 -337c-163.333 7.33301 -301.666 59.666 -414.999 156.999c-119.333 102.667 -181.666 230 -186.999 382c8 164 63.833 291.833 167.5 383.5s227.167 140.5 370.5 146.5
c206 -2 350.667 -72.333 434 -211c34 -58.667 51 -118.667 51 -180c-0.666992 -108 -35.334 -188 -104.001 -240c-29.333 -16.667 -59 -25 -89 -25c-36.667 0 -68.167 13.167 -94.5 39.5s-39.5 58.166 -39.5 95.499c0 57.333 26 98.333 78 123l2 2c26 26 39 57.667 39 95
c0 34 -21.5 72.333 -64.5 115s-115.167 64 -216.5 64c-107.333 0 -198.833 -37.667 -274.5 -113s-113.5 -170 -113.5 -284c0 -118 43 -217 129 -297c81.333 -76.667 198.666 -116.667 351.999 -120c203.333 1.33301 380.166 106.166 530.499 314.499
s280.166 587.166 389.499 1136.5c-44.667 9.33301 -89.334 14 -134.001 14c-46 0 -92 -5 -138 -15c-90 -20 -155.833 -67 -197.5 -141s-96.167 -111 -163.5 -111c-30.667 0 -56.5 11.167 -77.5 33.5s-31.5 49.5 -31.5 81.5c6.66699 82 55 146.167 145 192.5
s203.667 72.166 341 77.499c37.333 1.33301 71.666 2 102.999 2c82.667 0 143 -5 181 -15l136 568.5c40.667 171 97 323.5 169 457.5c39.333 74.667 82 128.334 128 161.001c-50.667 3.33301 -94 22.333 -130 56.999c-39.333 37.333 -59 86.666 -59 148
c0 61.333 12.5 109.166 37.5 143.5c25 34.333 46 59.833 63 76.5s33.833 25 50.5 25c17.333 0 33.333 -10.667 48 -32c58.667 0 107.834 -20.167 147.5 -60.5c39.667 -40.333 59.5 -91.166 59.5 -152.5c0 -61.333 -19.667 -110.666 -59 -148c-8 -7.33301 -16 -14 -24 -20z
" />
    <glyph glyph-name="AE" unicode="&#xc6;" horiz-adv-x="3299" 
d="M2484 319c16.667 19.333 35.667 38.333 57 57c17.333 16 35.333 30.667 54 44c-203.333 44.667 -361.666 142 -475 292c-120 158.667 -180 331 -180 517v12c2.66699 166.667 51 316 145 448c-4 57.333 -6.33301 110.333 -7 159
c-101.333 -160 -169.5 -321.333 -204.5 -484l-120.5 -552c184 -44 427.667 -208.333 731 -493zM2404 190c-90.667 150.667 -220.338 273.665 -389.004 368.998c-103.333 58 -199.666 101.667 -288.999 131l-162.5 -702.5c-74.333 -316.333 -198.166 -542.5 -371.499 -678.5
c-148.667 -117.333 -307 -176 -475 -176c-27.333 0 -55.333 1.66699 -84 5c-199.333 22.667 -346.333 95.334 -441 218.001c-80 103.333 -120 208.666 -120 315.999c0 20 1.33301 40 4 60c17.333 128 64.5 231.167 141.5 309.5s173.833 127.166 290.5 146.499
c39.333 6 78.333 9 117 9c74 0 145.667 -12 215 -36c104 -37.333 178 -95.333 222 -174c29.333 -54 44 -109.333 44 -166c0 -26.667 -3 -53.334 -9 -80.001c-20.667 -85.333 -58.334 -138.333 -113.001 -159c-24.667 -9.33301 -47.667 -14 -69 -14
c-27.333 0 -52.666 7.33301 -75.999 22c-36.667 23.333 -55 51.333 -55 84c0 4.66699 0.666992 9.33398 2 14.001c5.33301 38 28.666 72 69.999 102c26 18 39 44 39 78c0 20.667 -4.66699 44.334 -14 71.001c-25.333 70 -96.666 112.667 -213.999 128
c-24 3.33301 -47 5 -69 5c-88.667 0 -167 -24 -235 -72c-86 -60.667 -136.667 -146.334 -152 -257.001c-2.66699 -17.333 -4 -34.666 -4 -51.999c0 -91.333 35.333 -177.666 106 -258.999c83.333 -96 207 -148.333 371 -157c10 -0.666992 20.333 -1 31 -1
c151.333 0 291.666 60.333 420.999 181c138 129.333 242.333 336.333 313 621l158 647c-31.333 6 -65.666 9 -102.999 9c-46 0 -97 -4.66699 -153 -14c-100.667 -17.333 -170.167 -56.5 -208.5 -117.5s-78.166 -100.833 -119.499 -119.5c-16.667 -7.33301 -33 -11 -49 -11
c-24 0 -46.667 8.33301 -68 25c-27.333 21.333 -41 51.333 -41 90c0 11.333 1.33301 24 4 38c10.667 56.667 56 106.5 136 149.5s184.333 70.833 313 83.5c47.333 4.66699 91.333 7 132 7c70.667 0 132.334 -7 185.001 -21l136 568.5c40.667 171 83.167 301.167 127.5 390.5
s81.833 149.666 112.5 180.999c50.667 50 94 76.333 130 79h1c14.667 5.33301 28 8 40 8c24 0 44.667 -9.66699 62 -29c14 -16 21 -33.333 21 -52c0 -14.667 -4.66699 -30.334 -14 -47.001c-15.333 -28 -26.666 -62 -34 -102c100.667 95.333 212.667 164 336 206
c135.333 45.333 276.666 68 424 68c27.333 0 55 -0.666992 83 -2c177.333 -10 328.666 -43.667 454 -101c125.333 -57.333 217.333 -132.666 276 -225.999c51.333 -82.667 77 -169 77 -259c0 -12.667 -0.333008 -25.667 -1 -39
c-8.66699 -104.667 -46.5 -194.834 -113.5 -270.501s-164.167 -126.167 -291.5 -151.5c-42 -8.66699 -83.333 -13 -124 -13c-83.333 0 -164.666 17.667 -244 53c-118.667 51.333 -195.334 126.333 -230 225c-17.333 48.667 -26 94.334 -26 137.001
c0 44.667 9.33301 86.334 28 125.001c36 75.333 83.667 118 143 128c11.333 1.33301 22.666 2 34 2c42.667 0 77.667 -15 105 -45c24.667 -28.667 37 -58 37 -88c0 -10 -1.33301 -20.333 -4 -31c-12 -40.667 -38.333 -75.334 -79 -104.001
c-27.333 -19.333 -41 -46.333 -41 -81c0 -17.333 3.66699 -37 11 -59c21.333 -64 90.333 -104.667 207 -122c29.333 -4 57.333 -6 84 -6c81.333 0 153.666 19.667 217 59c83.333 52 132.666 125.667 148 221c2.66699 17.333 4 34.666 4 51.999c0 76 -27 148.333 -81 217
c-66 83.333 -148.833 143.666 -248.5 180.999s-220.5 59.666 -362.5 66.999c-20.667 1.33301 -41 2 -61 2c-121.333 0 -241 -19 -359 -57c-137.333 -44 -258.5 -137.333 -363.5 -280s-159.5 -280.667 -163.5 -414v-26c0 -163.333 53.667 -304.666 161 -423.999
c113.333 -126 236 -203 368 -231c52 -11.333 97 -17 135 -17c57.333 0 97.666 13 121 39c35.333 39.333 71.333 59 108 59h9c39.333 -3.33301 62.333 -27.666 69 -72.999c0.666992 -6.66699 1 -12.667 1 -18c0 -37.333 -18 -66 -54 -86
c-46 -27.333 -109.667 -43.333 -191 -48c-58 -14.667 -116.667 -51.334 -176 -110.001c-75.333 -74 -113 -150 -113 -228c0 -5.33301 0.333008 -10.666 1 -15.999c5.33301 -83.333 44.333 -149.666 117 -198.999c57.333 -40 118.666 -60 184 -60
c17.333 0 34.666 1.66699 52 5c84.667 12.667 140.334 32.334 167 59.001c26.667 26.667 55 50 85 70c20 12.667 40.333 19 61 19c11.333 0 22.666 -1.66699 34 -5c33.333 -10.667 55.333 -34 66 -70c2 -8 3 -15.667 3 -23c0 -27.333 -15.333 -52.333 -46 -75
c-38.667 -29.333 -103.667 -60.666 -195 -93.999c-52.667 -19.333 -110.334 -29 -173 -29c-46.667 0 -96.334 5.66699 -149 17c-122.667 24.667 -214.334 79 -275 163c-53.333 72.667 -80 150.667 -80 234c0 12 0.666992 24 2 36c2 30 8.66699 59.333 20 88z" />
    <glyph glyph-name="Ccedilla" unicode="&#xc7;" horiz-adv-x="1806" 
d="M1505 -523c-16 -0.666992 -32.3271 -0.998047 -48.9941 -0.998047c-191.333 0 -386 35.667 -584 107c-273.333 98 -478.666 279.333 -615.999 544c-98 188.667 -147 385 -147 589c0 394.667 137.167 720.167 411.5 976.5s632.166 384.5 1073.5 384.5
c336.667 -18.667 568 -111 694 -277c55.333 -80.667 83 -172.334 83 -275.001c0 -129.333 -51.5 -236.333 -154.5 -321s-227.167 -127 -372.5 -127s-269.333 39 -372 117c-85.333 85.333 -128 176 -128 272c0 44.667 9.33301 86.334 28 125.001c36 82 95 125.333 177 130
c42.667 0 77.667 -15 105 -45c24.667 -28.667 37 -58 37 -88c0 -10 -1.33301 -20.333 -4 -31c-12 -40.667 -38.333 -75.334 -79 -104.001c-27.333 -19.333 -41 -46.333 -41 -81c10.667 -119.333 109 -179 295 -179c106 0 195.5 31 268.5 93s109.5 141.667 109.5 239
c0 80 -21.333 150.333 -64 211c-100.667 129.333 -292.334 203.666 -575.001 222.999c-434.667 0 -769.334 -119.167 -1004 -357.5s-352 -533.5 -352 -885.5c0 -211.333 51.667 -404 155 -578c128 -217.333 320.667 -365.666 578 -444.999c180 -56.667 348.333 -85 505 -85
c234.667 0 411.667 49.333 531 148c112 92 198 138 258 138c52 -0.666992 78 -27 78 -79c-6.66699 -60 -99.334 -131.333 -278.001 -214c-144.667 -67.333 -306.334 -107.333 -485.001 -120c-8.66699 -22 -22 -50.667 -40 -86c34.667 -10 68.5 -32.333 101.5 -67
s49.5 -78 49.5 -130s-20 -95 -60 -129c-34 -28 -71 -42 -111 -42c-8 0 -16.333 0.666992 -25 2c-50 6.66699 -84.333 26 -103 58c-10.667 17.333 -16 34.333 -16 51c0 14 3.66699 28 11 42c14.667 27.333 35.667 41 63 41h6c29.333 -2 49.666 -17.667 60.999 -47
c7.33301 -20 18.333 -30 33 -30c7.33301 0 15.666 2.33301 24.999 7c22 11.333 33 29.666 33 54.999c0 6 -0.666992 12.667 -2 20c-7.33301 36 -23 65 -47 87s-46.667 36.333 -68 43c-12.667 3.33301 -19 13.333 -19 30c0 12 3.33301 27.667 10 47z" />
    <glyph glyph-name="Egrave" unicode="&#xc8;" horiz-adv-x="1413" 
d="M1092 1984c-243.333 -2 -450.501 -74.3291 -621.501 -216.996s-259.5 -329 -265.5 -559c0 -163.333 54 -305 162 -425c153.333 -159.333 321 -242 503 -248c57.333 0 97.666 13 120.999 39c35.333 39.333 71.333 59 108 59c46 -3.33301 72.333 -30.333 79 -81
c0 -44 -18 -76 -54 -96c-46 -27.333 -109.667 -43.333 -191 -48c-58 -14.667 -116.667 -51.334 -176 -110.001c-75.333 -74 -113 -150 -113 -228c6 -160.667 103.333 -252.334 292 -275.001c86 0 152.333 17.333 199 52s85 62 115 82c20 12.667 43.667 19 71 19
c62 -0.666992 93 -30 93 -88c0 -60.667 -43.333 -110.5 -130 -149.5s-181.334 -58.5 -284.001 -58.5c-182 2.66699 -323.333 62.667 -424 180c-53.333 73.333 -80 151.666 -80 234.999c9.33301 146.667 80.333 264.334 213 353.001
c-203.333 44.667 -361.666 142 -474.999 292c-120 158.667 -180 335 -180 529c2.66699 223.333 95.334 421.166 278.001 593.499s429.334 265.166 740.001 278.499c212 0 389 -31.5 531 -94.5s242.333 -141.167 301 -234.5c51.333 -82.667 77 -169 77 -259
c-2.66699 -144 -49.167 -258.833 -139.5 -344.5s-220.5 -128.834 -390.5 -129.501c-328 13.333 -494.667 145 -500 395c8 178.667 76.333 270.334 205 275.001c42.667 0 77.667 -15 105 -45c24.667 -28.667 37 -58 37 -88c0 -54.667 -27.667 -99.667 -83 -135
c-27.333 -19.333 -41 -46.333 -41 -81c0 -17.333 3.66699 -37 11 -59c48 -84 145 -126.667 291 -128c94.667 0 178.667 29.5 252 88.5s112.333 140.167 117 243.5c0 76 -27 148.333 -81 217c-66 83.333 -155.5 145.333 -268.5 186s-247.5 62 -403.5 64zM1091 2237
c18 -22.667 26.998 -42 26.998 -58c0 -7.33301 -1.66699 -14 -5 -20c-9.33301 -16 -21.666 -24 -36.999 -24c-27.333 0 -77.333 29.5 -150 88.5s-109 111.833 -109 158.5c0 10 2 19.333 6 28c10.667 25.333 31 38 61 38c36 -1.33301 72.833 -29 110.5 -83
s69.834 -96.667 96.501 -128z" />
    <glyph glyph-name="Eacute" unicode="&#xc9;" horiz-adv-x="1413" 
d="M1092 1984c-243.333 -2 -450.501 -74.3291 -621.501 -216.996s-259.5 -329 -265.5 -559c0 -163.333 54 -305 162 -425c153.333 -159.333 321 -242 503 -248c57.333 0 97.666 13 120.999 39c35.333 39.333 71.333 59 108 59c46 -3.33301 72.333 -30.333 79 -81
c0 -44 -18 -76 -54 -96c-46 -27.333 -109.667 -43.333 -191 -48c-58 -14.667 -116.667 -51.334 -176 -110.001c-75.333 -74 -113 -150 -113 -228c6 -160.667 103.333 -252.334 292 -275.001c86 0 152.333 17.333 199 52s85 62 115 82c20 12.667 43.667 19 71 19
c62 -0.666992 93 -30 93 -88c0 -60.667 -43.333 -110.5 -130 -149.5s-181.334 -58.5 -284.001 -58.5c-182 2.66699 -323.333 62.667 -424 180c-53.333 73.333 -80 151.666 -80 234.999c9.33301 146.667 80.333 264.334 213 353.001
c-203.333 44.667 -361.666 142 -474.999 292c-120 158.667 -180 335 -180 529c2.66699 223.333 95.334 421.166 278.001 593.499s429.334 265.166 740.001 278.499c212 0 389 -31.5 531 -94.5s242.333 -141.167 301 -234.5c51.333 -82.667 77 -169 77 -259
c-2.66699 -144 -49.167 -258.833 -139.5 -344.5s-220.5 -128.834 -390.5 -129.501c-328 13.333 -494.667 145 -500 395c8 178.667 76.333 270.334 205 275.001c42.667 0 77.667 -15 105 -45c24.667 -28.667 37 -58 37 -88c0 -54.667 -27.667 -99.667 -83 -135
c-27.333 -19.333 -41 -46.333 -41 -81c0 -17.333 3.66699 -37 11 -59c48 -84 145 -126.667 291 -128c94.667 0 178.667 29.5 252 88.5s112.333 140.167 117 243.5c0 76 -27 148.333 -81 217c-66 83.333 -155.5 145.333 -268.5 186s-247.5 62 -403.5 64zM1040.5 2365
c37.667 54 74.498 81.667 110.498 83c30 0 50.333 -12.667 61 -38c4 -8.66699 6 -18 6 -28c0 -46.667 -36.333 -99.5 -109 -158.5s-122.667 -88.5 -150 -88.5c-15.333 0 -27.666 8 -36.999 24c-3.33301 6 -5 12.667 -5 20c0 16 9 35.333 27 58
c26.667 31.333 58.834 74 96.501 128z" />
    </font>
</defs>
</svg>
